G75*
%MOIN*%
%OFA0B0*%
%FSLAX25Y25*%
%IPPOS*%
%LPD*%
%AMOC8*
5,1,8,0,0,1.08239X$1,22.5*
%
%ADD10C,0.00800*%
%ADD11C,0.01500*%
%ADD12C,0.01100*%
%ADD13C,0.01000*%
%ADD14C,0.00000*%
D10*
X0133333Y0128933D02*
X0233333Y0128933D01*
X0233333Y0328933D01*
X0133333Y0328933D01*
X0133333Y0128933D01*
X0235333Y0128933D02*
X0335333Y0128933D01*
X0335333Y0328933D01*
X0235333Y0328933D01*
X0235333Y0128933D01*
X0337333Y0128933D02*
X0437333Y0128933D01*
X0437333Y0328933D01*
X0337333Y0328933D01*
X0337333Y0128933D01*
X0337333Y0330933D02*
X0437333Y0330933D01*
X0437333Y0530933D01*
X0337333Y0530933D01*
X0337333Y0330933D01*
X0335333Y0330933D02*
X0235333Y0330933D01*
X0235333Y0530933D01*
X0335333Y0530933D01*
X0335333Y0330933D01*
X0233333Y0330933D02*
X0133333Y0330933D01*
X0133333Y0530933D01*
X0233333Y0530933D01*
X0233333Y0330933D01*
D11*
X0106333Y0329933D02*
X0489333Y0329933D01*
X0489333Y0531933D02*
X0106333Y0531933D01*
X0132333Y0582933D02*
X0132333Y0101933D01*
X0106333Y0127933D02*
X0489333Y0127933D01*
X0438333Y0101933D02*
X0438333Y0582933D01*
X0336333Y0582933D02*
X0336333Y0101933D01*
X0234333Y0101933D02*
X0234333Y0582933D01*
D12*
X0235554Y0588983D02*
X0236866Y0588983D01*
X0235554Y0588983D02*
X0235492Y0588985D01*
X0235431Y0588991D01*
X0235370Y0589000D01*
X0235310Y0589014D01*
X0235250Y0589031D01*
X0235192Y0589052D01*
X0235135Y0589077D01*
X0235080Y0589105D01*
X0235027Y0589136D01*
X0234976Y0589171D01*
X0234927Y0589209D01*
X0234881Y0589249D01*
X0234837Y0589293D01*
X0234797Y0589339D01*
X0234759Y0589388D01*
X0234724Y0589439D01*
X0234693Y0589492D01*
X0234665Y0589547D01*
X0234640Y0589604D01*
X0234619Y0589662D01*
X0234602Y0589722D01*
X0234588Y0589782D01*
X0234579Y0589843D01*
X0234573Y0589904D01*
X0234571Y0589966D01*
X0234571Y0591933D01*
X0234573Y0591995D01*
X0234579Y0592056D01*
X0234588Y0592117D01*
X0234602Y0592177D01*
X0234619Y0592237D01*
X0234640Y0592295D01*
X0234665Y0592352D01*
X0234693Y0592407D01*
X0234724Y0592460D01*
X0234759Y0592511D01*
X0234797Y0592560D01*
X0234837Y0592606D01*
X0234881Y0592650D01*
X0234927Y0592690D01*
X0234976Y0592728D01*
X0235027Y0592763D01*
X0235080Y0592794D01*
X0235135Y0592822D01*
X0235192Y0592847D01*
X0235250Y0592868D01*
X0235310Y0592885D01*
X0235370Y0592899D01*
X0235431Y0592908D01*
X0235492Y0592914D01*
X0235554Y0592916D01*
X0236866Y0592916D01*
X0239279Y0591605D02*
X0239279Y0590294D01*
X0239281Y0590223D01*
X0239287Y0590152D01*
X0239296Y0590082D01*
X0239310Y0590012D01*
X0239327Y0589943D01*
X0239348Y0589875D01*
X0239372Y0589809D01*
X0239400Y0589744D01*
X0239432Y0589680D01*
X0239467Y0589618D01*
X0239505Y0589558D01*
X0239546Y0589501D01*
X0239591Y0589445D01*
X0239638Y0589392D01*
X0239688Y0589342D01*
X0239741Y0589295D01*
X0239797Y0589250D01*
X0239854Y0589209D01*
X0239914Y0589171D01*
X0239976Y0589136D01*
X0240040Y0589104D01*
X0240105Y0589076D01*
X0240171Y0589052D01*
X0240239Y0589031D01*
X0240308Y0589014D01*
X0240378Y0589000D01*
X0240448Y0588991D01*
X0240519Y0588985D01*
X0240590Y0588983D01*
X0240661Y0588985D01*
X0240732Y0588991D01*
X0240802Y0589000D01*
X0240872Y0589014D01*
X0240941Y0589031D01*
X0241009Y0589052D01*
X0241075Y0589076D01*
X0241140Y0589104D01*
X0241204Y0589136D01*
X0241266Y0589171D01*
X0241326Y0589209D01*
X0241383Y0589250D01*
X0241439Y0589295D01*
X0241492Y0589342D01*
X0241542Y0589392D01*
X0241589Y0589445D01*
X0241634Y0589501D01*
X0241675Y0589558D01*
X0241713Y0589618D01*
X0241748Y0589680D01*
X0241780Y0589744D01*
X0241808Y0589809D01*
X0241832Y0589875D01*
X0241853Y0589943D01*
X0241870Y0590012D01*
X0241884Y0590082D01*
X0241893Y0590152D01*
X0241899Y0590223D01*
X0241901Y0590294D01*
X0241901Y0591605D01*
X0241899Y0591676D01*
X0241893Y0591747D01*
X0241884Y0591817D01*
X0241870Y0591887D01*
X0241853Y0591956D01*
X0241832Y0592024D01*
X0241808Y0592090D01*
X0241780Y0592155D01*
X0241748Y0592219D01*
X0241713Y0592281D01*
X0241675Y0592341D01*
X0241634Y0592398D01*
X0241589Y0592454D01*
X0241542Y0592507D01*
X0241492Y0592557D01*
X0241439Y0592604D01*
X0241383Y0592649D01*
X0241326Y0592690D01*
X0241266Y0592728D01*
X0241204Y0592763D01*
X0241140Y0592795D01*
X0241075Y0592823D01*
X0241009Y0592847D01*
X0240941Y0592868D01*
X0240872Y0592885D01*
X0240802Y0592899D01*
X0240732Y0592908D01*
X0240661Y0592914D01*
X0240590Y0592916D01*
X0240519Y0592914D01*
X0240448Y0592908D01*
X0240378Y0592899D01*
X0240308Y0592885D01*
X0240239Y0592868D01*
X0240171Y0592847D01*
X0240105Y0592823D01*
X0240040Y0592795D01*
X0239976Y0592763D01*
X0239914Y0592728D01*
X0239854Y0592690D01*
X0239797Y0592649D01*
X0239741Y0592604D01*
X0239688Y0592557D01*
X0239638Y0592507D01*
X0239591Y0592454D01*
X0239546Y0592398D01*
X0239505Y0592341D01*
X0239467Y0592281D01*
X0239432Y0592219D01*
X0239400Y0592155D01*
X0239372Y0592090D01*
X0239348Y0592024D01*
X0239327Y0591956D01*
X0239310Y0591887D01*
X0239296Y0591817D01*
X0239287Y0591747D01*
X0239281Y0591676D01*
X0239279Y0591605D01*
X0244868Y0592916D02*
X0246834Y0592916D01*
X0246834Y0592261D01*
X0244868Y0592916D02*
X0244868Y0588983D01*
X0248920Y0589966D02*
X0248920Y0591605D01*
X0248920Y0590950D02*
X0251542Y0590950D01*
X0251542Y0591605D01*
X0251540Y0591676D01*
X0251534Y0591747D01*
X0251525Y0591817D01*
X0251511Y0591887D01*
X0251494Y0591956D01*
X0251473Y0592024D01*
X0251449Y0592090D01*
X0251421Y0592155D01*
X0251389Y0592219D01*
X0251354Y0592281D01*
X0251316Y0592341D01*
X0251275Y0592398D01*
X0251230Y0592454D01*
X0251183Y0592507D01*
X0251133Y0592557D01*
X0251080Y0592604D01*
X0251024Y0592649D01*
X0250967Y0592690D01*
X0250907Y0592728D01*
X0250845Y0592763D01*
X0250781Y0592795D01*
X0250716Y0592823D01*
X0250650Y0592847D01*
X0250582Y0592868D01*
X0250513Y0592885D01*
X0250443Y0592899D01*
X0250373Y0592908D01*
X0250302Y0592914D01*
X0250231Y0592916D01*
X0250160Y0592914D01*
X0250089Y0592908D01*
X0250019Y0592899D01*
X0249949Y0592885D01*
X0249880Y0592868D01*
X0249812Y0592847D01*
X0249746Y0592823D01*
X0249681Y0592795D01*
X0249617Y0592763D01*
X0249555Y0592728D01*
X0249495Y0592690D01*
X0249438Y0592649D01*
X0249382Y0592604D01*
X0249329Y0592557D01*
X0249279Y0592507D01*
X0249232Y0592454D01*
X0249187Y0592398D01*
X0249146Y0592341D01*
X0249108Y0592281D01*
X0249073Y0592219D01*
X0249041Y0592155D01*
X0249013Y0592090D01*
X0248989Y0592024D01*
X0248968Y0591956D01*
X0248951Y0591887D01*
X0248937Y0591817D01*
X0248928Y0591747D01*
X0248922Y0591676D01*
X0248920Y0591605D01*
X0248920Y0589966D02*
X0248922Y0589904D01*
X0248928Y0589843D01*
X0248937Y0589782D01*
X0248951Y0589722D01*
X0248968Y0589662D01*
X0248989Y0589604D01*
X0249014Y0589547D01*
X0249042Y0589492D01*
X0249073Y0589439D01*
X0249108Y0589388D01*
X0249146Y0589339D01*
X0249186Y0589293D01*
X0249230Y0589249D01*
X0249276Y0589209D01*
X0249325Y0589171D01*
X0249376Y0589136D01*
X0249429Y0589105D01*
X0249484Y0589077D01*
X0249541Y0589052D01*
X0249599Y0589031D01*
X0249659Y0589014D01*
X0249719Y0589000D01*
X0249780Y0588991D01*
X0249841Y0588985D01*
X0249903Y0588983D01*
X0251542Y0588983D01*
X0231358Y0590622D02*
X0229719Y0591278D01*
X0229667Y0591301D01*
X0229616Y0591328D01*
X0229567Y0591358D01*
X0229520Y0591391D01*
X0229475Y0591427D01*
X0229433Y0591467D01*
X0229394Y0591509D01*
X0229358Y0591553D01*
X0229325Y0591600D01*
X0229295Y0591650D01*
X0229268Y0591701D01*
X0229245Y0591753D01*
X0229226Y0591807D01*
X0229210Y0591863D01*
X0229198Y0591919D01*
X0229190Y0591976D01*
X0229186Y0592033D01*
X0229185Y0592091D01*
X0229189Y0592148D01*
X0229196Y0592205D01*
X0229208Y0592262D01*
X0229223Y0592317D01*
X0229241Y0592372D01*
X0229264Y0592425D01*
X0229290Y0592476D01*
X0229319Y0592525D01*
X0229352Y0592573D01*
X0229388Y0592618D01*
X0229426Y0592660D01*
X0229468Y0592700D01*
X0229512Y0592737D01*
X0229559Y0592771D01*
X0229607Y0592802D01*
X0229658Y0592829D01*
X0229710Y0592853D01*
X0229764Y0592873D01*
X0229819Y0592889D01*
X0229875Y0592902D01*
X0229932Y0592911D01*
X0229990Y0592916D01*
X0230047Y0592917D01*
X0229227Y0589311D02*
X0229361Y0589265D01*
X0229496Y0589222D01*
X0229632Y0589183D01*
X0229769Y0589147D01*
X0229906Y0589115D01*
X0230045Y0589086D01*
X0230184Y0589060D01*
X0230324Y0589039D01*
X0230465Y0589020D01*
X0230605Y0589006D01*
X0230747Y0588995D01*
X0230888Y0588987D01*
X0231030Y0588984D01*
X0231030Y0588983D02*
X0231087Y0588984D01*
X0231145Y0588989D01*
X0231202Y0588998D01*
X0231258Y0589011D01*
X0231313Y0589027D01*
X0231367Y0589047D01*
X0231419Y0589071D01*
X0231470Y0589098D01*
X0231518Y0589129D01*
X0231565Y0589163D01*
X0231609Y0589200D01*
X0231651Y0589240D01*
X0231689Y0589282D01*
X0231725Y0589327D01*
X0231758Y0589375D01*
X0231787Y0589424D01*
X0231813Y0589475D01*
X0231836Y0589528D01*
X0231854Y0589583D01*
X0231869Y0589638D01*
X0231881Y0589695D01*
X0231888Y0589752D01*
X0231892Y0589809D01*
X0231891Y0589867D01*
X0231887Y0589924D01*
X0231879Y0589981D01*
X0231867Y0590037D01*
X0231851Y0590093D01*
X0231832Y0590147D01*
X0231809Y0590199D01*
X0231782Y0590250D01*
X0231752Y0590300D01*
X0231719Y0590347D01*
X0231683Y0590391D01*
X0231644Y0590433D01*
X0231602Y0590473D01*
X0231557Y0590509D01*
X0231510Y0590542D01*
X0231461Y0590572D01*
X0231410Y0590599D01*
X0231358Y0590622D01*
X0231521Y0592588D02*
X0231414Y0592634D01*
X0231305Y0592677D01*
X0231195Y0592717D01*
X0231083Y0592753D01*
X0230971Y0592785D01*
X0230857Y0592814D01*
X0230743Y0592840D01*
X0230628Y0592861D01*
X0230513Y0592880D01*
X0230396Y0592894D01*
X0230280Y0592905D01*
X0230163Y0592912D01*
X0230046Y0592916D01*
X0226351Y0591278D02*
X0222418Y0591278D01*
X0219747Y0592916D02*
X0218435Y0588983D01*
X0217124Y0592916D01*
X0149542Y0591605D02*
X0149542Y0590950D01*
X0146920Y0590950D01*
X0146920Y0591605D02*
X0146920Y0589966D01*
X0146922Y0589904D01*
X0146928Y0589843D01*
X0146937Y0589782D01*
X0146951Y0589722D01*
X0146968Y0589662D01*
X0146989Y0589604D01*
X0147014Y0589547D01*
X0147042Y0589492D01*
X0147073Y0589439D01*
X0147108Y0589388D01*
X0147146Y0589339D01*
X0147186Y0589293D01*
X0147230Y0589249D01*
X0147276Y0589209D01*
X0147325Y0589171D01*
X0147376Y0589136D01*
X0147429Y0589105D01*
X0147484Y0589077D01*
X0147541Y0589052D01*
X0147599Y0589031D01*
X0147659Y0589014D01*
X0147719Y0589000D01*
X0147780Y0588991D01*
X0147841Y0588985D01*
X0147903Y0588983D01*
X0149542Y0588983D01*
X0149542Y0591605D02*
X0149540Y0591676D01*
X0149534Y0591747D01*
X0149525Y0591817D01*
X0149511Y0591887D01*
X0149494Y0591956D01*
X0149473Y0592024D01*
X0149449Y0592090D01*
X0149421Y0592155D01*
X0149389Y0592219D01*
X0149354Y0592281D01*
X0149316Y0592341D01*
X0149275Y0592398D01*
X0149230Y0592454D01*
X0149183Y0592507D01*
X0149133Y0592557D01*
X0149080Y0592604D01*
X0149024Y0592649D01*
X0148967Y0592690D01*
X0148907Y0592728D01*
X0148845Y0592763D01*
X0148781Y0592795D01*
X0148716Y0592823D01*
X0148650Y0592847D01*
X0148582Y0592868D01*
X0148513Y0592885D01*
X0148443Y0592899D01*
X0148373Y0592908D01*
X0148302Y0592914D01*
X0148231Y0592916D01*
X0148160Y0592914D01*
X0148089Y0592908D01*
X0148019Y0592899D01*
X0147949Y0592885D01*
X0147880Y0592868D01*
X0147812Y0592847D01*
X0147746Y0592823D01*
X0147681Y0592795D01*
X0147617Y0592763D01*
X0147555Y0592728D01*
X0147495Y0592690D01*
X0147438Y0592649D01*
X0147382Y0592604D01*
X0147329Y0592557D01*
X0147279Y0592507D01*
X0147232Y0592454D01*
X0147187Y0592398D01*
X0147146Y0592341D01*
X0147108Y0592281D01*
X0147073Y0592219D01*
X0147041Y0592155D01*
X0147013Y0592090D01*
X0146989Y0592024D01*
X0146968Y0591956D01*
X0146951Y0591887D01*
X0146937Y0591817D01*
X0146928Y0591747D01*
X0146922Y0591676D01*
X0146920Y0591605D01*
X0144834Y0592261D02*
X0144834Y0592916D01*
X0142868Y0592916D01*
X0142868Y0588983D01*
X0139901Y0590294D02*
X0139901Y0591605D01*
X0139899Y0591676D01*
X0139893Y0591747D01*
X0139884Y0591817D01*
X0139870Y0591887D01*
X0139853Y0591956D01*
X0139832Y0592024D01*
X0139808Y0592090D01*
X0139780Y0592155D01*
X0139748Y0592219D01*
X0139713Y0592281D01*
X0139675Y0592341D01*
X0139634Y0592398D01*
X0139589Y0592454D01*
X0139542Y0592507D01*
X0139492Y0592557D01*
X0139439Y0592604D01*
X0139383Y0592649D01*
X0139326Y0592690D01*
X0139266Y0592728D01*
X0139204Y0592763D01*
X0139140Y0592795D01*
X0139075Y0592823D01*
X0139009Y0592847D01*
X0138941Y0592868D01*
X0138872Y0592885D01*
X0138802Y0592899D01*
X0138732Y0592908D01*
X0138661Y0592914D01*
X0138590Y0592916D01*
X0138519Y0592914D01*
X0138448Y0592908D01*
X0138378Y0592899D01*
X0138308Y0592885D01*
X0138239Y0592868D01*
X0138171Y0592847D01*
X0138105Y0592823D01*
X0138040Y0592795D01*
X0137976Y0592763D01*
X0137914Y0592728D01*
X0137854Y0592690D01*
X0137797Y0592649D01*
X0137741Y0592604D01*
X0137688Y0592557D01*
X0137638Y0592507D01*
X0137591Y0592454D01*
X0137546Y0592398D01*
X0137505Y0592341D01*
X0137467Y0592281D01*
X0137432Y0592219D01*
X0137400Y0592155D01*
X0137372Y0592090D01*
X0137348Y0592024D01*
X0137327Y0591956D01*
X0137310Y0591887D01*
X0137296Y0591817D01*
X0137287Y0591747D01*
X0137281Y0591676D01*
X0137279Y0591605D01*
X0137279Y0590294D01*
X0137281Y0590223D01*
X0137287Y0590152D01*
X0137296Y0590082D01*
X0137310Y0590012D01*
X0137327Y0589943D01*
X0137348Y0589875D01*
X0137372Y0589809D01*
X0137400Y0589744D01*
X0137432Y0589680D01*
X0137467Y0589618D01*
X0137505Y0589558D01*
X0137546Y0589501D01*
X0137591Y0589445D01*
X0137638Y0589392D01*
X0137688Y0589342D01*
X0137741Y0589295D01*
X0137797Y0589250D01*
X0137854Y0589209D01*
X0137914Y0589171D01*
X0137976Y0589136D01*
X0138040Y0589104D01*
X0138105Y0589076D01*
X0138171Y0589052D01*
X0138239Y0589031D01*
X0138308Y0589014D01*
X0138378Y0589000D01*
X0138448Y0588991D01*
X0138519Y0588985D01*
X0138590Y0588983D01*
X0138661Y0588985D01*
X0138732Y0588991D01*
X0138802Y0589000D01*
X0138872Y0589014D01*
X0138941Y0589031D01*
X0139009Y0589052D01*
X0139075Y0589076D01*
X0139140Y0589104D01*
X0139204Y0589136D01*
X0139266Y0589171D01*
X0139326Y0589209D01*
X0139383Y0589250D01*
X0139439Y0589295D01*
X0139492Y0589342D01*
X0139542Y0589392D01*
X0139589Y0589445D01*
X0139634Y0589501D01*
X0139675Y0589558D01*
X0139713Y0589618D01*
X0139748Y0589680D01*
X0139780Y0589744D01*
X0139808Y0589809D01*
X0139832Y0589875D01*
X0139853Y0589943D01*
X0139870Y0590012D01*
X0139884Y0590082D01*
X0139893Y0590152D01*
X0139899Y0590223D01*
X0139901Y0590294D01*
X0134866Y0588983D02*
X0133554Y0588983D01*
X0133492Y0588985D01*
X0133431Y0588991D01*
X0133370Y0589000D01*
X0133310Y0589014D01*
X0133250Y0589031D01*
X0133192Y0589052D01*
X0133135Y0589077D01*
X0133080Y0589105D01*
X0133027Y0589136D01*
X0132976Y0589171D01*
X0132927Y0589209D01*
X0132881Y0589249D01*
X0132837Y0589293D01*
X0132797Y0589339D01*
X0132759Y0589388D01*
X0132724Y0589439D01*
X0132693Y0589492D01*
X0132665Y0589547D01*
X0132640Y0589604D01*
X0132619Y0589662D01*
X0132602Y0589722D01*
X0132588Y0589782D01*
X0132579Y0589843D01*
X0132573Y0589904D01*
X0132571Y0589966D01*
X0132571Y0591933D01*
X0132573Y0591995D01*
X0132579Y0592056D01*
X0132588Y0592117D01*
X0132602Y0592177D01*
X0132619Y0592237D01*
X0132640Y0592295D01*
X0132665Y0592352D01*
X0132693Y0592407D01*
X0132724Y0592460D01*
X0132759Y0592511D01*
X0132797Y0592560D01*
X0132837Y0592606D01*
X0132881Y0592650D01*
X0132927Y0592690D01*
X0132976Y0592728D01*
X0133027Y0592763D01*
X0133080Y0592794D01*
X0133135Y0592822D01*
X0133192Y0592847D01*
X0133250Y0592868D01*
X0133310Y0592885D01*
X0133370Y0592899D01*
X0133431Y0592908D01*
X0133492Y0592914D01*
X0133554Y0592916D01*
X0134866Y0592916D01*
X0129358Y0590622D02*
X0127719Y0591278D01*
X0127667Y0591301D01*
X0127616Y0591328D01*
X0127567Y0591358D01*
X0127520Y0591391D01*
X0127475Y0591427D01*
X0127433Y0591467D01*
X0127394Y0591509D01*
X0127358Y0591553D01*
X0127325Y0591600D01*
X0127295Y0591650D01*
X0127268Y0591701D01*
X0127245Y0591753D01*
X0127226Y0591807D01*
X0127210Y0591863D01*
X0127198Y0591919D01*
X0127190Y0591976D01*
X0127186Y0592033D01*
X0127185Y0592091D01*
X0127189Y0592148D01*
X0127196Y0592205D01*
X0127208Y0592262D01*
X0127223Y0592317D01*
X0127241Y0592372D01*
X0127264Y0592425D01*
X0127290Y0592476D01*
X0127319Y0592525D01*
X0127352Y0592573D01*
X0127388Y0592618D01*
X0127426Y0592660D01*
X0127468Y0592700D01*
X0127512Y0592737D01*
X0127559Y0592771D01*
X0127607Y0592802D01*
X0127658Y0592829D01*
X0127710Y0592853D01*
X0127764Y0592873D01*
X0127819Y0592889D01*
X0127875Y0592902D01*
X0127932Y0592911D01*
X0127990Y0592916D01*
X0128047Y0592917D01*
X0127227Y0589311D02*
X0127361Y0589265D01*
X0127496Y0589222D01*
X0127632Y0589183D01*
X0127769Y0589147D01*
X0127906Y0589115D01*
X0128045Y0589086D01*
X0128184Y0589060D01*
X0128324Y0589039D01*
X0128465Y0589020D01*
X0128605Y0589006D01*
X0128747Y0588995D01*
X0128888Y0588987D01*
X0129030Y0588984D01*
X0129030Y0588983D02*
X0129087Y0588984D01*
X0129145Y0588989D01*
X0129202Y0588998D01*
X0129258Y0589011D01*
X0129313Y0589027D01*
X0129367Y0589047D01*
X0129419Y0589071D01*
X0129470Y0589098D01*
X0129518Y0589129D01*
X0129565Y0589163D01*
X0129609Y0589200D01*
X0129651Y0589240D01*
X0129689Y0589282D01*
X0129725Y0589327D01*
X0129758Y0589375D01*
X0129787Y0589424D01*
X0129813Y0589475D01*
X0129836Y0589528D01*
X0129854Y0589583D01*
X0129869Y0589638D01*
X0129881Y0589695D01*
X0129888Y0589752D01*
X0129892Y0589809D01*
X0129891Y0589867D01*
X0129887Y0589924D01*
X0129879Y0589981D01*
X0129867Y0590037D01*
X0129851Y0590093D01*
X0129832Y0590147D01*
X0129809Y0590199D01*
X0129782Y0590250D01*
X0129752Y0590300D01*
X0129719Y0590347D01*
X0129683Y0590391D01*
X0129644Y0590433D01*
X0129602Y0590473D01*
X0129557Y0590509D01*
X0129510Y0590542D01*
X0129461Y0590572D01*
X0129410Y0590599D01*
X0129358Y0590622D01*
X0129521Y0592588D02*
X0129414Y0592634D01*
X0129305Y0592677D01*
X0129195Y0592717D01*
X0129083Y0592753D01*
X0128971Y0592785D01*
X0128857Y0592814D01*
X0128743Y0592840D01*
X0128628Y0592861D01*
X0128513Y0592880D01*
X0128396Y0592894D01*
X0128280Y0592905D01*
X0128163Y0592912D01*
X0128046Y0592916D01*
X0124351Y0591278D02*
X0120418Y0591278D01*
X0117747Y0592916D02*
X0116435Y0588983D01*
X0115124Y0592916D01*
X0319124Y0592916D02*
X0320435Y0588983D01*
X0321747Y0592916D01*
X0324418Y0591278D02*
X0328351Y0591278D01*
X0331719Y0591278D02*
X0333358Y0590622D01*
X0333410Y0590599D01*
X0333461Y0590572D01*
X0333510Y0590542D01*
X0333557Y0590509D01*
X0333602Y0590473D01*
X0333644Y0590433D01*
X0333683Y0590391D01*
X0333719Y0590347D01*
X0333752Y0590300D01*
X0333782Y0590250D01*
X0333809Y0590199D01*
X0333832Y0590147D01*
X0333851Y0590093D01*
X0333867Y0590037D01*
X0333879Y0589981D01*
X0333887Y0589924D01*
X0333891Y0589867D01*
X0333892Y0589809D01*
X0333888Y0589752D01*
X0333881Y0589695D01*
X0333869Y0589638D01*
X0333854Y0589583D01*
X0333836Y0589528D01*
X0333813Y0589475D01*
X0333787Y0589424D01*
X0333758Y0589375D01*
X0333725Y0589327D01*
X0333689Y0589282D01*
X0333651Y0589240D01*
X0333609Y0589200D01*
X0333565Y0589163D01*
X0333518Y0589129D01*
X0333470Y0589098D01*
X0333419Y0589071D01*
X0333367Y0589047D01*
X0333313Y0589027D01*
X0333258Y0589011D01*
X0333202Y0588998D01*
X0333145Y0588989D01*
X0333087Y0588984D01*
X0333030Y0588983D01*
X0333521Y0592588D02*
X0333414Y0592634D01*
X0333305Y0592677D01*
X0333195Y0592717D01*
X0333083Y0592753D01*
X0332971Y0592785D01*
X0332857Y0592814D01*
X0332743Y0592840D01*
X0332628Y0592861D01*
X0332513Y0592880D01*
X0332396Y0592894D01*
X0332280Y0592905D01*
X0332163Y0592912D01*
X0332046Y0592916D01*
X0332047Y0592917D02*
X0331990Y0592916D01*
X0331932Y0592911D01*
X0331875Y0592902D01*
X0331819Y0592889D01*
X0331764Y0592873D01*
X0331710Y0592853D01*
X0331658Y0592829D01*
X0331607Y0592802D01*
X0331559Y0592771D01*
X0331512Y0592737D01*
X0331468Y0592700D01*
X0331426Y0592660D01*
X0331388Y0592618D01*
X0331352Y0592573D01*
X0331319Y0592525D01*
X0331290Y0592476D01*
X0331264Y0592425D01*
X0331241Y0592372D01*
X0331223Y0592317D01*
X0331208Y0592262D01*
X0331196Y0592205D01*
X0331189Y0592148D01*
X0331185Y0592091D01*
X0331186Y0592033D01*
X0331190Y0591976D01*
X0331198Y0591919D01*
X0331210Y0591863D01*
X0331226Y0591807D01*
X0331245Y0591753D01*
X0331268Y0591701D01*
X0331295Y0591650D01*
X0331325Y0591600D01*
X0331358Y0591553D01*
X0331394Y0591509D01*
X0331433Y0591467D01*
X0331475Y0591427D01*
X0331520Y0591391D01*
X0331567Y0591358D01*
X0331616Y0591328D01*
X0331667Y0591301D01*
X0331719Y0591278D01*
X0331227Y0589311D02*
X0331361Y0589265D01*
X0331496Y0589222D01*
X0331632Y0589183D01*
X0331769Y0589147D01*
X0331906Y0589115D01*
X0332045Y0589086D01*
X0332184Y0589060D01*
X0332324Y0589039D01*
X0332465Y0589020D01*
X0332605Y0589006D01*
X0332747Y0588995D01*
X0332888Y0588987D01*
X0333030Y0588984D01*
X0336571Y0589966D02*
X0336571Y0591933D01*
X0336573Y0591995D01*
X0336579Y0592056D01*
X0336588Y0592117D01*
X0336602Y0592177D01*
X0336619Y0592237D01*
X0336640Y0592295D01*
X0336665Y0592352D01*
X0336693Y0592407D01*
X0336724Y0592460D01*
X0336759Y0592511D01*
X0336797Y0592560D01*
X0336837Y0592606D01*
X0336881Y0592650D01*
X0336927Y0592690D01*
X0336976Y0592728D01*
X0337027Y0592763D01*
X0337080Y0592794D01*
X0337135Y0592822D01*
X0337192Y0592847D01*
X0337250Y0592868D01*
X0337310Y0592885D01*
X0337370Y0592899D01*
X0337431Y0592908D01*
X0337492Y0592914D01*
X0337554Y0592916D01*
X0338866Y0592916D01*
X0341279Y0591605D02*
X0341279Y0590294D01*
X0341281Y0590223D01*
X0341287Y0590152D01*
X0341296Y0590082D01*
X0341310Y0590012D01*
X0341327Y0589943D01*
X0341348Y0589875D01*
X0341372Y0589809D01*
X0341400Y0589744D01*
X0341432Y0589680D01*
X0341467Y0589618D01*
X0341505Y0589558D01*
X0341546Y0589501D01*
X0341591Y0589445D01*
X0341638Y0589392D01*
X0341688Y0589342D01*
X0341741Y0589295D01*
X0341797Y0589250D01*
X0341854Y0589209D01*
X0341914Y0589171D01*
X0341976Y0589136D01*
X0342040Y0589104D01*
X0342105Y0589076D01*
X0342171Y0589052D01*
X0342239Y0589031D01*
X0342308Y0589014D01*
X0342378Y0589000D01*
X0342448Y0588991D01*
X0342519Y0588985D01*
X0342590Y0588983D01*
X0342661Y0588985D01*
X0342732Y0588991D01*
X0342802Y0589000D01*
X0342872Y0589014D01*
X0342941Y0589031D01*
X0343009Y0589052D01*
X0343075Y0589076D01*
X0343140Y0589104D01*
X0343204Y0589136D01*
X0343266Y0589171D01*
X0343326Y0589209D01*
X0343383Y0589250D01*
X0343439Y0589295D01*
X0343492Y0589342D01*
X0343542Y0589392D01*
X0343589Y0589445D01*
X0343634Y0589501D01*
X0343675Y0589558D01*
X0343713Y0589618D01*
X0343748Y0589680D01*
X0343780Y0589744D01*
X0343808Y0589809D01*
X0343832Y0589875D01*
X0343853Y0589943D01*
X0343870Y0590012D01*
X0343884Y0590082D01*
X0343893Y0590152D01*
X0343899Y0590223D01*
X0343901Y0590294D01*
X0343901Y0591605D01*
X0343899Y0591676D01*
X0343893Y0591747D01*
X0343884Y0591817D01*
X0343870Y0591887D01*
X0343853Y0591956D01*
X0343832Y0592024D01*
X0343808Y0592090D01*
X0343780Y0592155D01*
X0343748Y0592219D01*
X0343713Y0592281D01*
X0343675Y0592341D01*
X0343634Y0592398D01*
X0343589Y0592454D01*
X0343542Y0592507D01*
X0343492Y0592557D01*
X0343439Y0592604D01*
X0343383Y0592649D01*
X0343326Y0592690D01*
X0343266Y0592728D01*
X0343204Y0592763D01*
X0343140Y0592795D01*
X0343075Y0592823D01*
X0343009Y0592847D01*
X0342941Y0592868D01*
X0342872Y0592885D01*
X0342802Y0592899D01*
X0342732Y0592908D01*
X0342661Y0592914D01*
X0342590Y0592916D01*
X0342519Y0592914D01*
X0342448Y0592908D01*
X0342378Y0592899D01*
X0342308Y0592885D01*
X0342239Y0592868D01*
X0342171Y0592847D01*
X0342105Y0592823D01*
X0342040Y0592795D01*
X0341976Y0592763D01*
X0341914Y0592728D01*
X0341854Y0592690D01*
X0341797Y0592649D01*
X0341741Y0592604D01*
X0341688Y0592557D01*
X0341638Y0592507D01*
X0341591Y0592454D01*
X0341546Y0592398D01*
X0341505Y0592341D01*
X0341467Y0592281D01*
X0341432Y0592219D01*
X0341400Y0592155D01*
X0341372Y0592090D01*
X0341348Y0592024D01*
X0341327Y0591956D01*
X0341310Y0591887D01*
X0341296Y0591817D01*
X0341287Y0591747D01*
X0341281Y0591676D01*
X0341279Y0591605D01*
X0338866Y0588983D02*
X0337554Y0588983D01*
X0337492Y0588985D01*
X0337431Y0588991D01*
X0337370Y0589000D01*
X0337310Y0589014D01*
X0337250Y0589031D01*
X0337192Y0589052D01*
X0337135Y0589077D01*
X0337080Y0589105D01*
X0337027Y0589136D01*
X0336976Y0589171D01*
X0336927Y0589209D01*
X0336881Y0589249D01*
X0336837Y0589293D01*
X0336797Y0589339D01*
X0336759Y0589388D01*
X0336724Y0589439D01*
X0336693Y0589492D01*
X0336665Y0589547D01*
X0336640Y0589604D01*
X0336619Y0589662D01*
X0336602Y0589722D01*
X0336588Y0589782D01*
X0336579Y0589843D01*
X0336573Y0589904D01*
X0336571Y0589966D01*
X0346868Y0588983D02*
X0346868Y0592916D01*
X0348834Y0592916D01*
X0348834Y0592261D01*
X0350920Y0591605D02*
X0350920Y0589966D01*
X0350922Y0589904D01*
X0350928Y0589843D01*
X0350937Y0589782D01*
X0350951Y0589722D01*
X0350968Y0589662D01*
X0350989Y0589604D01*
X0351014Y0589547D01*
X0351042Y0589492D01*
X0351073Y0589439D01*
X0351108Y0589388D01*
X0351146Y0589339D01*
X0351186Y0589293D01*
X0351230Y0589249D01*
X0351276Y0589209D01*
X0351325Y0589171D01*
X0351376Y0589136D01*
X0351429Y0589105D01*
X0351484Y0589077D01*
X0351541Y0589052D01*
X0351599Y0589031D01*
X0351659Y0589014D01*
X0351719Y0589000D01*
X0351780Y0588991D01*
X0351841Y0588985D01*
X0351903Y0588983D01*
X0353542Y0588983D01*
X0353542Y0590950D02*
X0350920Y0590950D01*
X0350920Y0591605D02*
X0350922Y0591676D01*
X0350928Y0591747D01*
X0350937Y0591817D01*
X0350951Y0591887D01*
X0350968Y0591956D01*
X0350989Y0592024D01*
X0351013Y0592090D01*
X0351041Y0592155D01*
X0351073Y0592219D01*
X0351108Y0592281D01*
X0351146Y0592341D01*
X0351187Y0592398D01*
X0351232Y0592454D01*
X0351279Y0592507D01*
X0351329Y0592557D01*
X0351382Y0592604D01*
X0351438Y0592649D01*
X0351495Y0592690D01*
X0351555Y0592728D01*
X0351617Y0592763D01*
X0351681Y0592795D01*
X0351746Y0592823D01*
X0351812Y0592847D01*
X0351880Y0592868D01*
X0351949Y0592885D01*
X0352019Y0592899D01*
X0352089Y0592908D01*
X0352160Y0592914D01*
X0352231Y0592916D01*
X0352302Y0592914D01*
X0352373Y0592908D01*
X0352443Y0592899D01*
X0352513Y0592885D01*
X0352582Y0592868D01*
X0352650Y0592847D01*
X0352716Y0592823D01*
X0352781Y0592795D01*
X0352845Y0592763D01*
X0352907Y0592728D01*
X0352967Y0592690D01*
X0353024Y0592649D01*
X0353080Y0592604D01*
X0353133Y0592557D01*
X0353183Y0592507D01*
X0353230Y0592454D01*
X0353275Y0592398D01*
X0353316Y0592341D01*
X0353354Y0592281D01*
X0353389Y0592219D01*
X0353421Y0592155D01*
X0353449Y0592090D01*
X0353473Y0592024D01*
X0353494Y0591956D01*
X0353511Y0591887D01*
X0353525Y0591817D01*
X0353534Y0591747D01*
X0353540Y0591676D01*
X0353542Y0591605D01*
X0353542Y0590950D01*
X0421124Y0592916D02*
X0422435Y0588983D01*
X0423747Y0592916D01*
X0426418Y0591278D02*
X0430351Y0591278D01*
X0433719Y0591278D02*
X0435358Y0590622D01*
X0435410Y0590599D01*
X0435461Y0590572D01*
X0435510Y0590542D01*
X0435557Y0590509D01*
X0435602Y0590473D01*
X0435644Y0590433D01*
X0435683Y0590391D01*
X0435719Y0590347D01*
X0435752Y0590300D01*
X0435782Y0590250D01*
X0435809Y0590199D01*
X0435832Y0590147D01*
X0435851Y0590093D01*
X0435867Y0590037D01*
X0435879Y0589981D01*
X0435887Y0589924D01*
X0435891Y0589867D01*
X0435892Y0589809D01*
X0435888Y0589752D01*
X0435881Y0589695D01*
X0435869Y0589638D01*
X0435854Y0589583D01*
X0435836Y0589528D01*
X0435813Y0589475D01*
X0435787Y0589424D01*
X0435758Y0589375D01*
X0435725Y0589327D01*
X0435689Y0589282D01*
X0435651Y0589240D01*
X0435609Y0589200D01*
X0435565Y0589163D01*
X0435518Y0589129D01*
X0435470Y0589098D01*
X0435419Y0589071D01*
X0435367Y0589047D01*
X0435313Y0589027D01*
X0435258Y0589011D01*
X0435202Y0588998D01*
X0435145Y0588989D01*
X0435087Y0588984D01*
X0435030Y0588983D01*
X0435521Y0592588D02*
X0435414Y0592634D01*
X0435305Y0592677D01*
X0435195Y0592717D01*
X0435083Y0592753D01*
X0434971Y0592785D01*
X0434857Y0592814D01*
X0434743Y0592840D01*
X0434628Y0592861D01*
X0434513Y0592880D01*
X0434396Y0592894D01*
X0434280Y0592905D01*
X0434163Y0592912D01*
X0434046Y0592916D01*
X0434047Y0592917D02*
X0433990Y0592916D01*
X0433932Y0592911D01*
X0433875Y0592902D01*
X0433819Y0592889D01*
X0433764Y0592873D01*
X0433710Y0592853D01*
X0433658Y0592829D01*
X0433607Y0592802D01*
X0433559Y0592771D01*
X0433512Y0592737D01*
X0433468Y0592700D01*
X0433426Y0592660D01*
X0433388Y0592618D01*
X0433352Y0592573D01*
X0433319Y0592525D01*
X0433290Y0592476D01*
X0433264Y0592425D01*
X0433241Y0592372D01*
X0433223Y0592317D01*
X0433208Y0592262D01*
X0433196Y0592205D01*
X0433189Y0592148D01*
X0433185Y0592091D01*
X0433186Y0592033D01*
X0433190Y0591976D01*
X0433198Y0591919D01*
X0433210Y0591863D01*
X0433226Y0591807D01*
X0433245Y0591753D01*
X0433268Y0591701D01*
X0433295Y0591650D01*
X0433325Y0591600D01*
X0433358Y0591553D01*
X0433394Y0591509D01*
X0433433Y0591467D01*
X0433475Y0591427D01*
X0433520Y0591391D01*
X0433567Y0591358D01*
X0433616Y0591328D01*
X0433667Y0591301D01*
X0433719Y0591278D01*
X0433227Y0589311D02*
X0433361Y0589265D01*
X0433496Y0589222D01*
X0433632Y0589183D01*
X0433769Y0589147D01*
X0433906Y0589115D01*
X0434045Y0589086D01*
X0434184Y0589060D01*
X0434324Y0589039D01*
X0434465Y0589020D01*
X0434605Y0589006D01*
X0434747Y0588995D01*
X0434888Y0588987D01*
X0435030Y0588984D01*
X0438571Y0589966D02*
X0438571Y0591933D01*
X0438573Y0591995D01*
X0438579Y0592056D01*
X0438588Y0592117D01*
X0438602Y0592177D01*
X0438619Y0592237D01*
X0438640Y0592295D01*
X0438665Y0592352D01*
X0438693Y0592407D01*
X0438724Y0592460D01*
X0438759Y0592511D01*
X0438797Y0592560D01*
X0438837Y0592606D01*
X0438881Y0592650D01*
X0438927Y0592690D01*
X0438976Y0592728D01*
X0439027Y0592763D01*
X0439080Y0592794D01*
X0439135Y0592822D01*
X0439192Y0592847D01*
X0439250Y0592868D01*
X0439310Y0592885D01*
X0439370Y0592899D01*
X0439431Y0592908D01*
X0439492Y0592914D01*
X0439554Y0592916D01*
X0440866Y0592916D01*
X0443279Y0591605D02*
X0443279Y0590294D01*
X0443281Y0590223D01*
X0443287Y0590152D01*
X0443296Y0590082D01*
X0443310Y0590012D01*
X0443327Y0589943D01*
X0443348Y0589875D01*
X0443372Y0589809D01*
X0443400Y0589744D01*
X0443432Y0589680D01*
X0443467Y0589618D01*
X0443505Y0589558D01*
X0443546Y0589501D01*
X0443591Y0589445D01*
X0443638Y0589392D01*
X0443688Y0589342D01*
X0443741Y0589295D01*
X0443797Y0589250D01*
X0443854Y0589209D01*
X0443914Y0589171D01*
X0443976Y0589136D01*
X0444040Y0589104D01*
X0444105Y0589076D01*
X0444171Y0589052D01*
X0444239Y0589031D01*
X0444308Y0589014D01*
X0444378Y0589000D01*
X0444448Y0588991D01*
X0444519Y0588985D01*
X0444590Y0588983D01*
X0444661Y0588985D01*
X0444732Y0588991D01*
X0444802Y0589000D01*
X0444872Y0589014D01*
X0444941Y0589031D01*
X0445009Y0589052D01*
X0445075Y0589076D01*
X0445140Y0589104D01*
X0445204Y0589136D01*
X0445266Y0589171D01*
X0445326Y0589209D01*
X0445383Y0589250D01*
X0445439Y0589295D01*
X0445492Y0589342D01*
X0445542Y0589392D01*
X0445589Y0589445D01*
X0445634Y0589501D01*
X0445675Y0589558D01*
X0445713Y0589618D01*
X0445748Y0589680D01*
X0445780Y0589744D01*
X0445808Y0589809D01*
X0445832Y0589875D01*
X0445853Y0589943D01*
X0445870Y0590012D01*
X0445884Y0590082D01*
X0445893Y0590152D01*
X0445899Y0590223D01*
X0445901Y0590294D01*
X0445901Y0591605D01*
X0445899Y0591676D01*
X0445893Y0591747D01*
X0445884Y0591817D01*
X0445870Y0591887D01*
X0445853Y0591956D01*
X0445832Y0592024D01*
X0445808Y0592090D01*
X0445780Y0592155D01*
X0445748Y0592219D01*
X0445713Y0592281D01*
X0445675Y0592341D01*
X0445634Y0592398D01*
X0445589Y0592454D01*
X0445542Y0592507D01*
X0445492Y0592557D01*
X0445439Y0592604D01*
X0445383Y0592649D01*
X0445326Y0592690D01*
X0445266Y0592728D01*
X0445204Y0592763D01*
X0445140Y0592795D01*
X0445075Y0592823D01*
X0445009Y0592847D01*
X0444941Y0592868D01*
X0444872Y0592885D01*
X0444802Y0592899D01*
X0444732Y0592908D01*
X0444661Y0592914D01*
X0444590Y0592916D01*
X0444519Y0592914D01*
X0444448Y0592908D01*
X0444378Y0592899D01*
X0444308Y0592885D01*
X0444239Y0592868D01*
X0444171Y0592847D01*
X0444105Y0592823D01*
X0444040Y0592795D01*
X0443976Y0592763D01*
X0443914Y0592728D01*
X0443854Y0592690D01*
X0443797Y0592649D01*
X0443741Y0592604D01*
X0443688Y0592557D01*
X0443638Y0592507D01*
X0443591Y0592454D01*
X0443546Y0592398D01*
X0443505Y0592341D01*
X0443467Y0592281D01*
X0443432Y0592219D01*
X0443400Y0592155D01*
X0443372Y0592090D01*
X0443348Y0592024D01*
X0443327Y0591956D01*
X0443310Y0591887D01*
X0443296Y0591817D01*
X0443287Y0591747D01*
X0443281Y0591676D01*
X0443279Y0591605D01*
X0440866Y0588983D02*
X0439554Y0588983D01*
X0439492Y0588985D01*
X0439431Y0588991D01*
X0439370Y0589000D01*
X0439310Y0589014D01*
X0439250Y0589031D01*
X0439192Y0589052D01*
X0439135Y0589077D01*
X0439080Y0589105D01*
X0439027Y0589136D01*
X0438976Y0589171D01*
X0438927Y0589209D01*
X0438881Y0589249D01*
X0438837Y0589293D01*
X0438797Y0589339D01*
X0438759Y0589388D01*
X0438724Y0589439D01*
X0438693Y0589492D01*
X0438665Y0589547D01*
X0438640Y0589604D01*
X0438619Y0589662D01*
X0438602Y0589722D01*
X0438588Y0589782D01*
X0438579Y0589843D01*
X0438573Y0589904D01*
X0438571Y0589966D01*
X0448868Y0588983D02*
X0448868Y0592916D01*
X0450834Y0592916D01*
X0450834Y0592261D01*
X0452920Y0591605D02*
X0452920Y0589966D01*
X0452922Y0589904D01*
X0452928Y0589843D01*
X0452937Y0589782D01*
X0452951Y0589722D01*
X0452968Y0589662D01*
X0452989Y0589604D01*
X0453014Y0589547D01*
X0453042Y0589492D01*
X0453073Y0589439D01*
X0453108Y0589388D01*
X0453146Y0589339D01*
X0453186Y0589293D01*
X0453230Y0589249D01*
X0453276Y0589209D01*
X0453325Y0589171D01*
X0453376Y0589136D01*
X0453429Y0589105D01*
X0453484Y0589077D01*
X0453541Y0589052D01*
X0453599Y0589031D01*
X0453659Y0589014D01*
X0453719Y0589000D01*
X0453780Y0588991D01*
X0453841Y0588985D01*
X0453903Y0588983D01*
X0455542Y0588983D01*
X0455542Y0590950D02*
X0452920Y0590950D01*
X0452920Y0591605D02*
X0452922Y0591676D01*
X0452928Y0591747D01*
X0452937Y0591817D01*
X0452951Y0591887D01*
X0452968Y0591956D01*
X0452989Y0592024D01*
X0453013Y0592090D01*
X0453041Y0592155D01*
X0453073Y0592219D01*
X0453108Y0592281D01*
X0453146Y0592341D01*
X0453187Y0592398D01*
X0453232Y0592454D01*
X0453279Y0592507D01*
X0453329Y0592557D01*
X0453382Y0592604D01*
X0453438Y0592649D01*
X0453495Y0592690D01*
X0453555Y0592728D01*
X0453617Y0592763D01*
X0453681Y0592795D01*
X0453746Y0592823D01*
X0453812Y0592847D01*
X0453880Y0592868D01*
X0453949Y0592885D01*
X0454019Y0592899D01*
X0454089Y0592908D01*
X0454160Y0592914D01*
X0454231Y0592916D01*
X0454302Y0592914D01*
X0454373Y0592908D01*
X0454443Y0592899D01*
X0454513Y0592885D01*
X0454582Y0592868D01*
X0454650Y0592847D01*
X0454716Y0592823D01*
X0454781Y0592795D01*
X0454845Y0592763D01*
X0454907Y0592728D01*
X0454967Y0592690D01*
X0455024Y0592649D01*
X0455080Y0592604D01*
X0455133Y0592557D01*
X0455183Y0592507D01*
X0455230Y0592454D01*
X0455275Y0592398D01*
X0455316Y0592341D01*
X0455354Y0592281D01*
X0455389Y0592219D01*
X0455421Y0592155D01*
X0455449Y0592090D01*
X0455473Y0592024D01*
X0455494Y0591956D01*
X0455511Y0591887D01*
X0455525Y0591817D01*
X0455534Y0591747D01*
X0455540Y0591676D01*
X0455542Y0591605D01*
X0455542Y0590950D01*
X0502124Y0532916D02*
X0503435Y0528983D01*
X0504747Y0532916D01*
X0507418Y0531278D02*
X0511351Y0531278D01*
X0514719Y0531278D02*
X0516358Y0530622D01*
X0516410Y0530599D01*
X0516461Y0530572D01*
X0516510Y0530542D01*
X0516557Y0530509D01*
X0516602Y0530473D01*
X0516644Y0530433D01*
X0516683Y0530391D01*
X0516719Y0530347D01*
X0516752Y0530300D01*
X0516782Y0530250D01*
X0516809Y0530199D01*
X0516832Y0530147D01*
X0516851Y0530093D01*
X0516867Y0530037D01*
X0516879Y0529981D01*
X0516887Y0529924D01*
X0516891Y0529867D01*
X0516892Y0529809D01*
X0516888Y0529752D01*
X0516881Y0529695D01*
X0516869Y0529638D01*
X0516854Y0529583D01*
X0516836Y0529528D01*
X0516813Y0529475D01*
X0516787Y0529424D01*
X0516758Y0529375D01*
X0516725Y0529327D01*
X0516689Y0529282D01*
X0516651Y0529240D01*
X0516609Y0529200D01*
X0516565Y0529163D01*
X0516518Y0529129D01*
X0516470Y0529098D01*
X0516419Y0529071D01*
X0516367Y0529047D01*
X0516313Y0529027D01*
X0516258Y0529011D01*
X0516202Y0528998D01*
X0516145Y0528989D01*
X0516087Y0528984D01*
X0516030Y0528983D01*
X0516521Y0532588D02*
X0516414Y0532634D01*
X0516305Y0532677D01*
X0516195Y0532717D01*
X0516083Y0532753D01*
X0515971Y0532785D01*
X0515857Y0532814D01*
X0515743Y0532840D01*
X0515628Y0532861D01*
X0515513Y0532880D01*
X0515396Y0532894D01*
X0515280Y0532905D01*
X0515163Y0532912D01*
X0515046Y0532916D01*
X0515047Y0532917D02*
X0514990Y0532916D01*
X0514932Y0532911D01*
X0514875Y0532902D01*
X0514819Y0532889D01*
X0514764Y0532873D01*
X0514710Y0532853D01*
X0514658Y0532829D01*
X0514607Y0532802D01*
X0514559Y0532771D01*
X0514512Y0532737D01*
X0514468Y0532700D01*
X0514426Y0532660D01*
X0514388Y0532618D01*
X0514352Y0532573D01*
X0514319Y0532525D01*
X0514290Y0532476D01*
X0514264Y0532425D01*
X0514241Y0532372D01*
X0514223Y0532317D01*
X0514208Y0532262D01*
X0514196Y0532205D01*
X0514189Y0532148D01*
X0514185Y0532091D01*
X0514186Y0532033D01*
X0514190Y0531976D01*
X0514198Y0531919D01*
X0514210Y0531863D01*
X0514226Y0531807D01*
X0514245Y0531753D01*
X0514268Y0531701D01*
X0514295Y0531650D01*
X0514325Y0531600D01*
X0514358Y0531553D01*
X0514394Y0531509D01*
X0514433Y0531467D01*
X0514475Y0531427D01*
X0514520Y0531391D01*
X0514567Y0531358D01*
X0514616Y0531328D01*
X0514667Y0531301D01*
X0514719Y0531278D01*
X0514227Y0529311D02*
X0514361Y0529265D01*
X0514496Y0529222D01*
X0514632Y0529183D01*
X0514769Y0529147D01*
X0514906Y0529115D01*
X0515045Y0529086D01*
X0515184Y0529060D01*
X0515324Y0529039D01*
X0515465Y0529020D01*
X0515605Y0529006D01*
X0515747Y0528995D01*
X0515888Y0528987D01*
X0516030Y0528984D01*
X0519571Y0529966D02*
X0519571Y0531933D01*
X0519573Y0531995D01*
X0519579Y0532056D01*
X0519588Y0532117D01*
X0519602Y0532177D01*
X0519619Y0532237D01*
X0519640Y0532295D01*
X0519665Y0532352D01*
X0519693Y0532407D01*
X0519724Y0532460D01*
X0519759Y0532511D01*
X0519797Y0532560D01*
X0519837Y0532606D01*
X0519881Y0532650D01*
X0519927Y0532690D01*
X0519976Y0532728D01*
X0520027Y0532763D01*
X0520080Y0532794D01*
X0520135Y0532822D01*
X0520192Y0532847D01*
X0520250Y0532868D01*
X0520310Y0532885D01*
X0520370Y0532899D01*
X0520431Y0532908D01*
X0520492Y0532914D01*
X0520554Y0532916D01*
X0521866Y0532916D01*
X0524279Y0531605D02*
X0524279Y0530294D01*
X0524281Y0530223D01*
X0524287Y0530152D01*
X0524296Y0530082D01*
X0524310Y0530012D01*
X0524327Y0529943D01*
X0524348Y0529875D01*
X0524372Y0529809D01*
X0524400Y0529744D01*
X0524432Y0529680D01*
X0524467Y0529618D01*
X0524505Y0529558D01*
X0524546Y0529501D01*
X0524591Y0529445D01*
X0524638Y0529392D01*
X0524688Y0529342D01*
X0524741Y0529295D01*
X0524797Y0529250D01*
X0524854Y0529209D01*
X0524914Y0529171D01*
X0524976Y0529136D01*
X0525040Y0529104D01*
X0525105Y0529076D01*
X0525171Y0529052D01*
X0525239Y0529031D01*
X0525308Y0529014D01*
X0525378Y0529000D01*
X0525448Y0528991D01*
X0525519Y0528985D01*
X0525590Y0528983D01*
X0525661Y0528985D01*
X0525732Y0528991D01*
X0525802Y0529000D01*
X0525872Y0529014D01*
X0525941Y0529031D01*
X0526009Y0529052D01*
X0526075Y0529076D01*
X0526140Y0529104D01*
X0526204Y0529136D01*
X0526266Y0529171D01*
X0526326Y0529209D01*
X0526383Y0529250D01*
X0526439Y0529295D01*
X0526492Y0529342D01*
X0526542Y0529392D01*
X0526589Y0529445D01*
X0526634Y0529501D01*
X0526675Y0529558D01*
X0526713Y0529618D01*
X0526748Y0529680D01*
X0526780Y0529744D01*
X0526808Y0529809D01*
X0526832Y0529875D01*
X0526853Y0529943D01*
X0526870Y0530012D01*
X0526884Y0530082D01*
X0526893Y0530152D01*
X0526899Y0530223D01*
X0526901Y0530294D01*
X0526901Y0531605D01*
X0526899Y0531676D01*
X0526893Y0531747D01*
X0526884Y0531817D01*
X0526870Y0531887D01*
X0526853Y0531956D01*
X0526832Y0532024D01*
X0526808Y0532090D01*
X0526780Y0532155D01*
X0526748Y0532219D01*
X0526713Y0532281D01*
X0526675Y0532341D01*
X0526634Y0532398D01*
X0526589Y0532454D01*
X0526542Y0532507D01*
X0526492Y0532557D01*
X0526439Y0532604D01*
X0526383Y0532649D01*
X0526326Y0532690D01*
X0526266Y0532728D01*
X0526204Y0532763D01*
X0526140Y0532795D01*
X0526075Y0532823D01*
X0526009Y0532847D01*
X0525941Y0532868D01*
X0525872Y0532885D01*
X0525802Y0532899D01*
X0525732Y0532908D01*
X0525661Y0532914D01*
X0525590Y0532916D01*
X0525519Y0532914D01*
X0525448Y0532908D01*
X0525378Y0532899D01*
X0525308Y0532885D01*
X0525239Y0532868D01*
X0525171Y0532847D01*
X0525105Y0532823D01*
X0525040Y0532795D01*
X0524976Y0532763D01*
X0524914Y0532728D01*
X0524854Y0532690D01*
X0524797Y0532649D01*
X0524741Y0532604D01*
X0524688Y0532557D01*
X0524638Y0532507D01*
X0524591Y0532454D01*
X0524546Y0532398D01*
X0524505Y0532341D01*
X0524467Y0532281D01*
X0524432Y0532219D01*
X0524400Y0532155D01*
X0524372Y0532090D01*
X0524348Y0532024D01*
X0524327Y0531956D01*
X0524310Y0531887D01*
X0524296Y0531817D01*
X0524287Y0531747D01*
X0524281Y0531676D01*
X0524279Y0531605D01*
X0521866Y0528983D02*
X0520554Y0528983D01*
X0520492Y0528985D01*
X0520431Y0528991D01*
X0520370Y0529000D01*
X0520310Y0529014D01*
X0520250Y0529031D01*
X0520192Y0529052D01*
X0520135Y0529077D01*
X0520080Y0529105D01*
X0520027Y0529136D01*
X0519976Y0529171D01*
X0519927Y0529209D01*
X0519881Y0529249D01*
X0519837Y0529293D01*
X0519797Y0529339D01*
X0519759Y0529388D01*
X0519724Y0529439D01*
X0519693Y0529492D01*
X0519665Y0529547D01*
X0519640Y0529604D01*
X0519619Y0529662D01*
X0519602Y0529722D01*
X0519588Y0529782D01*
X0519579Y0529843D01*
X0519573Y0529904D01*
X0519571Y0529966D01*
X0529868Y0528983D02*
X0529868Y0532916D01*
X0531834Y0532916D01*
X0531834Y0532261D01*
X0533920Y0531605D02*
X0533920Y0529966D01*
X0533922Y0529904D01*
X0533928Y0529843D01*
X0533937Y0529782D01*
X0533951Y0529722D01*
X0533968Y0529662D01*
X0533989Y0529604D01*
X0534014Y0529547D01*
X0534042Y0529492D01*
X0534073Y0529439D01*
X0534108Y0529388D01*
X0534146Y0529339D01*
X0534186Y0529293D01*
X0534230Y0529249D01*
X0534276Y0529209D01*
X0534325Y0529171D01*
X0534376Y0529136D01*
X0534429Y0529105D01*
X0534484Y0529077D01*
X0534541Y0529052D01*
X0534599Y0529031D01*
X0534659Y0529014D01*
X0534719Y0529000D01*
X0534780Y0528991D01*
X0534841Y0528985D01*
X0534903Y0528983D01*
X0536542Y0528983D01*
X0536542Y0530950D02*
X0533920Y0530950D01*
X0533920Y0531605D02*
X0533922Y0531676D01*
X0533928Y0531747D01*
X0533937Y0531817D01*
X0533951Y0531887D01*
X0533968Y0531956D01*
X0533989Y0532024D01*
X0534013Y0532090D01*
X0534041Y0532155D01*
X0534073Y0532219D01*
X0534108Y0532281D01*
X0534146Y0532341D01*
X0534187Y0532398D01*
X0534232Y0532454D01*
X0534279Y0532507D01*
X0534329Y0532557D01*
X0534382Y0532604D01*
X0534438Y0532649D01*
X0534495Y0532690D01*
X0534555Y0532728D01*
X0534617Y0532763D01*
X0534681Y0532795D01*
X0534746Y0532823D01*
X0534812Y0532847D01*
X0534880Y0532868D01*
X0534949Y0532885D01*
X0535019Y0532899D01*
X0535089Y0532908D01*
X0535160Y0532914D01*
X0535231Y0532916D01*
X0535302Y0532914D01*
X0535373Y0532908D01*
X0535443Y0532899D01*
X0535513Y0532885D01*
X0535582Y0532868D01*
X0535650Y0532847D01*
X0535716Y0532823D01*
X0535781Y0532795D01*
X0535845Y0532763D01*
X0535907Y0532728D01*
X0535967Y0532690D01*
X0536024Y0532649D01*
X0536080Y0532604D01*
X0536133Y0532557D01*
X0536183Y0532507D01*
X0536230Y0532454D01*
X0536275Y0532398D01*
X0536316Y0532341D01*
X0536354Y0532281D01*
X0536389Y0532219D01*
X0536421Y0532155D01*
X0536449Y0532090D01*
X0536473Y0532024D01*
X0536494Y0531956D01*
X0536511Y0531887D01*
X0536525Y0531817D01*
X0536534Y0531747D01*
X0536540Y0531676D01*
X0536542Y0531605D01*
X0536542Y0530950D01*
X0514227Y0327311D02*
X0514361Y0327265D01*
X0514496Y0327222D01*
X0514632Y0327183D01*
X0514769Y0327147D01*
X0514906Y0327115D01*
X0515045Y0327086D01*
X0515184Y0327060D01*
X0515324Y0327039D01*
X0515465Y0327020D01*
X0515605Y0327006D01*
X0515747Y0326995D01*
X0515888Y0326987D01*
X0516030Y0326984D01*
X0516030Y0326983D02*
X0516087Y0326984D01*
X0516145Y0326989D01*
X0516202Y0326998D01*
X0516258Y0327011D01*
X0516313Y0327027D01*
X0516367Y0327047D01*
X0516419Y0327071D01*
X0516470Y0327098D01*
X0516518Y0327129D01*
X0516565Y0327163D01*
X0516609Y0327200D01*
X0516651Y0327240D01*
X0516689Y0327282D01*
X0516725Y0327327D01*
X0516758Y0327375D01*
X0516787Y0327424D01*
X0516813Y0327475D01*
X0516836Y0327528D01*
X0516854Y0327583D01*
X0516869Y0327638D01*
X0516881Y0327695D01*
X0516888Y0327752D01*
X0516892Y0327809D01*
X0516891Y0327867D01*
X0516887Y0327924D01*
X0516879Y0327981D01*
X0516867Y0328037D01*
X0516851Y0328093D01*
X0516832Y0328147D01*
X0516809Y0328199D01*
X0516782Y0328250D01*
X0516752Y0328300D01*
X0516719Y0328347D01*
X0516683Y0328391D01*
X0516644Y0328433D01*
X0516602Y0328473D01*
X0516557Y0328509D01*
X0516510Y0328542D01*
X0516461Y0328572D01*
X0516410Y0328599D01*
X0516358Y0328622D01*
X0514719Y0329278D01*
X0514667Y0329301D01*
X0514616Y0329328D01*
X0514567Y0329358D01*
X0514520Y0329391D01*
X0514475Y0329427D01*
X0514433Y0329467D01*
X0514394Y0329509D01*
X0514358Y0329553D01*
X0514325Y0329600D01*
X0514295Y0329650D01*
X0514268Y0329701D01*
X0514245Y0329753D01*
X0514226Y0329807D01*
X0514210Y0329863D01*
X0514198Y0329919D01*
X0514190Y0329976D01*
X0514186Y0330033D01*
X0514185Y0330091D01*
X0514189Y0330148D01*
X0514196Y0330205D01*
X0514208Y0330262D01*
X0514223Y0330317D01*
X0514241Y0330372D01*
X0514264Y0330425D01*
X0514290Y0330476D01*
X0514319Y0330525D01*
X0514352Y0330573D01*
X0514388Y0330618D01*
X0514426Y0330660D01*
X0514468Y0330700D01*
X0514512Y0330737D01*
X0514559Y0330771D01*
X0514607Y0330802D01*
X0514658Y0330829D01*
X0514710Y0330853D01*
X0514764Y0330873D01*
X0514819Y0330889D01*
X0514875Y0330902D01*
X0514932Y0330911D01*
X0514990Y0330916D01*
X0515047Y0330917D01*
X0515046Y0330916D02*
X0515163Y0330912D01*
X0515280Y0330905D01*
X0515396Y0330894D01*
X0515513Y0330880D01*
X0515628Y0330861D01*
X0515743Y0330840D01*
X0515857Y0330814D01*
X0515971Y0330785D01*
X0516083Y0330753D01*
X0516195Y0330717D01*
X0516305Y0330677D01*
X0516414Y0330634D01*
X0516521Y0330588D01*
X0519571Y0329933D02*
X0519571Y0327966D01*
X0519573Y0327904D01*
X0519579Y0327843D01*
X0519588Y0327782D01*
X0519602Y0327722D01*
X0519619Y0327662D01*
X0519640Y0327604D01*
X0519665Y0327547D01*
X0519693Y0327492D01*
X0519724Y0327439D01*
X0519759Y0327388D01*
X0519797Y0327339D01*
X0519837Y0327293D01*
X0519881Y0327249D01*
X0519927Y0327209D01*
X0519976Y0327171D01*
X0520027Y0327136D01*
X0520080Y0327105D01*
X0520135Y0327077D01*
X0520192Y0327052D01*
X0520250Y0327031D01*
X0520310Y0327014D01*
X0520370Y0327000D01*
X0520431Y0326991D01*
X0520492Y0326985D01*
X0520554Y0326983D01*
X0521866Y0326983D01*
X0524279Y0328294D02*
X0524279Y0329605D01*
X0524281Y0329676D01*
X0524287Y0329747D01*
X0524296Y0329817D01*
X0524310Y0329887D01*
X0524327Y0329956D01*
X0524348Y0330024D01*
X0524372Y0330090D01*
X0524400Y0330155D01*
X0524432Y0330219D01*
X0524467Y0330281D01*
X0524505Y0330341D01*
X0524546Y0330398D01*
X0524591Y0330454D01*
X0524638Y0330507D01*
X0524688Y0330557D01*
X0524741Y0330604D01*
X0524797Y0330649D01*
X0524854Y0330690D01*
X0524914Y0330728D01*
X0524976Y0330763D01*
X0525040Y0330795D01*
X0525105Y0330823D01*
X0525171Y0330847D01*
X0525239Y0330868D01*
X0525308Y0330885D01*
X0525378Y0330899D01*
X0525448Y0330908D01*
X0525519Y0330914D01*
X0525590Y0330916D01*
X0525661Y0330914D01*
X0525732Y0330908D01*
X0525802Y0330899D01*
X0525872Y0330885D01*
X0525941Y0330868D01*
X0526009Y0330847D01*
X0526075Y0330823D01*
X0526140Y0330795D01*
X0526204Y0330763D01*
X0526266Y0330728D01*
X0526326Y0330690D01*
X0526383Y0330649D01*
X0526439Y0330604D01*
X0526492Y0330557D01*
X0526542Y0330507D01*
X0526589Y0330454D01*
X0526634Y0330398D01*
X0526675Y0330341D01*
X0526713Y0330281D01*
X0526748Y0330219D01*
X0526780Y0330155D01*
X0526808Y0330090D01*
X0526832Y0330024D01*
X0526853Y0329956D01*
X0526870Y0329887D01*
X0526884Y0329817D01*
X0526893Y0329747D01*
X0526899Y0329676D01*
X0526901Y0329605D01*
X0526901Y0328294D01*
X0526899Y0328223D01*
X0526893Y0328152D01*
X0526884Y0328082D01*
X0526870Y0328012D01*
X0526853Y0327943D01*
X0526832Y0327875D01*
X0526808Y0327809D01*
X0526780Y0327744D01*
X0526748Y0327680D01*
X0526713Y0327618D01*
X0526675Y0327558D01*
X0526634Y0327501D01*
X0526589Y0327445D01*
X0526542Y0327392D01*
X0526492Y0327342D01*
X0526439Y0327295D01*
X0526383Y0327250D01*
X0526326Y0327209D01*
X0526266Y0327171D01*
X0526204Y0327136D01*
X0526140Y0327104D01*
X0526075Y0327076D01*
X0526009Y0327052D01*
X0525941Y0327031D01*
X0525872Y0327014D01*
X0525802Y0327000D01*
X0525732Y0326991D01*
X0525661Y0326985D01*
X0525590Y0326983D01*
X0525519Y0326985D01*
X0525448Y0326991D01*
X0525378Y0327000D01*
X0525308Y0327014D01*
X0525239Y0327031D01*
X0525171Y0327052D01*
X0525105Y0327076D01*
X0525040Y0327104D01*
X0524976Y0327136D01*
X0524914Y0327171D01*
X0524854Y0327209D01*
X0524797Y0327250D01*
X0524741Y0327295D01*
X0524688Y0327342D01*
X0524638Y0327392D01*
X0524591Y0327445D01*
X0524546Y0327501D01*
X0524505Y0327558D01*
X0524467Y0327618D01*
X0524432Y0327680D01*
X0524400Y0327744D01*
X0524372Y0327809D01*
X0524348Y0327875D01*
X0524327Y0327943D01*
X0524310Y0328012D01*
X0524296Y0328082D01*
X0524287Y0328152D01*
X0524281Y0328223D01*
X0524279Y0328294D01*
X0521866Y0330916D02*
X0520554Y0330916D01*
X0520492Y0330914D01*
X0520431Y0330908D01*
X0520370Y0330899D01*
X0520310Y0330885D01*
X0520250Y0330868D01*
X0520192Y0330847D01*
X0520135Y0330822D01*
X0520080Y0330794D01*
X0520027Y0330763D01*
X0519976Y0330728D01*
X0519927Y0330690D01*
X0519881Y0330650D01*
X0519837Y0330606D01*
X0519797Y0330560D01*
X0519759Y0330511D01*
X0519724Y0330460D01*
X0519693Y0330407D01*
X0519665Y0330352D01*
X0519640Y0330295D01*
X0519619Y0330237D01*
X0519602Y0330177D01*
X0519588Y0330117D01*
X0519579Y0330056D01*
X0519573Y0329995D01*
X0519571Y0329933D01*
X0511351Y0329278D02*
X0507418Y0329278D01*
X0504747Y0330916D02*
X0503435Y0326983D01*
X0502124Y0330916D01*
X0529868Y0330916D02*
X0529868Y0326983D01*
X0531834Y0330261D02*
X0531834Y0330916D01*
X0529868Y0330916D01*
X0533920Y0329605D02*
X0533920Y0327966D01*
X0533922Y0327904D01*
X0533928Y0327843D01*
X0533937Y0327782D01*
X0533951Y0327722D01*
X0533968Y0327662D01*
X0533989Y0327604D01*
X0534014Y0327547D01*
X0534042Y0327492D01*
X0534073Y0327439D01*
X0534108Y0327388D01*
X0534146Y0327339D01*
X0534186Y0327293D01*
X0534230Y0327249D01*
X0534276Y0327209D01*
X0534325Y0327171D01*
X0534376Y0327136D01*
X0534429Y0327105D01*
X0534484Y0327077D01*
X0534541Y0327052D01*
X0534599Y0327031D01*
X0534659Y0327014D01*
X0534719Y0327000D01*
X0534780Y0326991D01*
X0534841Y0326985D01*
X0534903Y0326983D01*
X0536542Y0326983D01*
X0536542Y0328950D02*
X0533920Y0328950D01*
X0533920Y0329605D02*
X0533922Y0329676D01*
X0533928Y0329747D01*
X0533937Y0329817D01*
X0533951Y0329887D01*
X0533968Y0329956D01*
X0533989Y0330024D01*
X0534013Y0330090D01*
X0534041Y0330155D01*
X0534073Y0330219D01*
X0534108Y0330281D01*
X0534146Y0330341D01*
X0534187Y0330398D01*
X0534232Y0330454D01*
X0534279Y0330507D01*
X0534329Y0330557D01*
X0534382Y0330604D01*
X0534438Y0330649D01*
X0534495Y0330690D01*
X0534555Y0330728D01*
X0534617Y0330763D01*
X0534681Y0330795D01*
X0534746Y0330823D01*
X0534812Y0330847D01*
X0534880Y0330868D01*
X0534949Y0330885D01*
X0535019Y0330899D01*
X0535089Y0330908D01*
X0535160Y0330914D01*
X0535231Y0330916D01*
X0535302Y0330914D01*
X0535373Y0330908D01*
X0535443Y0330899D01*
X0535513Y0330885D01*
X0535582Y0330868D01*
X0535650Y0330847D01*
X0535716Y0330823D01*
X0535781Y0330795D01*
X0535845Y0330763D01*
X0535907Y0330728D01*
X0535967Y0330690D01*
X0536024Y0330649D01*
X0536080Y0330604D01*
X0536133Y0330557D01*
X0536183Y0330507D01*
X0536230Y0330454D01*
X0536275Y0330398D01*
X0536316Y0330341D01*
X0536354Y0330281D01*
X0536389Y0330219D01*
X0536421Y0330155D01*
X0536449Y0330090D01*
X0536473Y0330024D01*
X0536494Y0329956D01*
X0536511Y0329887D01*
X0536525Y0329817D01*
X0536534Y0329747D01*
X0536540Y0329676D01*
X0536542Y0329605D01*
X0536542Y0328950D01*
X0514227Y0125311D02*
X0514361Y0125265D01*
X0514496Y0125222D01*
X0514632Y0125183D01*
X0514769Y0125147D01*
X0514906Y0125115D01*
X0515045Y0125086D01*
X0515184Y0125060D01*
X0515324Y0125039D01*
X0515465Y0125020D01*
X0515605Y0125006D01*
X0515747Y0124995D01*
X0515888Y0124987D01*
X0516030Y0124984D01*
X0516030Y0124983D02*
X0516087Y0124984D01*
X0516145Y0124989D01*
X0516202Y0124998D01*
X0516258Y0125011D01*
X0516313Y0125027D01*
X0516367Y0125047D01*
X0516419Y0125071D01*
X0516470Y0125098D01*
X0516518Y0125129D01*
X0516565Y0125163D01*
X0516609Y0125200D01*
X0516651Y0125240D01*
X0516689Y0125282D01*
X0516725Y0125327D01*
X0516758Y0125375D01*
X0516787Y0125424D01*
X0516813Y0125475D01*
X0516836Y0125528D01*
X0516854Y0125583D01*
X0516869Y0125638D01*
X0516881Y0125695D01*
X0516888Y0125752D01*
X0516892Y0125809D01*
X0516891Y0125867D01*
X0516887Y0125924D01*
X0516879Y0125981D01*
X0516867Y0126037D01*
X0516851Y0126093D01*
X0516832Y0126147D01*
X0516809Y0126199D01*
X0516782Y0126250D01*
X0516752Y0126300D01*
X0516719Y0126347D01*
X0516683Y0126391D01*
X0516644Y0126433D01*
X0516602Y0126473D01*
X0516557Y0126509D01*
X0516510Y0126542D01*
X0516461Y0126572D01*
X0516410Y0126599D01*
X0516358Y0126622D01*
X0514719Y0127278D01*
X0514667Y0127301D01*
X0514616Y0127328D01*
X0514567Y0127358D01*
X0514520Y0127391D01*
X0514475Y0127427D01*
X0514433Y0127467D01*
X0514394Y0127509D01*
X0514358Y0127553D01*
X0514325Y0127600D01*
X0514295Y0127650D01*
X0514268Y0127701D01*
X0514245Y0127753D01*
X0514226Y0127807D01*
X0514210Y0127863D01*
X0514198Y0127919D01*
X0514190Y0127976D01*
X0514186Y0128033D01*
X0514185Y0128091D01*
X0514189Y0128148D01*
X0514196Y0128205D01*
X0514208Y0128262D01*
X0514223Y0128317D01*
X0514241Y0128372D01*
X0514264Y0128425D01*
X0514290Y0128476D01*
X0514319Y0128525D01*
X0514352Y0128573D01*
X0514388Y0128618D01*
X0514426Y0128660D01*
X0514468Y0128700D01*
X0514512Y0128737D01*
X0514559Y0128771D01*
X0514607Y0128802D01*
X0514658Y0128829D01*
X0514710Y0128853D01*
X0514764Y0128873D01*
X0514819Y0128889D01*
X0514875Y0128902D01*
X0514932Y0128911D01*
X0514990Y0128916D01*
X0515047Y0128917D01*
X0515046Y0128916D02*
X0515163Y0128912D01*
X0515280Y0128905D01*
X0515396Y0128894D01*
X0515513Y0128880D01*
X0515628Y0128861D01*
X0515743Y0128840D01*
X0515857Y0128814D01*
X0515971Y0128785D01*
X0516083Y0128753D01*
X0516195Y0128717D01*
X0516305Y0128677D01*
X0516414Y0128634D01*
X0516521Y0128588D01*
X0519571Y0127933D02*
X0519571Y0125966D01*
X0519573Y0125904D01*
X0519579Y0125843D01*
X0519588Y0125782D01*
X0519602Y0125722D01*
X0519619Y0125662D01*
X0519640Y0125604D01*
X0519665Y0125547D01*
X0519693Y0125492D01*
X0519724Y0125439D01*
X0519759Y0125388D01*
X0519797Y0125339D01*
X0519837Y0125293D01*
X0519881Y0125249D01*
X0519927Y0125209D01*
X0519976Y0125171D01*
X0520027Y0125136D01*
X0520080Y0125105D01*
X0520135Y0125077D01*
X0520192Y0125052D01*
X0520250Y0125031D01*
X0520310Y0125014D01*
X0520370Y0125000D01*
X0520431Y0124991D01*
X0520492Y0124985D01*
X0520554Y0124983D01*
X0521866Y0124983D01*
X0524279Y0126294D02*
X0524279Y0127605D01*
X0524281Y0127676D01*
X0524287Y0127747D01*
X0524296Y0127817D01*
X0524310Y0127887D01*
X0524327Y0127956D01*
X0524348Y0128024D01*
X0524372Y0128090D01*
X0524400Y0128155D01*
X0524432Y0128219D01*
X0524467Y0128281D01*
X0524505Y0128341D01*
X0524546Y0128398D01*
X0524591Y0128454D01*
X0524638Y0128507D01*
X0524688Y0128557D01*
X0524741Y0128604D01*
X0524797Y0128649D01*
X0524854Y0128690D01*
X0524914Y0128728D01*
X0524976Y0128763D01*
X0525040Y0128795D01*
X0525105Y0128823D01*
X0525171Y0128847D01*
X0525239Y0128868D01*
X0525308Y0128885D01*
X0525378Y0128899D01*
X0525448Y0128908D01*
X0525519Y0128914D01*
X0525590Y0128916D01*
X0525661Y0128914D01*
X0525732Y0128908D01*
X0525802Y0128899D01*
X0525872Y0128885D01*
X0525941Y0128868D01*
X0526009Y0128847D01*
X0526075Y0128823D01*
X0526140Y0128795D01*
X0526204Y0128763D01*
X0526266Y0128728D01*
X0526326Y0128690D01*
X0526383Y0128649D01*
X0526439Y0128604D01*
X0526492Y0128557D01*
X0526542Y0128507D01*
X0526589Y0128454D01*
X0526634Y0128398D01*
X0526675Y0128341D01*
X0526713Y0128281D01*
X0526748Y0128219D01*
X0526780Y0128155D01*
X0526808Y0128090D01*
X0526832Y0128024D01*
X0526853Y0127956D01*
X0526870Y0127887D01*
X0526884Y0127817D01*
X0526893Y0127747D01*
X0526899Y0127676D01*
X0526901Y0127605D01*
X0526901Y0126294D01*
X0526899Y0126223D01*
X0526893Y0126152D01*
X0526884Y0126082D01*
X0526870Y0126012D01*
X0526853Y0125943D01*
X0526832Y0125875D01*
X0526808Y0125809D01*
X0526780Y0125744D01*
X0526748Y0125680D01*
X0526713Y0125618D01*
X0526675Y0125558D01*
X0526634Y0125501D01*
X0526589Y0125445D01*
X0526542Y0125392D01*
X0526492Y0125342D01*
X0526439Y0125295D01*
X0526383Y0125250D01*
X0526326Y0125209D01*
X0526266Y0125171D01*
X0526204Y0125136D01*
X0526140Y0125104D01*
X0526075Y0125076D01*
X0526009Y0125052D01*
X0525941Y0125031D01*
X0525872Y0125014D01*
X0525802Y0125000D01*
X0525732Y0124991D01*
X0525661Y0124985D01*
X0525590Y0124983D01*
X0525519Y0124985D01*
X0525448Y0124991D01*
X0525378Y0125000D01*
X0525308Y0125014D01*
X0525239Y0125031D01*
X0525171Y0125052D01*
X0525105Y0125076D01*
X0525040Y0125104D01*
X0524976Y0125136D01*
X0524914Y0125171D01*
X0524854Y0125209D01*
X0524797Y0125250D01*
X0524741Y0125295D01*
X0524688Y0125342D01*
X0524638Y0125392D01*
X0524591Y0125445D01*
X0524546Y0125501D01*
X0524505Y0125558D01*
X0524467Y0125618D01*
X0524432Y0125680D01*
X0524400Y0125744D01*
X0524372Y0125809D01*
X0524348Y0125875D01*
X0524327Y0125943D01*
X0524310Y0126012D01*
X0524296Y0126082D01*
X0524287Y0126152D01*
X0524281Y0126223D01*
X0524279Y0126294D01*
X0521866Y0128916D02*
X0520554Y0128916D01*
X0520492Y0128914D01*
X0520431Y0128908D01*
X0520370Y0128899D01*
X0520310Y0128885D01*
X0520250Y0128868D01*
X0520192Y0128847D01*
X0520135Y0128822D01*
X0520080Y0128794D01*
X0520027Y0128763D01*
X0519976Y0128728D01*
X0519927Y0128690D01*
X0519881Y0128650D01*
X0519837Y0128606D01*
X0519797Y0128560D01*
X0519759Y0128511D01*
X0519724Y0128460D01*
X0519693Y0128407D01*
X0519665Y0128352D01*
X0519640Y0128295D01*
X0519619Y0128237D01*
X0519602Y0128177D01*
X0519588Y0128117D01*
X0519579Y0128056D01*
X0519573Y0127995D01*
X0519571Y0127933D01*
X0511351Y0127278D02*
X0507418Y0127278D01*
X0504747Y0128916D02*
X0503435Y0124983D01*
X0502124Y0128916D01*
X0529868Y0128916D02*
X0529868Y0124983D01*
X0531834Y0128261D02*
X0531834Y0128916D01*
X0529868Y0128916D01*
X0533920Y0127605D02*
X0533920Y0125966D01*
X0533922Y0125904D01*
X0533928Y0125843D01*
X0533937Y0125782D01*
X0533951Y0125722D01*
X0533968Y0125662D01*
X0533989Y0125604D01*
X0534014Y0125547D01*
X0534042Y0125492D01*
X0534073Y0125439D01*
X0534108Y0125388D01*
X0534146Y0125339D01*
X0534186Y0125293D01*
X0534230Y0125249D01*
X0534276Y0125209D01*
X0534325Y0125171D01*
X0534376Y0125136D01*
X0534429Y0125105D01*
X0534484Y0125077D01*
X0534541Y0125052D01*
X0534599Y0125031D01*
X0534659Y0125014D01*
X0534719Y0125000D01*
X0534780Y0124991D01*
X0534841Y0124985D01*
X0534903Y0124983D01*
X0536542Y0124983D01*
X0536542Y0126950D02*
X0533920Y0126950D01*
X0533920Y0127605D02*
X0533922Y0127676D01*
X0533928Y0127747D01*
X0533937Y0127817D01*
X0533951Y0127887D01*
X0533968Y0127956D01*
X0533989Y0128024D01*
X0534013Y0128090D01*
X0534041Y0128155D01*
X0534073Y0128219D01*
X0534108Y0128281D01*
X0534146Y0128341D01*
X0534187Y0128398D01*
X0534232Y0128454D01*
X0534279Y0128507D01*
X0534329Y0128557D01*
X0534382Y0128604D01*
X0534438Y0128649D01*
X0534495Y0128690D01*
X0534555Y0128728D01*
X0534617Y0128763D01*
X0534681Y0128795D01*
X0534746Y0128823D01*
X0534812Y0128847D01*
X0534880Y0128868D01*
X0534949Y0128885D01*
X0535019Y0128899D01*
X0535089Y0128908D01*
X0535160Y0128914D01*
X0535231Y0128916D01*
X0535302Y0128914D01*
X0535373Y0128908D01*
X0535443Y0128899D01*
X0535513Y0128885D01*
X0535582Y0128868D01*
X0535650Y0128847D01*
X0535716Y0128823D01*
X0535781Y0128795D01*
X0535845Y0128763D01*
X0535907Y0128728D01*
X0535967Y0128690D01*
X0536024Y0128649D01*
X0536080Y0128604D01*
X0536133Y0128557D01*
X0536183Y0128507D01*
X0536230Y0128454D01*
X0536275Y0128398D01*
X0536316Y0128341D01*
X0536354Y0128281D01*
X0536389Y0128219D01*
X0536421Y0128155D01*
X0536449Y0128090D01*
X0536473Y0128024D01*
X0536494Y0127956D01*
X0536511Y0127887D01*
X0536525Y0127817D01*
X0536534Y0127747D01*
X0536540Y0127676D01*
X0536542Y0127605D01*
X0536542Y0126950D01*
D13*
X0106333Y0126933D02*
X0106333Y0101933D01*
X0464333Y0101933D01*
X0464333Y0126933D01*
X0106333Y0126933D01*
X0106333Y0128933D02*
X0106333Y0530933D01*
X0131333Y0530933D01*
X0131333Y0128933D01*
X0106333Y0128933D01*
X0439333Y0128933D02*
X0439333Y0530933D01*
X0464333Y0530933D01*
X0464333Y0128933D01*
X0439333Y0128933D01*
X0464333Y0532933D02*
X0106333Y0532933D01*
X0106333Y0557933D01*
X0464333Y0557933D01*
X0464333Y0532933D01*
D14*
X0420833Y0520933D02*
X0420835Y0521094D01*
X0420841Y0521254D01*
X0420851Y0521415D01*
X0420865Y0521575D01*
X0420883Y0521735D01*
X0420904Y0521894D01*
X0420930Y0522053D01*
X0420960Y0522211D01*
X0420993Y0522368D01*
X0421031Y0522525D01*
X0421072Y0522680D01*
X0421117Y0522834D01*
X0421166Y0522987D01*
X0421219Y0523139D01*
X0421275Y0523290D01*
X0421336Y0523439D01*
X0421399Y0523587D01*
X0421467Y0523733D01*
X0421538Y0523877D01*
X0421612Y0524019D01*
X0421690Y0524160D01*
X0421772Y0524298D01*
X0421857Y0524435D01*
X0421945Y0524569D01*
X0422037Y0524701D01*
X0422132Y0524831D01*
X0422230Y0524959D01*
X0422331Y0525084D01*
X0422435Y0525206D01*
X0422542Y0525326D01*
X0422652Y0525443D01*
X0422765Y0525558D01*
X0422881Y0525669D01*
X0423000Y0525778D01*
X0423121Y0525883D01*
X0423245Y0525986D01*
X0423371Y0526086D01*
X0423499Y0526182D01*
X0423630Y0526275D01*
X0423764Y0526365D01*
X0423899Y0526452D01*
X0424037Y0526535D01*
X0424176Y0526615D01*
X0424318Y0526691D01*
X0424461Y0526764D01*
X0424606Y0526833D01*
X0424753Y0526899D01*
X0424901Y0526961D01*
X0425051Y0527019D01*
X0425202Y0527074D01*
X0425355Y0527125D01*
X0425509Y0527172D01*
X0425664Y0527215D01*
X0425820Y0527254D01*
X0425976Y0527290D01*
X0426134Y0527321D01*
X0426292Y0527349D01*
X0426451Y0527373D01*
X0426611Y0527393D01*
X0426771Y0527409D01*
X0426931Y0527421D01*
X0427092Y0527429D01*
X0427253Y0527433D01*
X0427413Y0527433D01*
X0427574Y0527429D01*
X0427735Y0527421D01*
X0427895Y0527409D01*
X0428055Y0527393D01*
X0428215Y0527373D01*
X0428374Y0527349D01*
X0428532Y0527321D01*
X0428690Y0527290D01*
X0428846Y0527254D01*
X0429002Y0527215D01*
X0429157Y0527172D01*
X0429311Y0527125D01*
X0429464Y0527074D01*
X0429615Y0527019D01*
X0429765Y0526961D01*
X0429913Y0526899D01*
X0430060Y0526833D01*
X0430205Y0526764D01*
X0430348Y0526691D01*
X0430490Y0526615D01*
X0430629Y0526535D01*
X0430767Y0526452D01*
X0430902Y0526365D01*
X0431036Y0526275D01*
X0431167Y0526182D01*
X0431295Y0526086D01*
X0431421Y0525986D01*
X0431545Y0525883D01*
X0431666Y0525778D01*
X0431785Y0525669D01*
X0431901Y0525558D01*
X0432014Y0525443D01*
X0432124Y0525326D01*
X0432231Y0525206D01*
X0432335Y0525084D01*
X0432436Y0524959D01*
X0432534Y0524831D01*
X0432629Y0524701D01*
X0432721Y0524569D01*
X0432809Y0524435D01*
X0432894Y0524298D01*
X0432976Y0524160D01*
X0433054Y0524019D01*
X0433128Y0523877D01*
X0433199Y0523733D01*
X0433267Y0523587D01*
X0433330Y0523439D01*
X0433391Y0523290D01*
X0433447Y0523139D01*
X0433500Y0522987D01*
X0433549Y0522834D01*
X0433594Y0522680D01*
X0433635Y0522525D01*
X0433673Y0522368D01*
X0433706Y0522211D01*
X0433736Y0522053D01*
X0433762Y0521894D01*
X0433783Y0521735D01*
X0433801Y0521575D01*
X0433815Y0521415D01*
X0433825Y0521254D01*
X0433831Y0521094D01*
X0433833Y0520933D01*
X0433831Y0520772D01*
X0433825Y0520612D01*
X0433815Y0520451D01*
X0433801Y0520291D01*
X0433783Y0520131D01*
X0433762Y0519972D01*
X0433736Y0519813D01*
X0433706Y0519655D01*
X0433673Y0519498D01*
X0433635Y0519341D01*
X0433594Y0519186D01*
X0433549Y0519032D01*
X0433500Y0518879D01*
X0433447Y0518727D01*
X0433391Y0518576D01*
X0433330Y0518427D01*
X0433267Y0518279D01*
X0433199Y0518133D01*
X0433128Y0517989D01*
X0433054Y0517847D01*
X0432976Y0517706D01*
X0432894Y0517568D01*
X0432809Y0517431D01*
X0432721Y0517297D01*
X0432629Y0517165D01*
X0432534Y0517035D01*
X0432436Y0516907D01*
X0432335Y0516782D01*
X0432231Y0516660D01*
X0432124Y0516540D01*
X0432014Y0516423D01*
X0431901Y0516308D01*
X0431785Y0516197D01*
X0431666Y0516088D01*
X0431545Y0515983D01*
X0431421Y0515880D01*
X0431295Y0515780D01*
X0431167Y0515684D01*
X0431036Y0515591D01*
X0430902Y0515501D01*
X0430767Y0515414D01*
X0430629Y0515331D01*
X0430490Y0515251D01*
X0430348Y0515175D01*
X0430205Y0515102D01*
X0430060Y0515033D01*
X0429913Y0514967D01*
X0429765Y0514905D01*
X0429615Y0514847D01*
X0429464Y0514792D01*
X0429311Y0514741D01*
X0429157Y0514694D01*
X0429002Y0514651D01*
X0428846Y0514612D01*
X0428690Y0514576D01*
X0428532Y0514545D01*
X0428374Y0514517D01*
X0428215Y0514493D01*
X0428055Y0514473D01*
X0427895Y0514457D01*
X0427735Y0514445D01*
X0427574Y0514437D01*
X0427413Y0514433D01*
X0427253Y0514433D01*
X0427092Y0514437D01*
X0426931Y0514445D01*
X0426771Y0514457D01*
X0426611Y0514473D01*
X0426451Y0514493D01*
X0426292Y0514517D01*
X0426134Y0514545D01*
X0425976Y0514576D01*
X0425820Y0514612D01*
X0425664Y0514651D01*
X0425509Y0514694D01*
X0425355Y0514741D01*
X0425202Y0514792D01*
X0425051Y0514847D01*
X0424901Y0514905D01*
X0424753Y0514967D01*
X0424606Y0515033D01*
X0424461Y0515102D01*
X0424318Y0515175D01*
X0424176Y0515251D01*
X0424037Y0515331D01*
X0423899Y0515414D01*
X0423764Y0515501D01*
X0423630Y0515591D01*
X0423499Y0515684D01*
X0423371Y0515780D01*
X0423245Y0515880D01*
X0423121Y0515983D01*
X0423000Y0516088D01*
X0422881Y0516197D01*
X0422765Y0516308D01*
X0422652Y0516423D01*
X0422542Y0516540D01*
X0422435Y0516660D01*
X0422331Y0516782D01*
X0422230Y0516907D01*
X0422132Y0517035D01*
X0422037Y0517165D01*
X0421945Y0517297D01*
X0421857Y0517431D01*
X0421772Y0517568D01*
X0421690Y0517706D01*
X0421612Y0517847D01*
X0421538Y0517989D01*
X0421467Y0518133D01*
X0421399Y0518279D01*
X0421336Y0518427D01*
X0421275Y0518576D01*
X0421219Y0518727D01*
X0421166Y0518879D01*
X0421117Y0519032D01*
X0421072Y0519186D01*
X0421031Y0519341D01*
X0420993Y0519498D01*
X0420960Y0519655D01*
X0420930Y0519813D01*
X0420904Y0519972D01*
X0420883Y0520131D01*
X0420865Y0520291D01*
X0420851Y0520451D01*
X0420841Y0520612D01*
X0420835Y0520772D01*
X0420833Y0520933D01*
X0420833Y0440933D02*
X0420835Y0441094D01*
X0420841Y0441254D01*
X0420851Y0441415D01*
X0420865Y0441575D01*
X0420883Y0441735D01*
X0420904Y0441894D01*
X0420930Y0442053D01*
X0420960Y0442211D01*
X0420993Y0442368D01*
X0421031Y0442525D01*
X0421072Y0442680D01*
X0421117Y0442834D01*
X0421166Y0442987D01*
X0421219Y0443139D01*
X0421275Y0443290D01*
X0421336Y0443439D01*
X0421399Y0443587D01*
X0421467Y0443733D01*
X0421538Y0443877D01*
X0421612Y0444019D01*
X0421690Y0444160D01*
X0421772Y0444298D01*
X0421857Y0444435D01*
X0421945Y0444569D01*
X0422037Y0444701D01*
X0422132Y0444831D01*
X0422230Y0444959D01*
X0422331Y0445084D01*
X0422435Y0445206D01*
X0422542Y0445326D01*
X0422652Y0445443D01*
X0422765Y0445558D01*
X0422881Y0445669D01*
X0423000Y0445778D01*
X0423121Y0445883D01*
X0423245Y0445986D01*
X0423371Y0446086D01*
X0423499Y0446182D01*
X0423630Y0446275D01*
X0423764Y0446365D01*
X0423899Y0446452D01*
X0424037Y0446535D01*
X0424176Y0446615D01*
X0424318Y0446691D01*
X0424461Y0446764D01*
X0424606Y0446833D01*
X0424753Y0446899D01*
X0424901Y0446961D01*
X0425051Y0447019D01*
X0425202Y0447074D01*
X0425355Y0447125D01*
X0425509Y0447172D01*
X0425664Y0447215D01*
X0425820Y0447254D01*
X0425976Y0447290D01*
X0426134Y0447321D01*
X0426292Y0447349D01*
X0426451Y0447373D01*
X0426611Y0447393D01*
X0426771Y0447409D01*
X0426931Y0447421D01*
X0427092Y0447429D01*
X0427253Y0447433D01*
X0427413Y0447433D01*
X0427574Y0447429D01*
X0427735Y0447421D01*
X0427895Y0447409D01*
X0428055Y0447393D01*
X0428215Y0447373D01*
X0428374Y0447349D01*
X0428532Y0447321D01*
X0428690Y0447290D01*
X0428846Y0447254D01*
X0429002Y0447215D01*
X0429157Y0447172D01*
X0429311Y0447125D01*
X0429464Y0447074D01*
X0429615Y0447019D01*
X0429765Y0446961D01*
X0429913Y0446899D01*
X0430060Y0446833D01*
X0430205Y0446764D01*
X0430348Y0446691D01*
X0430490Y0446615D01*
X0430629Y0446535D01*
X0430767Y0446452D01*
X0430902Y0446365D01*
X0431036Y0446275D01*
X0431167Y0446182D01*
X0431295Y0446086D01*
X0431421Y0445986D01*
X0431545Y0445883D01*
X0431666Y0445778D01*
X0431785Y0445669D01*
X0431901Y0445558D01*
X0432014Y0445443D01*
X0432124Y0445326D01*
X0432231Y0445206D01*
X0432335Y0445084D01*
X0432436Y0444959D01*
X0432534Y0444831D01*
X0432629Y0444701D01*
X0432721Y0444569D01*
X0432809Y0444435D01*
X0432894Y0444298D01*
X0432976Y0444160D01*
X0433054Y0444019D01*
X0433128Y0443877D01*
X0433199Y0443733D01*
X0433267Y0443587D01*
X0433330Y0443439D01*
X0433391Y0443290D01*
X0433447Y0443139D01*
X0433500Y0442987D01*
X0433549Y0442834D01*
X0433594Y0442680D01*
X0433635Y0442525D01*
X0433673Y0442368D01*
X0433706Y0442211D01*
X0433736Y0442053D01*
X0433762Y0441894D01*
X0433783Y0441735D01*
X0433801Y0441575D01*
X0433815Y0441415D01*
X0433825Y0441254D01*
X0433831Y0441094D01*
X0433833Y0440933D01*
X0433831Y0440772D01*
X0433825Y0440612D01*
X0433815Y0440451D01*
X0433801Y0440291D01*
X0433783Y0440131D01*
X0433762Y0439972D01*
X0433736Y0439813D01*
X0433706Y0439655D01*
X0433673Y0439498D01*
X0433635Y0439341D01*
X0433594Y0439186D01*
X0433549Y0439032D01*
X0433500Y0438879D01*
X0433447Y0438727D01*
X0433391Y0438576D01*
X0433330Y0438427D01*
X0433267Y0438279D01*
X0433199Y0438133D01*
X0433128Y0437989D01*
X0433054Y0437847D01*
X0432976Y0437706D01*
X0432894Y0437568D01*
X0432809Y0437431D01*
X0432721Y0437297D01*
X0432629Y0437165D01*
X0432534Y0437035D01*
X0432436Y0436907D01*
X0432335Y0436782D01*
X0432231Y0436660D01*
X0432124Y0436540D01*
X0432014Y0436423D01*
X0431901Y0436308D01*
X0431785Y0436197D01*
X0431666Y0436088D01*
X0431545Y0435983D01*
X0431421Y0435880D01*
X0431295Y0435780D01*
X0431167Y0435684D01*
X0431036Y0435591D01*
X0430902Y0435501D01*
X0430767Y0435414D01*
X0430629Y0435331D01*
X0430490Y0435251D01*
X0430348Y0435175D01*
X0430205Y0435102D01*
X0430060Y0435033D01*
X0429913Y0434967D01*
X0429765Y0434905D01*
X0429615Y0434847D01*
X0429464Y0434792D01*
X0429311Y0434741D01*
X0429157Y0434694D01*
X0429002Y0434651D01*
X0428846Y0434612D01*
X0428690Y0434576D01*
X0428532Y0434545D01*
X0428374Y0434517D01*
X0428215Y0434493D01*
X0428055Y0434473D01*
X0427895Y0434457D01*
X0427735Y0434445D01*
X0427574Y0434437D01*
X0427413Y0434433D01*
X0427253Y0434433D01*
X0427092Y0434437D01*
X0426931Y0434445D01*
X0426771Y0434457D01*
X0426611Y0434473D01*
X0426451Y0434493D01*
X0426292Y0434517D01*
X0426134Y0434545D01*
X0425976Y0434576D01*
X0425820Y0434612D01*
X0425664Y0434651D01*
X0425509Y0434694D01*
X0425355Y0434741D01*
X0425202Y0434792D01*
X0425051Y0434847D01*
X0424901Y0434905D01*
X0424753Y0434967D01*
X0424606Y0435033D01*
X0424461Y0435102D01*
X0424318Y0435175D01*
X0424176Y0435251D01*
X0424037Y0435331D01*
X0423899Y0435414D01*
X0423764Y0435501D01*
X0423630Y0435591D01*
X0423499Y0435684D01*
X0423371Y0435780D01*
X0423245Y0435880D01*
X0423121Y0435983D01*
X0423000Y0436088D01*
X0422881Y0436197D01*
X0422765Y0436308D01*
X0422652Y0436423D01*
X0422542Y0436540D01*
X0422435Y0436660D01*
X0422331Y0436782D01*
X0422230Y0436907D01*
X0422132Y0437035D01*
X0422037Y0437165D01*
X0421945Y0437297D01*
X0421857Y0437431D01*
X0421772Y0437568D01*
X0421690Y0437706D01*
X0421612Y0437847D01*
X0421538Y0437989D01*
X0421467Y0438133D01*
X0421399Y0438279D01*
X0421336Y0438427D01*
X0421275Y0438576D01*
X0421219Y0438727D01*
X0421166Y0438879D01*
X0421117Y0439032D01*
X0421072Y0439186D01*
X0421031Y0439341D01*
X0420993Y0439498D01*
X0420960Y0439655D01*
X0420930Y0439813D01*
X0420904Y0439972D01*
X0420883Y0440131D01*
X0420865Y0440291D01*
X0420851Y0440451D01*
X0420841Y0440612D01*
X0420835Y0440772D01*
X0420833Y0440933D01*
X0340833Y0440933D02*
X0340835Y0441094D01*
X0340841Y0441254D01*
X0340851Y0441415D01*
X0340865Y0441575D01*
X0340883Y0441735D01*
X0340904Y0441894D01*
X0340930Y0442053D01*
X0340960Y0442211D01*
X0340993Y0442368D01*
X0341031Y0442525D01*
X0341072Y0442680D01*
X0341117Y0442834D01*
X0341166Y0442987D01*
X0341219Y0443139D01*
X0341275Y0443290D01*
X0341336Y0443439D01*
X0341399Y0443587D01*
X0341467Y0443733D01*
X0341538Y0443877D01*
X0341612Y0444019D01*
X0341690Y0444160D01*
X0341772Y0444298D01*
X0341857Y0444435D01*
X0341945Y0444569D01*
X0342037Y0444701D01*
X0342132Y0444831D01*
X0342230Y0444959D01*
X0342331Y0445084D01*
X0342435Y0445206D01*
X0342542Y0445326D01*
X0342652Y0445443D01*
X0342765Y0445558D01*
X0342881Y0445669D01*
X0343000Y0445778D01*
X0343121Y0445883D01*
X0343245Y0445986D01*
X0343371Y0446086D01*
X0343499Y0446182D01*
X0343630Y0446275D01*
X0343764Y0446365D01*
X0343899Y0446452D01*
X0344037Y0446535D01*
X0344176Y0446615D01*
X0344318Y0446691D01*
X0344461Y0446764D01*
X0344606Y0446833D01*
X0344753Y0446899D01*
X0344901Y0446961D01*
X0345051Y0447019D01*
X0345202Y0447074D01*
X0345355Y0447125D01*
X0345509Y0447172D01*
X0345664Y0447215D01*
X0345820Y0447254D01*
X0345976Y0447290D01*
X0346134Y0447321D01*
X0346292Y0447349D01*
X0346451Y0447373D01*
X0346611Y0447393D01*
X0346771Y0447409D01*
X0346931Y0447421D01*
X0347092Y0447429D01*
X0347253Y0447433D01*
X0347413Y0447433D01*
X0347574Y0447429D01*
X0347735Y0447421D01*
X0347895Y0447409D01*
X0348055Y0447393D01*
X0348215Y0447373D01*
X0348374Y0447349D01*
X0348532Y0447321D01*
X0348690Y0447290D01*
X0348846Y0447254D01*
X0349002Y0447215D01*
X0349157Y0447172D01*
X0349311Y0447125D01*
X0349464Y0447074D01*
X0349615Y0447019D01*
X0349765Y0446961D01*
X0349913Y0446899D01*
X0350060Y0446833D01*
X0350205Y0446764D01*
X0350348Y0446691D01*
X0350490Y0446615D01*
X0350629Y0446535D01*
X0350767Y0446452D01*
X0350902Y0446365D01*
X0351036Y0446275D01*
X0351167Y0446182D01*
X0351295Y0446086D01*
X0351421Y0445986D01*
X0351545Y0445883D01*
X0351666Y0445778D01*
X0351785Y0445669D01*
X0351901Y0445558D01*
X0352014Y0445443D01*
X0352124Y0445326D01*
X0352231Y0445206D01*
X0352335Y0445084D01*
X0352436Y0444959D01*
X0352534Y0444831D01*
X0352629Y0444701D01*
X0352721Y0444569D01*
X0352809Y0444435D01*
X0352894Y0444298D01*
X0352976Y0444160D01*
X0353054Y0444019D01*
X0353128Y0443877D01*
X0353199Y0443733D01*
X0353267Y0443587D01*
X0353330Y0443439D01*
X0353391Y0443290D01*
X0353447Y0443139D01*
X0353500Y0442987D01*
X0353549Y0442834D01*
X0353594Y0442680D01*
X0353635Y0442525D01*
X0353673Y0442368D01*
X0353706Y0442211D01*
X0353736Y0442053D01*
X0353762Y0441894D01*
X0353783Y0441735D01*
X0353801Y0441575D01*
X0353815Y0441415D01*
X0353825Y0441254D01*
X0353831Y0441094D01*
X0353833Y0440933D01*
X0353831Y0440772D01*
X0353825Y0440612D01*
X0353815Y0440451D01*
X0353801Y0440291D01*
X0353783Y0440131D01*
X0353762Y0439972D01*
X0353736Y0439813D01*
X0353706Y0439655D01*
X0353673Y0439498D01*
X0353635Y0439341D01*
X0353594Y0439186D01*
X0353549Y0439032D01*
X0353500Y0438879D01*
X0353447Y0438727D01*
X0353391Y0438576D01*
X0353330Y0438427D01*
X0353267Y0438279D01*
X0353199Y0438133D01*
X0353128Y0437989D01*
X0353054Y0437847D01*
X0352976Y0437706D01*
X0352894Y0437568D01*
X0352809Y0437431D01*
X0352721Y0437297D01*
X0352629Y0437165D01*
X0352534Y0437035D01*
X0352436Y0436907D01*
X0352335Y0436782D01*
X0352231Y0436660D01*
X0352124Y0436540D01*
X0352014Y0436423D01*
X0351901Y0436308D01*
X0351785Y0436197D01*
X0351666Y0436088D01*
X0351545Y0435983D01*
X0351421Y0435880D01*
X0351295Y0435780D01*
X0351167Y0435684D01*
X0351036Y0435591D01*
X0350902Y0435501D01*
X0350767Y0435414D01*
X0350629Y0435331D01*
X0350490Y0435251D01*
X0350348Y0435175D01*
X0350205Y0435102D01*
X0350060Y0435033D01*
X0349913Y0434967D01*
X0349765Y0434905D01*
X0349615Y0434847D01*
X0349464Y0434792D01*
X0349311Y0434741D01*
X0349157Y0434694D01*
X0349002Y0434651D01*
X0348846Y0434612D01*
X0348690Y0434576D01*
X0348532Y0434545D01*
X0348374Y0434517D01*
X0348215Y0434493D01*
X0348055Y0434473D01*
X0347895Y0434457D01*
X0347735Y0434445D01*
X0347574Y0434437D01*
X0347413Y0434433D01*
X0347253Y0434433D01*
X0347092Y0434437D01*
X0346931Y0434445D01*
X0346771Y0434457D01*
X0346611Y0434473D01*
X0346451Y0434493D01*
X0346292Y0434517D01*
X0346134Y0434545D01*
X0345976Y0434576D01*
X0345820Y0434612D01*
X0345664Y0434651D01*
X0345509Y0434694D01*
X0345355Y0434741D01*
X0345202Y0434792D01*
X0345051Y0434847D01*
X0344901Y0434905D01*
X0344753Y0434967D01*
X0344606Y0435033D01*
X0344461Y0435102D01*
X0344318Y0435175D01*
X0344176Y0435251D01*
X0344037Y0435331D01*
X0343899Y0435414D01*
X0343764Y0435501D01*
X0343630Y0435591D01*
X0343499Y0435684D01*
X0343371Y0435780D01*
X0343245Y0435880D01*
X0343121Y0435983D01*
X0343000Y0436088D01*
X0342881Y0436197D01*
X0342765Y0436308D01*
X0342652Y0436423D01*
X0342542Y0436540D01*
X0342435Y0436660D01*
X0342331Y0436782D01*
X0342230Y0436907D01*
X0342132Y0437035D01*
X0342037Y0437165D01*
X0341945Y0437297D01*
X0341857Y0437431D01*
X0341772Y0437568D01*
X0341690Y0437706D01*
X0341612Y0437847D01*
X0341538Y0437989D01*
X0341467Y0438133D01*
X0341399Y0438279D01*
X0341336Y0438427D01*
X0341275Y0438576D01*
X0341219Y0438727D01*
X0341166Y0438879D01*
X0341117Y0439032D01*
X0341072Y0439186D01*
X0341031Y0439341D01*
X0340993Y0439498D01*
X0340960Y0439655D01*
X0340930Y0439813D01*
X0340904Y0439972D01*
X0340883Y0440131D01*
X0340865Y0440291D01*
X0340851Y0440451D01*
X0340841Y0440612D01*
X0340835Y0440772D01*
X0340833Y0440933D01*
X0318833Y0440933D02*
X0318835Y0441094D01*
X0318841Y0441254D01*
X0318851Y0441415D01*
X0318865Y0441575D01*
X0318883Y0441735D01*
X0318904Y0441894D01*
X0318930Y0442053D01*
X0318960Y0442211D01*
X0318993Y0442368D01*
X0319031Y0442525D01*
X0319072Y0442680D01*
X0319117Y0442834D01*
X0319166Y0442987D01*
X0319219Y0443139D01*
X0319275Y0443290D01*
X0319336Y0443439D01*
X0319399Y0443587D01*
X0319467Y0443733D01*
X0319538Y0443877D01*
X0319612Y0444019D01*
X0319690Y0444160D01*
X0319772Y0444298D01*
X0319857Y0444435D01*
X0319945Y0444569D01*
X0320037Y0444701D01*
X0320132Y0444831D01*
X0320230Y0444959D01*
X0320331Y0445084D01*
X0320435Y0445206D01*
X0320542Y0445326D01*
X0320652Y0445443D01*
X0320765Y0445558D01*
X0320881Y0445669D01*
X0321000Y0445778D01*
X0321121Y0445883D01*
X0321245Y0445986D01*
X0321371Y0446086D01*
X0321499Y0446182D01*
X0321630Y0446275D01*
X0321764Y0446365D01*
X0321899Y0446452D01*
X0322037Y0446535D01*
X0322176Y0446615D01*
X0322318Y0446691D01*
X0322461Y0446764D01*
X0322606Y0446833D01*
X0322753Y0446899D01*
X0322901Y0446961D01*
X0323051Y0447019D01*
X0323202Y0447074D01*
X0323355Y0447125D01*
X0323509Y0447172D01*
X0323664Y0447215D01*
X0323820Y0447254D01*
X0323976Y0447290D01*
X0324134Y0447321D01*
X0324292Y0447349D01*
X0324451Y0447373D01*
X0324611Y0447393D01*
X0324771Y0447409D01*
X0324931Y0447421D01*
X0325092Y0447429D01*
X0325253Y0447433D01*
X0325413Y0447433D01*
X0325574Y0447429D01*
X0325735Y0447421D01*
X0325895Y0447409D01*
X0326055Y0447393D01*
X0326215Y0447373D01*
X0326374Y0447349D01*
X0326532Y0447321D01*
X0326690Y0447290D01*
X0326846Y0447254D01*
X0327002Y0447215D01*
X0327157Y0447172D01*
X0327311Y0447125D01*
X0327464Y0447074D01*
X0327615Y0447019D01*
X0327765Y0446961D01*
X0327913Y0446899D01*
X0328060Y0446833D01*
X0328205Y0446764D01*
X0328348Y0446691D01*
X0328490Y0446615D01*
X0328629Y0446535D01*
X0328767Y0446452D01*
X0328902Y0446365D01*
X0329036Y0446275D01*
X0329167Y0446182D01*
X0329295Y0446086D01*
X0329421Y0445986D01*
X0329545Y0445883D01*
X0329666Y0445778D01*
X0329785Y0445669D01*
X0329901Y0445558D01*
X0330014Y0445443D01*
X0330124Y0445326D01*
X0330231Y0445206D01*
X0330335Y0445084D01*
X0330436Y0444959D01*
X0330534Y0444831D01*
X0330629Y0444701D01*
X0330721Y0444569D01*
X0330809Y0444435D01*
X0330894Y0444298D01*
X0330976Y0444160D01*
X0331054Y0444019D01*
X0331128Y0443877D01*
X0331199Y0443733D01*
X0331267Y0443587D01*
X0331330Y0443439D01*
X0331391Y0443290D01*
X0331447Y0443139D01*
X0331500Y0442987D01*
X0331549Y0442834D01*
X0331594Y0442680D01*
X0331635Y0442525D01*
X0331673Y0442368D01*
X0331706Y0442211D01*
X0331736Y0442053D01*
X0331762Y0441894D01*
X0331783Y0441735D01*
X0331801Y0441575D01*
X0331815Y0441415D01*
X0331825Y0441254D01*
X0331831Y0441094D01*
X0331833Y0440933D01*
X0331831Y0440772D01*
X0331825Y0440612D01*
X0331815Y0440451D01*
X0331801Y0440291D01*
X0331783Y0440131D01*
X0331762Y0439972D01*
X0331736Y0439813D01*
X0331706Y0439655D01*
X0331673Y0439498D01*
X0331635Y0439341D01*
X0331594Y0439186D01*
X0331549Y0439032D01*
X0331500Y0438879D01*
X0331447Y0438727D01*
X0331391Y0438576D01*
X0331330Y0438427D01*
X0331267Y0438279D01*
X0331199Y0438133D01*
X0331128Y0437989D01*
X0331054Y0437847D01*
X0330976Y0437706D01*
X0330894Y0437568D01*
X0330809Y0437431D01*
X0330721Y0437297D01*
X0330629Y0437165D01*
X0330534Y0437035D01*
X0330436Y0436907D01*
X0330335Y0436782D01*
X0330231Y0436660D01*
X0330124Y0436540D01*
X0330014Y0436423D01*
X0329901Y0436308D01*
X0329785Y0436197D01*
X0329666Y0436088D01*
X0329545Y0435983D01*
X0329421Y0435880D01*
X0329295Y0435780D01*
X0329167Y0435684D01*
X0329036Y0435591D01*
X0328902Y0435501D01*
X0328767Y0435414D01*
X0328629Y0435331D01*
X0328490Y0435251D01*
X0328348Y0435175D01*
X0328205Y0435102D01*
X0328060Y0435033D01*
X0327913Y0434967D01*
X0327765Y0434905D01*
X0327615Y0434847D01*
X0327464Y0434792D01*
X0327311Y0434741D01*
X0327157Y0434694D01*
X0327002Y0434651D01*
X0326846Y0434612D01*
X0326690Y0434576D01*
X0326532Y0434545D01*
X0326374Y0434517D01*
X0326215Y0434493D01*
X0326055Y0434473D01*
X0325895Y0434457D01*
X0325735Y0434445D01*
X0325574Y0434437D01*
X0325413Y0434433D01*
X0325253Y0434433D01*
X0325092Y0434437D01*
X0324931Y0434445D01*
X0324771Y0434457D01*
X0324611Y0434473D01*
X0324451Y0434493D01*
X0324292Y0434517D01*
X0324134Y0434545D01*
X0323976Y0434576D01*
X0323820Y0434612D01*
X0323664Y0434651D01*
X0323509Y0434694D01*
X0323355Y0434741D01*
X0323202Y0434792D01*
X0323051Y0434847D01*
X0322901Y0434905D01*
X0322753Y0434967D01*
X0322606Y0435033D01*
X0322461Y0435102D01*
X0322318Y0435175D01*
X0322176Y0435251D01*
X0322037Y0435331D01*
X0321899Y0435414D01*
X0321764Y0435501D01*
X0321630Y0435591D01*
X0321499Y0435684D01*
X0321371Y0435780D01*
X0321245Y0435880D01*
X0321121Y0435983D01*
X0321000Y0436088D01*
X0320881Y0436197D01*
X0320765Y0436308D01*
X0320652Y0436423D01*
X0320542Y0436540D01*
X0320435Y0436660D01*
X0320331Y0436782D01*
X0320230Y0436907D01*
X0320132Y0437035D01*
X0320037Y0437165D01*
X0319945Y0437297D01*
X0319857Y0437431D01*
X0319772Y0437568D01*
X0319690Y0437706D01*
X0319612Y0437847D01*
X0319538Y0437989D01*
X0319467Y0438133D01*
X0319399Y0438279D01*
X0319336Y0438427D01*
X0319275Y0438576D01*
X0319219Y0438727D01*
X0319166Y0438879D01*
X0319117Y0439032D01*
X0319072Y0439186D01*
X0319031Y0439341D01*
X0318993Y0439498D01*
X0318960Y0439655D01*
X0318930Y0439813D01*
X0318904Y0439972D01*
X0318883Y0440131D01*
X0318865Y0440291D01*
X0318851Y0440451D01*
X0318841Y0440612D01*
X0318835Y0440772D01*
X0318833Y0440933D01*
X0238833Y0440933D02*
X0238835Y0441094D01*
X0238841Y0441254D01*
X0238851Y0441415D01*
X0238865Y0441575D01*
X0238883Y0441735D01*
X0238904Y0441894D01*
X0238930Y0442053D01*
X0238960Y0442211D01*
X0238993Y0442368D01*
X0239031Y0442525D01*
X0239072Y0442680D01*
X0239117Y0442834D01*
X0239166Y0442987D01*
X0239219Y0443139D01*
X0239275Y0443290D01*
X0239336Y0443439D01*
X0239399Y0443587D01*
X0239467Y0443733D01*
X0239538Y0443877D01*
X0239612Y0444019D01*
X0239690Y0444160D01*
X0239772Y0444298D01*
X0239857Y0444435D01*
X0239945Y0444569D01*
X0240037Y0444701D01*
X0240132Y0444831D01*
X0240230Y0444959D01*
X0240331Y0445084D01*
X0240435Y0445206D01*
X0240542Y0445326D01*
X0240652Y0445443D01*
X0240765Y0445558D01*
X0240881Y0445669D01*
X0241000Y0445778D01*
X0241121Y0445883D01*
X0241245Y0445986D01*
X0241371Y0446086D01*
X0241499Y0446182D01*
X0241630Y0446275D01*
X0241764Y0446365D01*
X0241899Y0446452D01*
X0242037Y0446535D01*
X0242176Y0446615D01*
X0242318Y0446691D01*
X0242461Y0446764D01*
X0242606Y0446833D01*
X0242753Y0446899D01*
X0242901Y0446961D01*
X0243051Y0447019D01*
X0243202Y0447074D01*
X0243355Y0447125D01*
X0243509Y0447172D01*
X0243664Y0447215D01*
X0243820Y0447254D01*
X0243976Y0447290D01*
X0244134Y0447321D01*
X0244292Y0447349D01*
X0244451Y0447373D01*
X0244611Y0447393D01*
X0244771Y0447409D01*
X0244931Y0447421D01*
X0245092Y0447429D01*
X0245253Y0447433D01*
X0245413Y0447433D01*
X0245574Y0447429D01*
X0245735Y0447421D01*
X0245895Y0447409D01*
X0246055Y0447393D01*
X0246215Y0447373D01*
X0246374Y0447349D01*
X0246532Y0447321D01*
X0246690Y0447290D01*
X0246846Y0447254D01*
X0247002Y0447215D01*
X0247157Y0447172D01*
X0247311Y0447125D01*
X0247464Y0447074D01*
X0247615Y0447019D01*
X0247765Y0446961D01*
X0247913Y0446899D01*
X0248060Y0446833D01*
X0248205Y0446764D01*
X0248348Y0446691D01*
X0248490Y0446615D01*
X0248629Y0446535D01*
X0248767Y0446452D01*
X0248902Y0446365D01*
X0249036Y0446275D01*
X0249167Y0446182D01*
X0249295Y0446086D01*
X0249421Y0445986D01*
X0249545Y0445883D01*
X0249666Y0445778D01*
X0249785Y0445669D01*
X0249901Y0445558D01*
X0250014Y0445443D01*
X0250124Y0445326D01*
X0250231Y0445206D01*
X0250335Y0445084D01*
X0250436Y0444959D01*
X0250534Y0444831D01*
X0250629Y0444701D01*
X0250721Y0444569D01*
X0250809Y0444435D01*
X0250894Y0444298D01*
X0250976Y0444160D01*
X0251054Y0444019D01*
X0251128Y0443877D01*
X0251199Y0443733D01*
X0251267Y0443587D01*
X0251330Y0443439D01*
X0251391Y0443290D01*
X0251447Y0443139D01*
X0251500Y0442987D01*
X0251549Y0442834D01*
X0251594Y0442680D01*
X0251635Y0442525D01*
X0251673Y0442368D01*
X0251706Y0442211D01*
X0251736Y0442053D01*
X0251762Y0441894D01*
X0251783Y0441735D01*
X0251801Y0441575D01*
X0251815Y0441415D01*
X0251825Y0441254D01*
X0251831Y0441094D01*
X0251833Y0440933D01*
X0251831Y0440772D01*
X0251825Y0440612D01*
X0251815Y0440451D01*
X0251801Y0440291D01*
X0251783Y0440131D01*
X0251762Y0439972D01*
X0251736Y0439813D01*
X0251706Y0439655D01*
X0251673Y0439498D01*
X0251635Y0439341D01*
X0251594Y0439186D01*
X0251549Y0439032D01*
X0251500Y0438879D01*
X0251447Y0438727D01*
X0251391Y0438576D01*
X0251330Y0438427D01*
X0251267Y0438279D01*
X0251199Y0438133D01*
X0251128Y0437989D01*
X0251054Y0437847D01*
X0250976Y0437706D01*
X0250894Y0437568D01*
X0250809Y0437431D01*
X0250721Y0437297D01*
X0250629Y0437165D01*
X0250534Y0437035D01*
X0250436Y0436907D01*
X0250335Y0436782D01*
X0250231Y0436660D01*
X0250124Y0436540D01*
X0250014Y0436423D01*
X0249901Y0436308D01*
X0249785Y0436197D01*
X0249666Y0436088D01*
X0249545Y0435983D01*
X0249421Y0435880D01*
X0249295Y0435780D01*
X0249167Y0435684D01*
X0249036Y0435591D01*
X0248902Y0435501D01*
X0248767Y0435414D01*
X0248629Y0435331D01*
X0248490Y0435251D01*
X0248348Y0435175D01*
X0248205Y0435102D01*
X0248060Y0435033D01*
X0247913Y0434967D01*
X0247765Y0434905D01*
X0247615Y0434847D01*
X0247464Y0434792D01*
X0247311Y0434741D01*
X0247157Y0434694D01*
X0247002Y0434651D01*
X0246846Y0434612D01*
X0246690Y0434576D01*
X0246532Y0434545D01*
X0246374Y0434517D01*
X0246215Y0434493D01*
X0246055Y0434473D01*
X0245895Y0434457D01*
X0245735Y0434445D01*
X0245574Y0434437D01*
X0245413Y0434433D01*
X0245253Y0434433D01*
X0245092Y0434437D01*
X0244931Y0434445D01*
X0244771Y0434457D01*
X0244611Y0434473D01*
X0244451Y0434493D01*
X0244292Y0434517D01*
X0244134Y0434545D01*
X0243976Y0434576D01*
X0243820Y0434612D01*
X0243664Y0434651D01*
X0243509Y0434694D01*
X0243355Y0434741D01*
X0243202Y0434792D01*
X0243051Y0434847D01*
X0242901Y0434905D01*
X0242753Y0434967D01*
X0242606Y0435033D01*
X0242461Y0435102D01*
X0242318Y0435175D01*
X0242176Y0435251D01*
X0242037Y0435331D01*
X0241899Y0435414D01*
X0241764Y0435501D01*
X0241630Y0435591D01*
X0241499Y0435684D01*
X0241371Y0435780D01*
X0241245Y0435880D01*
X0241121Y0435983D01*
X0241000Y0436088D01*
X0240881Y0436197D01*
X0240765Y0436308D01*
X0240652Y0436423D01*
X0240542Y0436540D01*
X0240435Y0436660D01*
X0240331Y0436782D01*
X0240230Y0436907D01*
X0240132Y0437035D01*
X0240037Y0437165D01*
X0239945Y0437297D01*
X0239857Y0437431D01*
X0239772Y0437568D01*
X0239690Y0437706D01*
X0239612Y0437847D01*
X0239538Y0437989D01*
X0239467Y0438133D01*
X0239399Y0438279D01*
X0239336Y0438427D01*
X0239275Y0438576D01*
X0239219Y0438727D01*
X0239166Y0438879D01*
X0239117Y0439032D01*
X0239072Y0439186D01*
X0239031Y0439341D01*
X0238993Y0439498D01*
X0238960Y0439655D01*
X0238930Y0439813D01*
X0238904Y0439972D01*
X0238883Y0440131D01*
X0238865Y0440291D01*
X0238851Y0440451D01*
X0238841Y0440612D01*
X0238835Y0440772D01*
X0238833Y0440933D01*
X0216833Y0440933D02*
X0216835Y0441094D01*
X0216841Y0441254D01*
X0216851Y0441415D01*
X0216865Y0441575D01*
X0216883Y0441735D01*
X0216904Y0441894D01*
X0216930Y0442053D01*
X0216960Y0442211D01*
X0216993Y0442368D01*
X0217031Y0442525D01*
X0217072Y0442680D01*
X0217117Y0442834D01*
X0217166Y0442987D01*
X0217219Y0443139D01*
X0217275Y0443290D01*
X0217336Y0443439D01*
X0217399Y0443587D01*
X0217467Y0443733D01*
X0217538Y0443877D01*
X0217612Y0444019D01*
X0217690Y0444160D01*
X0217772Y0444298D01*
X0217857Y0444435D01*
X0217945Y0444569D01*
X0218037Y0444701D01*
X0218132Y0444831D01*
X0218230Y0444959D01*
X0218331Y0445084D01*
X0218435Y0445206D01*
X0218542Y0445326D01*
X0218652Y0445443D01*
X0218765Y0445558D01*
X0218881Y0445669D01*
X0219000Y0445778D01*
X0219121Y0445883D01*
X0219245Y0445986D01*
X0219371Y0446086D01*
X0219499Y0446182D01*
X0219630Y0446275D01*
X0219764Y0446365D01*
X0219899Y0446452D01*
X0220037Y0446535D01*
X0220176Y0446615D01*
X0220318Y0446691D01*
X0220461Y0446764D01*
X0220606Y0446833D01*
X0220753Y0446899D01*
X0220901Y0446961D01*
X0221051Y0447019D01*
X0221202Y0447074D01*
X0221355Y0447125D01*
X0221509Y0447172D01*
X0221664Y0447215D01*
X0221820Y0447254D01*
X0221976Y0447290D01*
X0222134Y0447321D01*
X0222292Y0447349D01*
X0222451Y0447373D01*
X0222611Y0447393D01*
X0222771Y0447409D01*
X0222931Y0447421D01*
X0223092Y0447429D01*
X0223253Y0447433D01*
X0223413Y0447433D01*
X0223574Y0447429D01*
X0223735Y0447421D01*
X0223895Y0447409D01*
X0224055Y0447393D01*
X0224215Y0447373D01*
X0224374Y0447349D01*
X0224532Y0447321D01*
X0224690Y0447290D01*
X0224846Y0447254D01*
X0225002Y0447215D01*
X0225157Y0447172D01*
X0225311Y0447125D01*
X0225464Y0447074D01*
X0225615Y0447019D01*
X0225765Y0446961D01*
X0225913Y0446899D01*
X0226060Y0446833D01*
X0226205Y0446764D01*
X0226348Y0446691D01*
X0226490Y0446615D01*
X0226629Y0446535D01*
X0226767Y0446452D01*
X0226902Y0446365D01*
X0227036Y0446275D01*
X0227167Y0446182D01*
X0227295Y0446086D01*
X0227421Y0445986D01*
X0227545Y0445883D01*
X0227666Y0445778D01*
X0227785Y0445669D01*
X0227901Y0445558D01*
X0228014Y0445443D01*
X0228124Y0445326D01*
X0228231Y0445206D01*
X0228335Y0445084D01*
X0228436Y0444959D01*
X0228534Y0444831D01*
X0228629Y0444701D01*
X0228721Y0444569D01*
X0228809Y0444435D01*
X0228894Y0444298D01*
X0228976Y0444160D01*
X0229054Y0444019D01*
X0229128Y0443877D01*
X0229199Y0443733D01*
X0229267Y0443587D01*
X0229330Y0443439D01*
X0229391Y0443290D01*
X0229447Y0443139D01*
X0229500Y0442987D01*
X0229549Y0442834D01*
X0229594Y0442680D01*
X0229635Y0442525D01*
X0229673Y0442368D01*
X0229706Y0442211D01*
X0229736Y0442053D01*
X0229762Y0441894D01*
X0229783Y0441735D01*
X0229801Y0441575D01*
X0229815Y0441415D01*
X0229825Y0441254D01*
X0229831Y0441094D01*
X0229833Y0440933D01*
X0229831Y0440772D01*
X0229825Y0440612D01*
X0229815Y0440451D01*
X0229801Y0440291D01*
X0229783Y0440131D01*
X0229762Y0439972D01*
X0229736Y0439813D01*
X0229706Y0439655D01*
X0229673Y0439498D01*
X0229635Y0439341D01*
X0229594Y0439186D01*
X0229549Y0439032D01*
X0229500Y0438879D01*
X0229447Y0438727D01*
X0229391Y0438576D01*
X0229330Y0438427D01*
X0229267Y0438279D01*
X0229199Y0438133D01*
X0229128Y0437989D01*
X0229054Y0437847D01*
X0228976Y0437706D01*
X0228894Y0437568D01*
X0228809Y0437431D01*
X0228721Y0437297D01*
X0228629Y0437165D01*
X0228534Y0437035D01*
X0228436Y0436907D01*
X0228335Y0436782D01*
X0228231Y0436660D01*
X0228124Y0436540D01*
X0228014Y0436423D01*
X0227901Y0436308D01*
X0227785Y0436197D01*
X0227666Y0436088D01*
X0227545Y0435983D01*
X0227421Y0435880D01*
X0227295Y0435780D01*
X0227167Y0435684D01*
X0227036Y0435591D01*
X0226902Y0435501D01*
X0226767Y0435414D01*
X0226629Y0435331D01*
X0226490Y0435251D01*
X0226348Y0435175D01*
X0226205Y0435102D01*
X0226060Y0435033D01*
X0225913Y0434967D01*
X0225765Y0434905D01*
X0225615Y0434847D01*
X0225464Y0434792D01*
X0225311Y0434741D01*
X0225157Y0434694D01*
X0225002Y0434651D01*
X0224846Y0434612D01*
X0224690Y0434576D01*
X0224532Y0434545D01*
X0224374Y0434517D01*
X0224215Y0434493D01*
X0224055Y0434473D01*
X0223895Y0434457D01*
X0223735Y0434445D01*
X0223574Y0434437D01*
X0223413Y0434433D01*
X0223253Y0434433D01*
X0223092Y0434437D01*
X0222931Y0434445D01*
X0222771Y0434457D01*
X0222611Y0434473D01*
X0222451Y0434493D01*
X0222292Y0434517D01*
X0222134Y0434545D01*
X0221976Y0434576D01*
X0221820Y0434612D01*
X0221664Y0434651D01*
X0221509Y0434694D01*
X0221355Y0434741D01*
X0221202Y0434792D01*
X0221051Y0434847D01*
X0220901Y0434905D01*
X0220753Y0434967D01*
X0220606Y0435033D01*
X0220461Y0435102D01*
X0220318Y0435175D01*
X0220176Y0435251D01*
X0220037Y0435331D01*
X0219899Y0435414D01*
X0219764Y0435501D01*
X0219630Y0435591D01*
X0219499Y0435684D01*
X0219371Y0435780D01*
X0219245Y0435880D01*
X0219121Y0435983D01*
X0219000Y0436088D01*
X0218881Y0436197D01*
X0218765Y0436308D01*
X0218652Y0436423D01*
X0218542Y0436540D01*
X0218435Y0436660D01*
X0218331Y0436782D01*
X0218230Y0436907D01*
X0218132Y0437035D01*
X0218037Y0437165D01*
X0217945Y0437297D01*
X0217857Y0437431D01*
X0217772Y0437568D01*
X0217690Y0437706D01*
X0217612Y0437847D01*
X0217538Y0437989D01*
X0217467Y0438133D01*
X0217399Y0438279D01*
X0217336Y0438427D01*
X0217275Y0438576D01*
X0217219Y0438727D01*
X0217166Y0438879D01*
X0217117Y0439032D01*
X0217072Y0439186D01*
X0217031Y0439341D01*
X0216993Y0439498D01*
X0216960Y0439655D01*
X0216930Y0439813D01*
X0216904Y0439972D01*
X0216883Y0440131D01*
X0216865Y0440291D01*
X0216851Y0440451D01*
X0216841Y0440612D01*
X0216835Y0440772D01*
X0216833Y0440933D01*
X0216833Y0520933D02*
X0216835Y0521094D01*
X0216841Y0521254D01*
X0216851Y0521415D01*
X0216865Y0521575D01*
X0216883Y0521735D01*
X0216904Y0521894D01*
X0216930Y0522053D01*
X0216960Y0522211D01*
X0216993Y0522368D01*
X0217031Y0522525D01*
X0217072Y0522680D01*
X0217117Y0522834D01*
X0217166Y0522987D01*
X0217219Y0523139D01*
X0217275Y0523290D01*
X0217336Y0523439D01*
X0217399Y0523587D01*
X0217467Y0523733D01*
X0217538Y0523877D01*
X0217612Y0524019D01*
X0217690Y0524160D01*
X0217772Y0524298D01*
X0217857Y0524435D01*
X0217945Y0524569D01*
X0218037Y0524701D01*
X0218132Y0524831D01*
X0218230Y0524959D01*
X0218331Y0525084D01*
X0218435Y0525206D01*
X0218542Y0525326D01*
X0218652Y0525443D01*
X0218765Y0525558D01*
X0218881Y0525669D01*
X0219000Y0525778D01*
X0219121Y0525883D01*
X0219245Y0525986D01*
X0219371Y0526086D01*
X0219499Y0526182D01*
X0219630Y0526275D01*
X0219764Y0526365D01*
X0219899Y0526452D01*
X0220037Y0526535D01*
X0220176Y0526615D01*
X0220318Y0526691D01*
X0220461Y0526764D01*
X0220606Y0526833D01*
X0220753Y0526899D01*
X0220901Y0526961D01*
X0221051Y0527019D01*
X0221202Y0527074D01*
X0221355Y0527125D01*
X0221509Y0527172D01*
X0221664Y0527215D01*
X0221820Y0527254D01*
X0221976Y0527290D01*
X0222134Y0527321D01*
X0222292Y0527349D01*
X0222451Y0527373D01*
X0222611Y0527393D01*
X0222771Y0527409D01*
X0222931Y0527421D01*
X0223092Y0527429D01*
X0223253Y0527433D01*
X0223413Y0527433D01*
X0223574Y0527429D01*
X0223735Y0527421D01*
X0223895Y0527409D01*
X0224055Y0527393D01*
X0224215Y0527373D01*
X0224374Y0527349D01*
X0224532Y0527321D01*
X0224690Y0527290D01*
X0224846Y0527254D01*
X0225002Y0527215D01*
X0225157Y0527172D01*
X0225311Y0527125D01*
X0225464Y0527074D01*
X0225615Y0527019D01*
X0225765Y0526961D01*
X0225913Y0526899D01*
X0226060Y0526833D01*
X0226205Y0526764D01*
X0226348Y0526691D01*
X0226490Y0526615D01*
X0226629Y0526535D01*
X0226767Y0526452D01*
X0226902Y0526365D01*
X0227036Y0526275D01*
X0227167Y0526182D01*
X0227295Y0526086D01*
X0227421Y0525986D01*
X0227545Y0525883D01*
X0227666Y0525778D01*
X0227785Y0525669D01*
X0227901Y0525558D01*
X0228014Y0525443D01*
X0228124Y0525326D01*
X0228231Y0525206D01*
X0228335Y0525084D01*
X0228436Y0524959D01*
X0228534Y0524831D01*
X0228629Y0524701D01*
X0228721Y0524569D01*
X0228809Y0524435D01*
X0228894Y0524298D01*
X0228976Y0524160D01*
X0229054Y0524019D01*
X0229128Y0523877D01*
X0229199Y0523733D01*
X0229267Y0523587D01*
X0229330Y0523439D01*
X0229391Y0523290D01*
X0229447Y0523139D01*
X0229500Y0522987D01*
X0229549Y0522834D01*
X0229594Y0522680D01*
X0229635Y0522525D01*
X0229673Y0522368D01*
X0229706Y0522211D01*
X0229736Y0522053D01*
X0229762Y0521894D01*
X0229783Y0521735D01*
X0229801Y0521575D01*
X0229815Y0521415D01*
X0229825Y0521254D01*
X0229831Y0521094D01*
X0229833Y0520933D01*
X0229831Y0520772D01*
X0229825Y0520612D01*
X0229815Y0520451D01*
X0229801Y0520291D01*
X0229783Y0520131D01*
X0229762Y0519972D01*
X0229736Y0519813D01*
X0229706Y0519655D01*
X0229673Y0519498D01*
X0229635Y0519341D01*
X0229594Y0519186D01*
X0229549Y0519032D01*
X0229500Y0518879D01*
X0229447Y0518727D01*
X0229391Y0518576D01*
X0229330Y0518427D01*
X0229267Y0518279D01*
X0229199Y0518133D01*
X0229128Y0517989D01*
X0229054Y0517847D01*
X0228976Y0517706D01*
X0228894Y0517568D01*
X0228809Y0517431D01*
X0228721Y0517297D01*
X0228629Y0517165D01*
X0228534Y0517035D01*
X0228436Y0516907D01*
X0228335Y0516782D01*
X0228231Y0516660D01*
X0228124Y0516540D01*
X0228014Y0516423D01*
X0227901Y0516308D01*
X0227785Y0516197D01*
X0227666Y0516088D01*
X0227545Y0515983D01*
X0227421Y0515880D01*
X0227295Y0515780D01*
X0227167Y0515684D01*
X0227036Y0515591D01*
X0226902Y0515501D01*
X0226767Y0515414D01*
X0226629Y0515331D01*
X0226490Y0515251D01*
X0226348Y0515175D01*
X0226205Y0515102D01*
X0226060Y0515033D01*
X0225913Y0514967D01*
X0225765Y0514905D01*
X0225615Y0514847D01*
X0225464Y0514792D01*
X0225311Y0514741D01*
X0225157Y0514694D01*
X0225002Y0514651D01*
X0224846Y0514612D01*
X0224690Y0514576D01*
X0224532Y0514545D01*
X0224374Y0514517D01*
X0224215Y0514493D01*
X0224055Y0514473D01*
X0223895Y0514457D01*
X0223735Y0514445D01*
X0223574Y0514437D01*
X0223413Y0514433D01*
X0223253Y0514433D01*
X0223092Y0514437D01*
X0222931Y0514445D01*
X0222771Y0514457D01*
X0222611Y0514473D01*
X0222451Y0514493D01*
X0222292Y0514517D01*
X0222134Y0514545D01*
X0221976Y0514576D01*
X0221820Y0514612D01*
X0221664Y0514651D01*
X0221509Y0514694D01*
X0221355Y0514741D01*
X0221202Y0514792D01*
X0221051Y0514847D01*
X0220901Y0514905D01*
X0220753Y0514967D01*
X0220606Y0515033D01*
X0220461Y0515102D01*
X0220318Y0515175D01*
X0220176Y0515251D01*
X0220037Y0515331D01*
X0219899Y0515414D01*
X0219764Y0515501D01*
X0219630Y0515591D01*
X0219499Y0515684D01*
X0219371Y0515780D01*
X0219245Y0515880D01*
X0219121Y0515983D01*
X0219000Y0516088D01*
X0218881Y0516197D01*
X0218765Y0516308D01*
X0218652Y0516423D01*
X0218542Y0516540D01*
X0218435Y0516660D01*
X0218331Y0516782D01*
X0218230Y0516907D01*
X0218132Y0517035D01*
X0218037Y0517165D01*
X0217945Y0517297D01*
X0217857Y0517431D01*
X0217772Y0517568D01*
X0217690Y0517706D01*
X0217612Y0517847D01*
X0217538Y0517989D01*
X0217467Y0518133D01*
X0217399Y0518279D01*
X0217336Y0518427D01*
X0217275Y0518576D01*
X0217219Y0518727D01*
X0217166Y0518879D01*
X0217117Y0519032D01*
X0217072Y0519186D01*
X0217031Y0519341D01*
X0216993Y0519498D01*
X0216960Y0519655D01*
X0216930Y0519813D01*
X0216904Y0519972D01*
X0216883Y0520131D01*
X0216865Y0520291D01*
X0216851Y0520451D01*
X0216841Y0520612D01*
X0216835Y0520772D01*
X0216833Y0520933D01*
X0238833Y0520933D02*
X0238835Y0521094D01*
X0238841Y0521254D01*
X0238851Y0521415D01*
X0238865Y0521575D01*
X0238883Y0521735D01*
X0238904Y0521894D01*
X0238930Y0522053D01*
X0238960Y0522211D01*
X0238993Y0522368D01*
X0239031Y0522525D01*
X0239072Y0522680D01*
X0239117Y0522834D01*
X0239166Y0522987D01*
X0239219Y0523139D01*
X0239275Y0523290D01*
X0239336Y0523439D01*
X0239399Y0523587D01*
X0239467Y0523733D01*
X0239538Y0523877D01*
X0239612Y0524019D01*
X0239690Y0524160D01*
X0239772Y0524298D01*
X0239857Y0524435D01*
X0239945Y0524569D01*
X0240037Y0524701D01*
X0240132Y0524831D01*
X0240230Y0524959D01*
X0240331Y0525084D01*
X0240435Y0525206D01*
X0240542Y0525326D01*
X0240652Y0525443D01*
X0240765Y0525558D01*
X0240881Y0525669D01*
X0241000Y0525778D01*
X0241121Y0525883D01*
X0241245Y0525986D01*
X0241371Y0526086D01*
X0241499Y0526182D01*
X0241630Y0526275D01*
X0241764Y0526365D01*
X0241899Y0526452D01*
X0242037Y0526535D01*
X0242176Y0526615D01*
X0242318Y0526691D01*
X0242461Y0526764D01*
X0242606Y0526833D01*
X0242753Y0526899D01*
X0242901Y0526961D01*
X0243051Y0527019D01*
X0243202Y0527074D01*
X0243355Y0527125D01*
X0243509Y0527172D01*
X0243664Y0527215D01*
X0243820Y0527254D01*
X0243976Y0527290D01*
X0244134Y0527321D01*
X0244292Y0527349D01*
X0244451Y0527373D01*
X0244611Y0527393D01*
X0244771Y0527409D01*
X0244931Y0527421D01*
X0245092Y0527429D01*
X0245253Y0527433D01*
X0245413Y0527433D01*
X0245574Y0527429D01*
X0245735Y0527421D01*
X0245895Y0527409D01*
X0246055Y0527393D01*
X0246215Y0527373D01*
X0246374Y0527349D01*
X0246532Y0527321D01*
X0246690Y0527290D01*
X0246846Y0527254D01*
X0247002Y0527215D01*
X0247157Y0527172D01*
X0247311Y0527125D01*
X0247464Y0527074D01*
X0247615Y0527019D01*
X0247765Y0526961D01*
X0247913Y0526899D01*
X0248060Y0526833D01*
X0248205Y0526764D01*
X0248348Y0526691D01*
X0248490Y0526615D01*
X0248629Y0526535D01*
X0248767Y0526452D01*
X0248902Y0526365D01*
X0249036Y0526275D01*
X0249167Y0526182D01*
X0249295Y0526086D01*
X0249421Y0525986D01*
X0249545Y0525883D01*
X0249666Y0525778D01*
X0249785Y0525669D01*
X0249901Y0525558D01*
X0250014Y0525443D01*
X0250124Y0525326D01*
X0250231Y0525206D01*
X0250335Y0525084D01*
X0250436Y0524959D01*
X0250534Y0524831D01*
X0250629Y0524701D01*
X0250721Y0524569D01*
X0250809Y0524435D01*
X0250894Y0524298D01*
X0250976Y0524160D01*
X0251054Y0524019D01*
X0251128Y0523877D01*
X0251199Y0523733D01*
X0251267Y0523587D01*
X0251330Y0523439D01*
X0251391Y0523290D01*
X0251447Y0523139D01*
X0251500Y0522987D01*
X0251549Y0522834D01*
X0251594Y0522680D01*
X0251635Y0522525D01*
X0251673Y0522368D01*
X0251706Y0522211D01*
X0251736Y0522053D01*
X0251762Y0521894D01*
X0251783Y0521735D01*
X0251801Y0521575D01*
X0251815Y0521415D01*
X0251825Y0521254D01*
X0251831Y0521094D01*
X0251833Y0520933D01*
X0251831Y0520772D01*
X0251825Y0520612D01*
X0251815Y0520451D01*
X0251801Y0520291D01*
X0251783Y0520131D01*
X0251762Y0519972D01*
X0251736Y0519813D01*
X0251706Y0519655D01*
X0251673Y0519498D01*
X0251635Y0519341D01*
X0251594Y0519186D01*
X0251549Y0519032D01*
X0251500Y0518879D01*
X0251447Y0518727D01*
X0251391Y0518576D01*
X0251330Y0518427D01*
X0251267Y0518279D01*
X0251199Y0518133D01*
X0251128Y0517989D01*
X0251054Y0517847D01*
X0250976Y0517706D01*
X0250894Y0517568D01*
X0250809Y0517431D01*
X0250721Y0517297D01*
X0250629Y0517165D01*
X0250534Y0517035D01*
X0250436Y0516907D01*
X0250335Y0516782D01*
X0250231Y0516660D01*
X0250124Y0516540D01*
X0250014Y0516423D01*
X0249901Y0516308D01*
X0249785Y0516197D01*
X0249666Y0516088D01*
X0249545Y0515983D01*
X0249421Y0515880D01*
X0249295Y0515780D01*
X0249167Y0515684D01*
X0249036Y0515591D01*
X0248902Y0515501D01*
X0248767Y0515414D01*
X0248629Y0515331D01*
X0248490Y0515251D01*
X0248348Y0515175D01*
X0248205Y0515102D01*
X0248060Y0515033D01*
X0247913Y0514967D01*
X0247765Y0514905D01*
X0247615Y0514847D01*
X0247464Y0514792D01*
X0247311Y0514741D01*
X0247157Y0514694D01*
X0247002Y0514651D01*
X0246846Y0514612D01*
X0246690Y0514576D01*
X0246532Y0514545D01*
X0246374Y0514517D01*
X0246215Y0514493D01*
X0246055Y0514473D01*
X0245895Y0514457D01*
X0245735Y0514445D01*
X0245574Y0514437D01*
X0245413Y0514433D01*
X0245253Y0514433D01*
X0245092Y0514437D01*
X0244931Y0514445D01*
X0244771Y0514457D01*
X0244611Y0514473D01*
X0244451Y0514493D01*
X0244292Y0514517D01*
X0244134Y0514545D01*
X0243976Y0514576D01*
X0243820Y0514612D01*
X0243664Y0514651D01*
X0243509Y0514694D01*
X0243355Y0514741D01*
X0243202Y0514792D01*
X0243051Y0514847D01*
X0242901Y0514905D01*
X0242753Y0514967D01*
X0242606Y0515033D01*
X0242461Y0515102D01*
X0242318Y0515175D01*
X0242176Y0515251D01*
X0242037Y0515331D01*
X0241899Y0515414D01*
X0241764Y0515501D01*
X0241630Y0515591D01*
X0241499Y0515684D01*
X0241371Y0515780D01*
X0241245Y0515880D01*
X0241121Y0515983D01*
X0241000Y0516088D01*
X0240881Y0516197D01*
X0240765Y0516308D01*
X0240652Y0516423D01*
X0240542Y0516540D01*
X0240435Y0516660D01*
X0240331Y0516782D01*
X0240230Y0516907D01*
X0240132Y0517035D01*
X0240037Y0517165D01*
X0239945Y0517297D01*
X0239857Y0517431D01*
X0239772Y0517568D01*
X0239690Y0517706D01*
X0239612Y0517847D01*
X0239538Y0517989D01*
X0239467Y0518133D01*
X0239399Y0518279D01*
X0239336Y0518427D01*
X0239275Y0518576D01*
X0239219Y0518727D01*
X0239166Y0518879D01*
X0239117Y0519032D01*
X0239072Y0519186D01*
X0239031Y0519341D01*
X0238993Y0519498D01*
X0238960Y0519655D01*
X0238930Y0519813D01*
X0238904Y0519972D01*
X0238883Y0520131D01*
X0238865Y0520291D01*
X0238851Y0520451D01*
X0238841Y0520612D01*
X0238835Y0520772D01*
X0238833Y0520933D01*
X0318833Y0520933D02*
X0318835Y0521094D01*
X0318841Y0521254D01*
X0318851Y0521415D01*
X0318865Y0521575D01*
X0318883Y0521735D01*
X0318904Y0521894D01*
X0318930Y0522053D01*
X0318960Y0522211D01*
X0318993Y0522368D01*
X0319031Y0522525D01*
X0319072Y0522680D01*
X0319117Y0522834D01*
X0319166Y0522987D01*
X0319219Y0523139D01*
X0319275Y0523290D01*
X0319336Y0523439D01*
X0319399Y0523587D01*
X0319467Y0523733D01*
X0319538Y0523877D01*
X0319612Y0524019D01*
X0319690Y0524160D01*
X0319772Y0524298D01*
X0319857Y0524435D01*
X0319945Y0524569D01*
X0320037Y0524701D01*
X0320132Y0524831D01*
X0320230Y0524959D01*
X0320331Y0525084D01*
X0320435Y0525206D01*
X0320542Y0525326D01*
X0320652Y0525443D01*
X0320765Y0525558D01*
X0320881Y0525669D01*
X0321000Y0525778D01*
X0321121Y0525883D01*
X0321245Y0525986D01*
X0321371Y0526086D01*
X0321499Y0526182D01*
X0321630Y0526275D01*
X0321764Y0526365D01*
X0321899Y0526452D01*
X0322037Y0526535D01*
X0322176Y0526615D01*
X0322318Y0526691D01*
X0322461Y0526764D01*
X0322606Y0526833D01*
X0322753Y0526899D01*
X0322901Y0526961D01*
X0323051Y0527019D01*
X0323202Y0527074D01*
X0323355Y0527125D01*
X0323509Y0527172D01*
X0323664Y0527215D01*
X0323820Y0527254D01*
X0323976Y0527290D01*
X0324134Y0527321D01*
X0324292Y0527349D01*
X0324451Y0527373D01*
X0324611Y0527393D01*
X0324771Y0527409D01*
X0324931Y0527421D01*
X0325092Y0527429D01*
X0325253Y0527433D01*
X0325413Y0527433D01*
X0325574Y0527429D01*
X0325735Y0527421D01*
X0325895Y0527409D01*
X0326055Y0527393D01*
X0326215Y0527373D01*
X0326374Y0527349D01*
X0326532Y0527321D01*
X0326690Y0527290D01*
X0326846Y0527254D01*
X0327002Y0527215D01*
X0327157Y0527172D01*
X0327311Y0527125D01*
X0327464Y0527074D01*
X0327615Y0527019D01*
X0327765Y0526961D01*
X0327913Y0526899D01*
X0328060Y0526833D01*
X0328205Y0526764D01*
X0328348Y0526691D01*
X0328490Y0526615D01*
X0328629Y0526535D01*
X0328767Y0526452D01*
X0328902Y0526365D01*
X0329036Y0526275D01*
X0329167Y0526182D01*
X0329295Y0526086D01*
X0329421Y0525986D01*
X0329545Y0525883D01*
X0329666Y0525778D01*
X0329785Y0525669D01*
X0329901Y0525558D01*
X0330014Y0525443D01*
X0330124Y0525326D01*
X0330231Y0525206D01*
X0330335Y0525084D01*
X0330436Y0524959D01*
X0330534Y0524831D01*
X0330629Y0524701D01*
X0330721Y0524569D01*
X0330809Y0524435D01*
X0330894Y0524298D01*
X0330976Y0524160D01*
X0331054Y0524019D01*
X0331128Y0523877D01*
X0331199Y0523733D01*
X0331267Y0523587D01*
X0331330Y0523439D01*
X0331391Y0523290D01*
X0331447Y0523139D01*
X0331500Y0522987D01*
X0331549Y0522834D01*
X0331594Y0522680D01*
X0331635Y0522525D01*
X0331673Y0522368D01*
X0331706Y0522211D01*
X0331736Y0522053D01*
X0331762Y0521894D01*
X0331783Y0521735D01*
X0331801Y0521575D01*
X0331815Y0521415D01*
X0331825Y0521254D01*
X0331831Y0521094D01*
X0331833Y0520933D01*
X0331831Y0520772D01*
X0331825Y0520612D01*
X0331815Y0520451D01*
X0331801Y0520291D01*
X0331783Y0520131D01*
X0331762Y0519972D01*
X0331736Y0519813D01*
X0331706Y0519655D01*
X0331673Y0519498D01*
X0331635Y0519341D01*
X0331594Y0519186D01*
X0331549Y0519032D01*
X0331500Y0518879D01*
X0331447Y0518727D01*
X0331391Y0518576D01*
X0331330Y0518427D01*
X0331267Y0518279D01*
X0331199Y0518133D01*
X0331128Y0517989D01*
X0331054Y0517847D01*
X0330976Y0517706D01*
X0330894Y0517568D01*
X0330809Y0517431D01*
X0330721Y0517297D01*
X0330629Y0517165D01*
X0330534Y0517035D01*
X0330436Y0516907D01*
X0330335Y0516782D01*
X0330231Y0516660D01*
X0330124Y0516540D01*
X0330014Y0516423D01*
X0329901Y0516308D01*
X0329785Y0516197D01*
X0329666Y0516088D01*
X0329545Y0515983D01*
X0329421Y0515880D01*
X0329295Y0515780D01*
X0329167Y0515684D01*
X0329036Y0515591D01*
X0328902Y0515501D01*
X0328767Y0515414D01*
X0328629Y0515331D01*
X0328490Y0515251D01*
X0328348Y0515175D01*
X0328205Y0515102D01*
X0328060Y0515033D01*
X0327913Y0514967D01*
X0327765Y0514905D01*
X0327615Y0514847D01*
X0327464Y0514792D01*
X0327311Y0514741D01*
X0327157Y0514694D01*
X0327002Y0514651D01*
X0326846Y0514612D01*
X0326690Y0514576D01*
X0326532Y0514545D01*
X0326374Y0514517D01*
X0326215Y0514493D01*
X0326055Y0514473D01*
X0325895Y0514457D01*
X0325735Y0514445D01*
X0325574Y0514437D01*
X0325413Y0514433D01*
X0325253Y0514433D01*
X0325092Y0514437D01*
X0324931Y0514445D01*
X0324771Y0514457D01*
X0324611Y0514473D01*
X0324451Y0514493D01*
X0324292Y0514517D01*
X0324134Y0514545D01*
X0323976Y0514576D01*
X0323820Y0514612D01*
X0323664Y0514651D01*
X0323509Y0514694D01*
X0323355Y0514741D01*
X0323202Y0514792D01*
X0323051Y0514847D01*
X0322901Y0514905D01*
X0322753Y0514967D01*
X0322606Y0515033D01*
X0322461Y0515102D01*
X0322318Y0515175D01*
X0322176Y0515251D01*
X0322037Y0515331D01*
X0321899Y0515414D01*
X0321764Y0515501D01*
X0321630Y0515591D01*
X0321499Y0515684D01*
X0321371Y0515780D01*
X0321245Y0515880D01*
X0321121Y0515983D01*
X0321000Y0516088D01*
X0320881Y0516197D01*
X0320765Y0516308D01*
X0320652Y0516423D01*
X0320542Y0516540D01*
X0320435Y0516660D01*
X0320331Y0516782D01*
X0320230Y0516907D01*
X0320132Y0517035D01*
X0320037Y0517165D01*
X0319945Y0517297D01*
X0319857Y0517431D01*
X0319772Y0517568D01*
X0319690Y0517706D01*
X0319612Y0517847D01*
X0319538Y0517989D01*
X0319467Y0518133D01*
X0319399Y0518279D01*
X0319336Y0518427D01*
X0319275Y0518576D01*
X0319219Y0518727D01*
X0319166Y0518879D01*
X0319117Y0519032D01*
X0319072Y0519186D01*
X0319031Y0519341D01*
X0318993Y0519498D01*
X0318960Y0519655D01*
X0318930Y0519813D01*
X0318904Y0519972D01*
X0318883Y0520131D01*
X0318865Y0520291D01*
X0318851Y0520451D01*
X0318841Y0520612D01*
X0318835Y0520772D01*
X0318833Y0520933D01*
X0340833Y0520933D02*
X0340835Y0521094D01*
X0340841Y0521254D01*
X0340851Y0521415D01*
X0340865Y0521575D01*
X0340883Y0521735D01*
X0340904Y0521894D01*
X0340930Y0522053D01*
X0340960Y0522211D01*
X0340993Y0522368D01*
X0341031Y0522525D01*
X0341072Y0522680D01*
X0341117Y0522834D01*
X0341166Y0522987D01*
X0341219Y0523139D01*
X0341275Y0523290D01*
X0341336Y0523439D01*
X0341399Y0523587D01*
X0341467Y0523733D01*
X0341538Y0523877D01*
X0341612Y0524019D01*
X0341690Y0524160D01*
X0341772Y0524298D01*
X0341857Y0524435D01*
X0341945Y0524569D01*
X0342037Y0524701D01*
X0342132Y0524831D01*
X0342230Y0524959D01*
X0342331Y0525084D01*
X0342435Y0525206D01*
X0342542Y0525326D01*
X0342652Y0525443D01*
X0342765Y0525558D01*
X0342881Y0525669D01*
X0343000Y0525778D01*
X0343121Y0525883D01*
X0343245Y0525986D01*
X0343371Y0526086D01*
X0343499Y0526182D01*
X0343630Y0526275D01*
X0343764Y0526365D01*
X0343899Y0526452D01*
X0344037Y0526535D01*
X0344176Y0526615D01*
X0344318Y0526691D01*
X0344461Y0526764D01*
X0344606Y0526833D01*
X0344753Y0526899D01*
X0344901Y0526961D01*
X0345051Y0527019D01*
X0345202Y0527074D01*
X0345355Y0527125D01*
X0345509Y0527172D01*
X0345664Y0527215D01*
X0345820Y0527254D01*
X0345976Y0527290D01*
X0346134Y0527321D01*
X0346292Y0527349D01*
X0346451Y0527373D01*
X0346611Y0527393D01*
X0346771Y0527409D01*
X0346931Y0527421D01*
X0347092Y0527429D01*
X0347253Y0527433D01*
X0347413Y0527433D01*
X0347574Y0527429D01*
X0347735Y0527421D01*
X0347895Y0527409D01*
X0348055Y0527393D01*
X0348215Y0527373D01*
X0348374Y0527349D01*
X0348532Y0527321D01*
X0348690Y0527290D01*
X0348846Y0527254D01*
X0349002Y0527215D01*
X0349157Y0527172D01*
X0349311Y0527125D01*
X0349464Y0527074D01*
X0349615Y0527019D01*
X0349765Y0526961D01*
X0349913Y0526899D01*
X0350060Y0526833D01*
X0350205Y0526764D01*
X0350348Y0526691D01*
X0350490Y0526615D01*
X0350629Y0526535D01*
X0350767Y0526452D01*
X0350902Y0526365D01*
X0351036Y0526275D01*
X0351167Y0526182D01*
X0351295Y0526086D01*
X0351421Y0525986D01*
X0351545Y0525883D01*
X0351666Y0525778D01*
X0351785Y0525669D01*
X0351901Y0525558D01*
X0352014Y0525443D01*
X0352124Y0525326D01*
X0352231Y0525206D01*
X0352335Y0525084D01*
X0352436Y0524959D01*
X0352534Y0524831D01*
X0352629Y0524701D01*
X0352721Y0524569D01*
X0352809Y0524435D01*
X0352894Y0524298D01*
X0352976Y0524160D01*
X0353054Y0524019D01*
X0353128Y0523877D01*
X0353199Y0523733D01*
X0353267Y0523587D01*
X0353330Y0523439D01*
X0353391Y0523290D01*
X0353447Y0523139D01*
X0353500Y0522987D01*
X0353549Y0522834D01*
X0353594Y0522680D01*
X0353635Y0522525D01*
X0353673Y0522368D01*
X0353706Y0522211D01*
X0353736Y0522053D01*
X0353762Y0521894D01*
X0353783Y0521735D01*
X0353801Y0521575D01*
X0353815Y0521415D01*
X0353825Y0521254D01*
X0353831Y0521094D01*
X0353833Y0520933D01*
X0353831Y0520772D01*
X0353825Y0520612D01*
X0353815Y0520451D01*
X0353801Y0520291D01*
X0353783Y0520131D01*
X0353762Y0519972D01*
X0353736Y0519813D01*
X0353706Y0519655D01*
X0353673Y0519498D01*
X0353635Y0519341D01*
X0353594Y0519186D01*
X0353549Y0519032D01*
X0353500Y0518879D01*
X0353447Y0518727D01*
X0353391Y0518576D01*
X0353330Y0518427D01*
X0353267Y0518279D01*
X0353199Y0518133D01*
X0353128Y0517989D01*
X0353054Y0517847D01*
X0352976Y0517706D01*
X0352894Y0517568D01*
X0352809Y0517431D01*
X0352721Y0517297D01*
X0352629Y0517165D01*
X0352534Y0517035D01*
X0352436Y0516907D01*
X0352335Y0516782D01*
X0352231Y0516660D01*
X0352124Y0516540D01*
X0352014Y0516423D01*
X0351901Y0516308D01*
X0351785Y0516197D01*
X0351666Y0516088D01*
X0351545Y0515983D01*
X0351421Y0515880D01*
X0351295Y0515780D01*
X0351167Y0515684D01*
X0351036Y0515591D01*
X0350902Y0515501D01*
X0350767Y0515414D01*
X0350629Y0515331D01*
X0350490Y0515251D01*
X0350348Y0515175D01*
X0350205Y0515102D01*
X0350060Y0515033D01*
X0349913Y0514967D01*
X0349765Y0514905D01*
X0349615Y0514847D01*
X0349464Y0514792D01*
X0349311Y0514741D01*
X0349157Y0514694D01*
X0349002Y0514651D01*
X0348846Y0514612D01*
X0348690Y0514576D01*
X0348532Y0514545D01*
X0348374Y0514517D01*
X0348215Y0514493D01*
X0348055Y0514473D01*
X0347895Y0514457D01*
X0347735Y0514445D01*
X0347574Y0514437D01*
X0347413Y0514433D01*
X0347253Y0514433D01*
X0347092Y0514437D01*
X0346931Y0514445D01*
X0346771Y0514457D01*
X0346611Y0514473D01*
X0346451Y0514493D01*
X0346292Y0514517D01*
X0346134Y0514545D01*
X0345976Y0514576D01*
X0345820Y0514612D01*
X0345664Y0514651D01*
X0345509Y0514694D01*
X0345355Y0514741D01*
X0345202Y0514792D01*
X0345051Y0514847D01*
X0344901Y0514905D01*
X0344753Y0514967D01*
X0344606Y0515033D01*
X0344461Y0515102D01*
X0344318Y0515175D01*
X0344176Y0515251D01*
X0344037Y0515331D01*
X0343899Y0515414D01*
X0343764Y0515501D01*
X0343630Y0515591D01*
X0343499Y0515684D01*
X0343371Y0515780D01*
X0343245Y0515880D01*
X0343121Y0515983D01*
X0343000Y0516088D01*
X0342881Y0516197D01*
X0342765Y0516308D01*
X0342652Y0516423D01*
X0342542Y0516540D01*
X0342435Y0516660D01*
X0342331Y0516782D01*
X0342230Y0516907D01*
X0342132Y0517035D01*
X0342037Y0517165D01*
X0341945Y0517297D01*
X0341857Y0517431D01*
X0341772Y0517568D01*
X0341690Y0517706D01*
X0341612Y0517847D01*
X0341538Y0517989D01*
X0341467Y0518133D01*
X0341399Y0518279D01*
X0341336Y0518427D01*
X0341275Y0518576D01*
X0341219Y0518727D01*
X0341166Y0518879D01*
X0341117Y0519032D01*
X0341072Y0519186D01*
X0341031Y0519341D01*
X0340993Y0519498D01*
X0340960Y0519655D01*
X0340930Y0519813D01*
X0340904Y0519972D01*
X0340883Y0520131D01*
X0340865Y0520291D01*
X0340851Y0520451D01*
X0340841Y0520612D01*
X0340835Y0520772D01*
X0340833Y0520933D01*
X0340833Y0318933D02*
X0340835Y0319094D01*
X0340841Y0319254D01*
X0340851Y0319415D01*
X0340865Y0319575D01*
X0340883Y0319735D01*
X0340904Y0319894D01*
X0340930Y0320053D01*
X0340960Y0320211D01*
X0340993Y0320368D01*
X0341031Y0320525D01*
X0341072Y0320680D01*
X0341117Y0320834D01*
X0341166Y0320987D01*
X0341219Y0321139D01*
X0341275Y0321290D01*
X0341336Y0321439D01*
X0341399Y0321587D01*
X0341467Y0321733D01*
X0341538Y0321877D01*
X0341612Y0322019D01*
X0341690Y0322160D01*
X0341772Y0322298D01*
X0341857Y0322435D01*
X0341945Y0322569D01*
X0342037Y0322701D01*
X0342132Y0322831D01*
X0342230Y0322959D01*
X0342331Y0323084D01*
X0342435Y0323206D01*
X0342542Y0323326D01*
X0342652Y0323443D01*
X0342765Y0323558D01*
X0342881Y0323669D01*
X0343000Y0323778D01*
X0343121Y0323883D01*
X0343245Y0323986D01*
X0343371Y0324086D01*
X0343499Y0324182D01*
X0343630Y0324275D01*
X0343764Y0324365D01*
X0343899Y0324452D01*
X0344037Y0324535D01*
X0344176Y0324615D01*
X0344318Y0324691D01*
X0344461Y0324764D01*
X0344606Y0324833D01*
X0344753Y0324899D01*
X0344901Y0324961D01*
X0345051Y0325019D01*
X0345202Y0325074D01*
X0345355Y0325125D01*
X0345509Y0325172D01*
X0345664Y0325215D01*
X0345820Y0325254D01*
X0345976Y0325290D01*
X0346134Y0325321D01*
X0346292Y0325349D01*
X0346451Y0325373D01*
X0346611Y0325393D01*
X0346771Y0325409D01*
X0346931Y0325421D01*
X0347092Y0325429D01*
X0347253Y0325433D01*
X0347413Y0325433D01*
X0347574Y0325429D01*
X0347735Y0325421D01*
X0347895Y0325409D01*
X0348055Y0325393D01*
X0348215Y0325373D01*
X0348374Y0325349D01*
X0348532Y0325321D01*
X0348690Y0325290D01*
X0348846Y0325254D01*
X0349002Y0325215D01*
X0349157Y0325172D01*
X0349311Y0325125D01*
X0349464Y0325074D01*
X0349615Y0325019D01*
X0349765Y0324961D01*
X0349913Y0324899D01*
X0350060Y0324833D01*
X0350205Y0324764D01*
X0350348Y0324691D01*
X0350490Y0324615D01*
X0350629Y0324535D01*
X0350767Y0324452D01*
X0350902Y0324365D01*
X0351036Y0324275D01*
X0351167Y0324182D01*
X0351295Y0324086D01*
X0351421Y0323986D01*
X0351545Y0323883D01*
X0351666Y0323778D01*
X0351785Y0323669D01*
X0351901Y0323558D01*
X0352014Y0323443D01*
X0352124Y0323326D01*
X0352231Y0323206D01*
X0352335Y0323084D01*
X0352436Y0322959D01*
X0352534Y0322831D01*
X0352629Y0322701D01*
X0352721Y0322569D01*
X0352809Y0322435D01*
X0352894Y0322298D01*
X0352976Y0322160D01*
X0353054Y0322019D01*
X0353128Y0321877D01*
X0353199Y0321733D01*
X0353267Y0321587D01*
X0353330Y0321439D01*
X0353391Y0321290D01*
X0353447Y0321139D01*
X0353500Y0320987D01*
X0353549Y0320834D01*
X0353594Y0320680D01*
X0353635Y0320525D01*
X0353673Y0320368D01*
X0353706Y0320211D01*
X0353736Y0320053D01*
X0353762Y0319894D01*
X0353783Y0319735D01*
X0353801Y0319575D01*
X0353815Y0319415D01*
X0353825Y0319254D01*
X0353831Y0319094D01*
X0353833Y0318933D01*
X0353831Y0318772D01*
X0353825Y0318612D01*
X0353815Y0318451D01*
X0353801Y0318291D01*
X0353783Y0318131D01*
X0353762Y0317972D01*
X0353736Y0317813D01*
X0353706Y0317655D01*
X0353673Y0317498D01*
X0353635Y0317341D01*
X0353594Y0317186D01*
X0353549Y0317032D01*
X0353500Y0316879D01*
X0353447Y0316727D01*
X0353391Y0316576D01*
X0353330Y0316427D01*
X0353267Y0316279D01*
X0353199Y0316133D01*
X0353128Y0315989D01*
X0353054Y0315847D01*
X0352976Y0315706D01*
X0352894Y0315568D01*
X0352809Y0315431D01*
X0352721Y0315297D01*
X0352629Y0315165D01*
X0352534Y0315035D01*
X0352436Y0314907D01*
X0352335Y0314782D01*
X0352231Y0314660D01*
X0352124Y0314540D01*
X0352014Y0314423D01*
X0351901Y0314308D01*
X0351785Y0314197D01*
X0351666Y0314088D01*
X0351545Y0313983D01*
X0351421Y0313880D01*
X0351295Y0313780D01*
X0351167Y0313684D01*
X0351036Y0313591D01*
X0350902Y0313501D01*
X0350767Y0313414D01*
X0350629Y0313331D01*
X0350490Y0313251D01*
X0350348Y0313175D01*
X0350205Y0313102D01*
X0350060Y0313033D01*
X0349913Y0312967D01*
X0349765Y0312905D01*
X0349615Y0312847D01*
X0349464Y0312792D01*
X0349311Y0312741D01*
X0349157Y0312694D01*
X0349002Y0312651D01*
X0348846Y0312612D01*
X0348690Y0312576D01*
X0348532Y0312545D01*
X0348374Y0312517D01*
X0348215Y0312493D01*
X0348055Y0312473D01*
X0347895Y0312457D01*
X0347735Y0312445D01*
X0347574Y0312437D01*
X0347413Y0312433D01*
X0347253Y0312433D01*
X0347092Y0312437D01*
X0346931Y0312445D01*
X0346771Y0312457D01*
X0346611Y0312473D01*
X0346451Y0312493D01*
X0346292Y0312517D01*
X0346134Y0312545D01*
X0345976Y0312576D01*
X0345820Y0312612D01*
X0345664Y0312651D01*
X0345509Y0312694D01*
X0345355Y0312741D01*
X0345202Y0312792D01*
X0345051Y0312847D01*
X0344901Y0312905D01*
X0344753Y0312967D01*
X0344606Y0313033D01*
X0344461Y0313102D01*
X0344318Y0313175D01*
X0344176Y0313251D01*
X0344037Y0313331D01*
X0343899Y0313414D01*
X0343764Y0313501D01*
X0343630Y0313591D01*
X0343499Y0313684D01*
X0343371Y0313780D01*
X0343245Y0313880D01*
X0343121Y0313983D01*
X0343000Y0314088D01*
X0342881Y0314197D01*
X0342765Y0314308D01*
X0342652Y0314423D01*
X0342542Y0314540D01*
X0342435Y0314660D01*
X0342331Y0314782D01*
X0342230Y0314907D01*
X0342132Y0315035D01*
X0342037Y0315165D01*
X0341945Y0315297D01*
X0341857Y0315431D01*
X0341772Y0315568D01*
X0341690Y0315706D01*
X0341612Y0315847D01*
X0341538Y0315989D01*
X0341467Y0316133D01*
X0341399Y0316279D01*
X0341336Y0316427D01*
X0341275Y0316576D01*
X0341219Y0316727D01*
X0341166Y0316879D01*
X0341117Y0317032D01*
X0341072Y0317186D01*
X0341031Y0317341D01*
X0340993Y0317498D01*
X0340960Y0317655D01*
X0340930Y0317813D01*
X0340904Y0317972D01*
X0340883Y0318131D01*
X0340865Y0318291D01*
X0340851Y0318451D01*
X0340841Y0318612D01*
X0340835Y0318772D01*
X0340833Y0318933D01*
X0318833Y0318933D02*
X0318835Y0319094D01*
X0318841Y0319254D01*
X0318851Y0319415D01*
X0318865Y0319575D01*
X0318883Y0319735D01*
X0318904Y0319894D01*
X0318930Y0320053D01*
X0318960Y0320211D01*
X0318993Y0320368D01*
X0319031Y0320525D01*
X0319072Y0320680D01*
X0319117Y0320834D01*
X0319166Y0320987D01*
X0319219Y0321139D01*
X0319275Y0321290D01*
X0319336Y0321439D01*
X0319399Y0321587D01*
X0319467Y0321733D01*
X0319538Y0321877D01*
X0319612Y0322019D01*
X0319690Y0322160D01*
X0319772Y0322298D01*
X0319857Y0322435D01*
X0319945Y0322569D01*
X0320037Y0322701D01*
X0320132Y0322831D01*
X0320230Y0322959D01*
X0320331Y0323084D01*
X0320435Y0323206D01*
X0320542Y0323326D01*
X0320652Y0323443D01*
X0320765Y0323558D01*
X0320881Y0323669D01*
X0321000Y0323778D01*
X0321121Y0323883D01*
X0321245Y0323986D01*
X0321371Y0324086D01*
X0321499Y0324182D01*
X0321630Y0324275D01*
X0321764Y0324365D01*
X0321899Y0324452D01*
X0322037Y0324535D01*
X0322176Y0324615D01*
X0322318Y0324691D01*
X0322461Y0324764D01*
X0322606Y0324833D01*
X0322753Y0324899D01*
X0322901Y0324961D01*
X0323051Y0325019D01*
X0323202Y0325074D01*
X0323355Y0325125D01*
X0323509Y0325172D01*
X0323664Y0325215D01*
X0323820Y0325254D01*
X0323976Y0325290D01*
X0324134Y0325321D01*
X0324292Y0325349D01*
X0324451Y0325373D01*
X0324611Y0325393D01*
X0324771Y0325409D01*
X0324931Y0325421D01*
X0325092Y0325429D01*
X0325253Y0325433D01*
X0325413Y0325433D01*
X0325574Y0325429D01*
X0325735Y0325421D01*
X0325895Y0325409D01*
X0326055Y0325393D01*
X0326215Y0325373D01*
X0326374Y0325349D01*
X0326532Y0325321D01*
X0326690Y0325290D01*
X0326846Y0325254D01*
X0327002Y0325215D01*
X0327157Y0325172D01*
X0327311Y0325125D01*
X0327464Y0325074D01*
X0327615Y0325019D01*
X0327765Y0324961D01*
X0327913Y0324899D01*
X0328060Y0324833D01*
X0328205Y0324764D01*
X0328348Y0324691D01*
X0328490Y0324615D01*
X0328629Y0324535D01*
X0328767Y0324452D01*
X0328902Y0324365D01*
X0329036Y0324275D01*
X0329167Y0324182D01*
X0329295Y0324086D01*
X0329421Y0323986D01*
X0329545Y0323883D01*
X0329666Y0323778D01*
X0329785Y0323669D01*
X0329901Y0323558D01*
X0330014Y0323443D01*
X0330124Y0323326D01*
X0330231Y0323206D01*
X0330335Y0323084D01*
X0330436Y0322959D01*
X0330534Y0322831D01*
X0330629Y0322701D01*
X0330721Y0322569D01*
X0330809Y0322435D01*
X0330894Y0322298D01*
X0330976Y0322160D01*
X0331054Y0322019D01*
X0331128Y0321877D01*
X0331199Y0321733D01*
X0331267Y0321587D01*
X0331330Y0321439D01*
X0331391Y0321290D01*
X0331447Y0321139D01*
X0331500Y0320987D01*
X0331549Y0320834D01*
X0331594Y0320680D01*
X0331635Y0320525D01*
X0331673Y0320368D01*
X0331706Y0320211D01*
X0331736Y0320053D01*
X0331762Y0319894D01*
X0331783Y0319735D01*
X0331801Y0319575D01*
X0331815Y0319415D01*
X0331825Y0319254D01*
X0331831Y0319094D01*
X0331833Y0318933D01*
X0331831Y0318772D01*
X0331825Y0318612D01*
X0331815Y0318451D01*
X0331801Y0318291D01*
X0331783Y0318131D01*
X0331762Y0317972D01*
X0331736Y0317813D01*
X0331706Y0317655D01*
X0331673Y0317498D01*
X0331635Y0317341D01*
X0331594Y0317186D01*
X0331549Y0317032D01*
X0331500Y0316879D01*
X0331447Y0316727D01*
X0331391Y0316576D01*
X0331330Y0316427D01*
X0331267Y0316279D01*
X0331199Y0316133D01*
X0331128Y0315989D01*
X0331054Y0315847D01*
X0330976Y0315706D01*
X0330894Y0315568D01*
X0330809Y0315431D01*
X0330721Y0315297D01*
X0330629Y0315165D01*
X0330534Y0315035D01*
X0330436Y0314907D01*
X0330335Y0314782D01*
X0330231Y0314660D01*
X0330124Y0314540D01*
X0330014Y0314423D01*
X0329901Y0314308D01*
X0329785Y0314197D01*
X0329666Y0314088D01*
X0329545Y0313983D01*
X0329421Y0313880D01*
X0329295Y0313780D01*
X0329167Y0313684D01*
X0329036Y0313591D01*
X0328902Y0313501D01*
X0328767Y0313414D01*
X0328629Y0313331D01*
X0328490Y0313251D01*
X0328348Y0313175D01*
X0328205Y0313102D01*
X0328060Y0313033D01*
X0327913Y0312967D01*
X0327765Y0312905D01*
X0327615Y0312847D01*
X0327464Y0312792D01*
X0327311Y0312741D01*
X0327157Y0312694D01*
X0327002Y0312651D01*
X0326846Y0312612D01*
X0326690Y0312576D01*
X0326532Y0312545D01*
X0326374Y0312517D01*
X0326215Y0312493D01*
X0326055Y0312473D01*
X0325895Y0312457D01*
X0325735Y0312445D01*
X0325574Y0312437D01*
X0325413Y0312433D01*
X0325253Y0312433D01*
X0325092Y0312437D01*
X0324931Y0312445D01*
X0324771Y0312457D01*
X0324611Y0312473D01*
X0324451Y0312493D01*
X0324292Y0312517D01*
X0324134Y0312545D01*
X0323976Y0312576D01*
X0323820Y0312612D01*
X0323664Y0312651D01*
X0323509Y0312694D01*
X0323355Y0312741D01*
X0323202Y0312792D01*
X0323051Y0312847D01*
X0322901Y0312905D01*
X0322753Y0312967D01*
X0322606Y0313033D01*
X0322461Y0313102D01*
X0322318Y0313175D01*
X0322176Y0313251D01*
X0322037Y0313331D01*
X0321899Y0313414D01*
X0321764Y0313501D01*
X0321630Y0313591D01*
X0321499Y0313684D01*
X0321371Y0313780D01*
X0321245Y0313880D01*
X0321121Y0313983D01*
X0321000Y0314088D01*
X0320881Y0314197D01*
X0320765Y0314308D01*
X0320652Y0314423D01*
X0320542Y0314540D01*
X0320435Y0314660D01*
X0320331Y0314782D01*
X0320230Y0314907D01*
X0320132Y0315035D01*
X0320037Y0315165D01*
X0319945Y0315297D01*
X0319857Y0315431D01*
X0319772Y0315568D01*
X0319690Y0315706D01*
X0319612Y0315847D01*
X0319538Y0315989D01*
X0319467Y0316133D01*
X0319399Y0316279D01*
X0319336Y0316427D01*
X0319275Y0316576D01*
X0319219Y0316727D01*
X0319166Y0316879D01*
X0319117Y0317032D01*
X0319072Y0317186D01*
X0319031Y0317341D01*
X0318993Y0317498D01*
X0318960Y0317655D01*
X0318930Y0317813D01*
X0318904Y0317972D01*
X0318883Y0318131D01*
X0318865Y0318291D01*
X0318851Y0318451D01*
X0318841Y0318612D01*
X0318835Y0318772D01*
X0318833Y0318933D01*
X0238833Y0318933D02*
X0238835Y0319094D01*
X0238841Y0319254D01*
X0238851Y0319415D01*
X0238865Y0319575D01*
X0238883Y0319735D01*
X0238904Y0319894D01*
X0238930Y0320053D01*
X0238960Y0320211D01*
X0238993Y0320368D01*
X0239031Y0320525D01*
X0239072Y0320680D01*
X0239117Y0320834D01*
X0239166Y0320987D01*
X0239219Y0321139D01*
X0239275Y0321290D01*
X0239336Y0321439D01*
X0239399Y0321587D01*
X0239467Y0321733D01*
X0239538Y0321877D01*
X0239612Y0322019D01*
X0239690Y0322160D01*
X0239772Y0322298D01*
X0239857Y0322435D01*
X0239945Y0322569D01*
X0240037Y0322701D01*
X0240132Y0322831D01*
X0240230Y0322959D01*
X0240331Y0323084D01*
X0240435Y0323206D01*
X0240542Y0323326D01*
X0240652Y0323443D01*
X0240765Y0323558D01*
X0240881Y0323669D01*
X0241000Y0323778D01*
X0241121Y0323883D01*
X0241245Y0323986D01*
X0241371Y0324086D01*
X0241499Y0324182D01*
X0241630Y0324275D01*
X0241764Y0324365D01*
X0241899Y0324452D01*
X0242037Y0324535D01*
X0242176Y0324615D01*
X0242318Y0324691D01*
X0242461Y0324764D01*
X0242606Y0324833D01*
X0242753Y0324899D01*
X0242901Y0324961D01*
X0243051Y0325019D01*
X0243202Y0325074D01*
X0243355Y0325125D01*
X0243509Y0325172D01*
X0243664Y0325215D01*
X0243820Y0325254D01*
X0243976Y0325290D01*
X0244134Y0325321D01*
X0244292Y0325349D01*
X0244451Y0325373D01*
X0244611Y0325393D01*
X0244771Y0325409D01*
X0244931Y0325421D01*
X0245092Y0325429D01*
X0245253Y0325433D01*
X0245413Y0325433D01*
X0245574Y0325429D01*
X0245735Y0325421D01*
X0245895Y0325409D01*
X0246055Y0325393D01*
X0246215Y0325373D01*
X0246374Y0325349D01*
X0246532Y0325321D01*
X0246690Y0325290D01*
X0246846Y0325254D01*
X0247002Y0325215D01*
X0247157Y0325172D01*
X0247311Y0325125D01*
X0247464Y0325074D01*
X0247615Y0325019D01*
X0247765Y0324961D01*
X0247913Y0324899D01*
X0248060Y0324833D01*
X0248205Y0324764D01*
X0248348Y0324691D01*
X0248490Y0324615D01*
X0248629Y0324535D01*
X0248767Y0324452D01*
X0248902Y0324365D01*
X0249036Y0324275D01*
X0249167Y0324182D01*
X0249295Y0324086D01*
X0249421Y0323986D01*
X0249545Y0323883D01*
X0249666Y0323778D01*
X0249785Y0323669D01*
X0249901Y0323558D01*
X0250014Y0323443D01*
X0250124Y0323326D01*
X0250231Y0323206D01*
X0250335Y0323084D01*
X0250436Y0322959D01*
X0250534Y0322831D01*
X0250629Y0322701D01*
X0250721Y0322569D01*
X0250809Y0322435D01*
X0250894Y0322298D01*
X0250976Y0322160D01*
X0251054Y0322019D01*
X0251128Y0321877D01*
X0251199Y0321733D01*
X0251267Y0321587D01*
X0251330Y0321439D01*
X0251391Y0321290D01*
X0251447Y0321139D01*
X0251500Y0320987D01*
X0251549Y0320834D01*
X0251594Y0320680D01*
X0251635Y0320525D01*
X0251673Y0320368D01*
X0251706Y0320211D01*
X0251736Y0320053D01*
X0251762Y0319894D01*
X0251783Y0319735D01*
X0251801Y0319575D01*
X0251815Y0319415D01*
X0251825Y0319254D01*
X0251831Y0319094D01*
X0251833Y0318933D01*
X0251831Y0318772D01*
X0251825Y0318612D01*
X0251815Y0318451D01*
X0251801Y0318291D01*
X0251783Y0318131D01*
X0251762Y0317972D01*
X0251736Y0317813D01*
X0251706Y0317655D01*
X0251673Y0317498D01*
X0251635Y0317341D01*
X0251594Y0317186D01*
X0251549Y0317032D01*
X0251500Y0316879D01*
X0251447Y0316727D01*
X0251391Y0316576D01*
X0251330Y0316427D01*
X0251267Y0316279D01*
X0251199Y0316133D01*
X0251128Y0315989D01*
X0251054Y0315847D01*
X0250976Y0315706D01*
X0250894Y0315568D01*
X0250809Y0315431D01*
X0250721Y0315297D01*
X0250629Y0315165D01*
X0250534Y0315035D01*
X0250436Y0314907D01*
X0250335Y0314782D01*
X0250231Y0314660D01*
X0250124Y0314540D01*
X0250014Y0314423D01*
X0249901Y0314308D01*
X0249785Y0314197D01*
X0249666Y0314088D01*
X0249545Y0313983D01*
X0249421Y0313880D01*
X0249295Y0313780D01*
X0249167Y0313684D01*
X0249036Y0313591D01*
X0248902Y0313501D01*
X0248767Y0313414D01*
X0248629Y0313331D01*
X0248490Y0313251D01*
X0248348Y0313175D01*
X0248205Y0313102D01*
X0248060Y0313033D01*
X0247913Y0312967D01*
X0247765Y0312905D01*
X0247615Y0312847D01*
X0247464Y0312792D01*
X0247311Y0312741D01*
X0247157Y0312694D01*
X0247002Y0312651D01*
X0246846Y0312612D01*
X0246690Y0312576D01*
X0246532Y0312545D01*
X0246374Y0312517D01*
X0246215Y0312493D01*
X0246055Y0312473D01*
X0245895Y0312457D01*
X0245735Y0312445D01*
X0245574Y0312437D01*
X0245413Y0312433D01*
X0245253Y0312433D01*
X0245092Y0312437D01*
X0244931Y0312445D01*
X0244771Y0312457D01*
X0244611Y0312473D01*
X0244451Y0312493D01*
X0244292Y0312517D01*
X0244134Y0312545D01*
X0243976Y0312576D01*
X0243820Y0312612D01*
X0243664Y0312651D01*
X0243509Y0312694D01*
X0243355Y0312741D01*
X0243202Y0312792D01*
X0243051Y0312847D01*
X0242901Y0312905D01*
X0242753Y0312967D01*
X0242606Y0313033D01*
X0242461Y0313102D01*
X0242318Y0313175D01*
X0242176Y0313251D01*
X0242037Y0313331D01*
X0241899Y0313414D01*
X0241764Y0313501D01*
X0241630Y0313591D01*
X0241499Y0313684D01*
X0241371Y0313780D01*
X0241245Y0313880D01*
X0241121Y0313983D01*
X0241000Y0314088D01*
X0240881Y0314197D01*
X0240765Y0314308D01*
X0240652Y0314423D01*
X0240542Y0314540D01*
X0240435Y0314660D01*
X0240331Y0314782D01*
X0240230Y0314907D01*
X0240132Y0315035D01*
X0240037Y0315165D01*
X0239945Y0315297D01*
X0239857Y0315431D01*
X0239772Y0315568D01*
X0239690Y0315706D01*
X0239612Y0315847D01*
X0239538Y0315989D01*
X0239467Y0316133D01*
X0239399Y0316279D01*
X0239336Y0316427D01*
X0239275Y0316576D01*
X0239219Y0316727D01*
X0239166Y0316879D01*
X0239117Y0317032D01*
X0239072Y0317186D01*
X0239031Y0317341D01*
X0238993Y0317498D01*
X0238960Y0317655D01*
X0238930Y0317813D01*
X0238904Y0317972D01*
X0238883Y0318131D01*
X0238865Y0318291D01*
X0238851Y0318451D01*
X0238841Y0318612D01*
X0238835Y0318772D01*
X0238833Y0318933D01*
X0216833Y0318933D02*
X0216835Y0319094D01*
X0216841Y0319254D01*
X0216851Y0319415D01*
X0216865Y0319575D01*
X0216883Y0319735D01*
X0216904Y0319894D01*
X0216930Y0320053D01*
X0216960Y0320211D01*
X0216993Y0320368D01*
X0217031Y0320525D01*
X0217072Y0320680D01*
X0217117Y0320834D01*
X0217166Y0320987D01*
X0217219Y0321139D01*
X0217275Y0321290D01*
X0217336Y0321439D01*
X0217399Y0321587D01*
X0217467Y0321733D01*
X0217538Y0321877D01*
X0217612Y0322019D01*
X0217690Y0322160D01*
X0217772Y0322298D01*
X0217857Y0322435D01*
X0217945Y0322569D01*
X0218037Y0322701D01*
X0218132Y0322831D01*
X0218230Y0322959D01*
X0218331Y0323084D01*
X0218435Y0323206D01*
X0218542Y0323326D01*
X0218652Y0323443D01*
X0218765Y0323558D01*
X0218881Y0323669D01*
X0219000Y0323778D01*
X0219121Y0323883D01*
X0219245Y0323986D01*
X0219371Y0324086D01*
X0219499Y0324182D01*
X0219630Y0324275D01*
X0219764Y0324365D01*
X0219899Y0324452D01*
X0220037Y0324535D01*
X0220176Y0324615D01*
X0220318Y0324691D01*
X0220461Y0324764D01*
X0220606Y0324833D01*
X0220753Y0324899D01*
X0220901Y0324961D01*
X0221051Y0325019D01*
X0221202Y0325074D01*
X0221355Y0325125D01*
X0221509Y0325172D01*
X0221664Y0325215D01*
X0221820Y0325254D01*
X0221976Y0325290D01*
X0222134Y0325321D01*
X0222292Y0325349D01*
X0222451Y0325373D01*
X0222611Y0325393D01*
X0222771Y0325409D01*
X0222931Y0325421D01*
X0223092Y0325429D01*
X0223253Y0325433D01*
X0223413Y0325433D01*
X0223574Y0325429D01*
X0223735Y0325421D01*
X0223895Y0325409D01*
X0224055Y0325393D01*
X0224215Y0325373D01*
X0224374Y0325349D01*
X0224532Y0325321D01*
X0224690Y0325290D01*
X0224846Y0325254D01*
X0225002Y0325215D01*
X0225157Y0325172D01*
X0225311Y0325125D01*
X0225464Y0325074D01*
X0225615Y0325019D01*
X0225765Y0324961D01*
X0225913Y0324899D01*
X0226060Y0324833D01*
X0226205Y0324764D01*
X0226348Y0324691D01*
X0226490Y0324615D01*
X0226629Y0324535D01*
X0226767Y0324452D01*
X0226902Y0324365D01*
X0227036Y0324275D01*
X0227167Y0324182D01*
X0227295Y0324086D01*
X0227421Y0323986D01*
X0227545Y0323883D01*
X0227666Y0323778D01*
X0227785Y0323669D01*
X0227901Y0323558D01*
X0228014Y0323443D01*
X0228124Y0323326D01*
X0228231Y0323206D01*
X0228335Y0323084D01*
X0228436Y0322959D01*
X0228534Y0322831D01*
X0228629Y0322701D01*
X0228721Y0322569D01*
X0228809Y0322435D01*
X0228894Y0322298D01*
X0228976Y0322160D01*
X0229054Y0322019D01*
X0229128Y0321877D01*
X0229199Y0321733D01*
X0229267Y0321587D01*
X0229330Y0321439D01*
X0229391Y0321290D01*
X0229447Y0321139D01*
X0229500Y0320987D01*
X0229549Y0320834D01*
X0229594Y0320680D01*
X0229635Y0320525D01*
X0229673Y0320368D01*
X0229706Y0320211D01*
X0229736Y0320053D01*
X0229762Y0319894D01*
X0229783Y0319735D01*
X0229801Y0319575D01*
X0229815Y0319415D01*
X0229825Y0319254D01*
X0229831Y0319094D01*
X0229833Y0318933D01*
X0229831Y0318772D01*
X0229825Y0318612D01*
X0229815Y0318451D01*
X0229801Y0318291D01*
X0229783Y0318131D01*
X0229762Y0317972D01*
X0229736Y0317813D01*
X0229706Y0317655D01*
X0229673Y0317498D01*
X0229635Y0317341D01*
X0229594Y0317186D01*
X0229549Y0317032D01*
X0229500Y0316879D01*
X0229447Y0316727D01*
X0229391Y0316576D01*
X0229330Y0316427D01*
X0229267Y0316279D01*
X0229199Y0316133D01*
X0229128Y0315989D01*
X0229054Y0315847D01*
X0228976Y0315706D01*
X0228894Y0315568D01*
X0228809Y0315431D01*
X0228721Y0315297D01*
X0228629Y0315165D01*
X0228534Y0315035D01*
X0228436Y0314907D01*
X0228335Y0314782D01*
X0228231Y0314660D01*
X0228124Y0314540D01*
X0228014Y0314423D01*
X0227901Y0314308D01*
X0227785Y0314197D01*
X0227666Y0314088D01*
X0227545Y0313983D01*
X0227421Y0313880D01*
X0227295Y0313780D01*
X0227167Y0313684D01*
X0227036Y0313591D01*
X0226902Y0313501D01*
X0226767Y0313414D01*
X0226629Y0313331D01*
X0226490Y0313251D01*
X0226348Y0313175D01*
X0226205Y0313102D01*
X0226060Y0313033D01*
X0225913Y0312967D01*
X0225765Y0312905D01*
X0225615Y0312847D01*
X0225464Y0312792D01*
X0225311Y0312741D01*
X0225157Y0312694D01*
X0225002Y0312651D01*
X0224846Y0312612D01*
X0224690Y0312576D01*
X0224532Y0312545D01*
X0224374Y0312517D01*
X0224215Y0312493D01*
X0224055Y0312473D01*
X0223895Y0312457D01*
X0223735Y0312445D01*
X0223574Y0312437D01*
X0223413Y0312433D01*
X0223253Y0312433D01*
X0223092Y0312437D01*
X0222931Y0312445D01*
X0222771Y0312457D01*
X0222611Y0312473D01*
X0222451Y0312493D01*
X0222292Y0312517D01*
X0222134Y0312545D01*
X0221976Y0312576D01*
X0221820Y0312612D01*
X0221664Y0312651D01*
X0221509Y0312694D01*
X0221355Y0312741D01*
X0221202Y0312792D01*
X0221051Y0312847D01*
X0220901Y0312905D01*
X0220753Y0312967D01*
X0220606Y0313033D01*
X0220461Y0313102D01*
X0220318Y0313175D01*
X0220176Y0313251D01*
X0220037Y0313331D01*
X0219899Y0313414D01*
X0219764Y0313501D01*
X0219630Y0313591D01*
X0219499Y0313684D01*
X0219371Y0313780D01*
X0219245Y0313880D01*
X0219121Y0313983D01*
X0219000Y0314088D01*
X0218881Y0314197D01*
X0218765Y0314308D01*
X0218652Y0314423D01*
X0218542Y0314540D01*
X0218435Y0314660D01*
X0218331Y0314782D01*
X0218230Y0314907D01*
X0218132Y0315035D01*
X0218037Y0315165D01*
X0217945Y0315297D01*
X0217857Y0315431D01*
X0217772Y0315568D01*
X0217690Y0315706D01*
X0217612Y0315847D01*
X0217538Y0315989D01*
X0217467Y0316133D01*
X0217399Y0316279D01*
X0217336Y0316427D01*
X0217275Y0316576D01*
X0217219Y0316727D01*
X0217166Y0316879D01*
X0217117Y0317032D01*
X0217072Y0317186D01*
X0217031Y0317341D01*
X0216993Y0317498D01*
X0216960Y0317655D01*
X0216930Y0317813D01*
X0216904Y0317972D01*
X0216883Y0318131D01*
X0216865Y0318291D01*
X0216851Y0318451D01*
X0216841Y0318612D01*
X0216835Y0318772D01*
X0216833Y0318933D01*
X0136833Y0318933D02*
X0136835Y0319094D01*
X0136841Y0319254D01*
X0136851Y0319415D01*
X0136865Y0319575D01*
X0136883Y0319735D01*
X0136904Y0319894D01*
X0136930Y0320053D01*
X0136960Y0320211D01*
X0136993Y0320368D01*
X0137031Y0320525D01*
X0137072Y0320680D01*
X0137117Y0320834D01*
X0137166Y0320987D01*
X0137219Y0321139D01*
X0137275Y0321290D01*
X0137336Y0321439D01*
X0137399Y0321587D01*
X0137467Y0321733D01*
X0137538Y0321877D01*
X0137612Y0322019D01*
X0137690Y0322160D01*
X0137772Y0322298D01*
X0137857Y0322435D01*
X0137945Y0322569D01*
X0138037Y0322701D01*
X0138132Y0322831D01*
X0138230Y0322959D01*
X0138331Y0323084D01*
X0138435Y0323206D01*
X0138542Y0323326D01*
X0138652Y0323443D01*
X0138765Y0323558D01*
X0138881Y0323669D01*
X0139000Y0323778D01*
X0139121Y0323883D01*
X0139245Y0323986D01*
X0139371Y0324086D01*
X0139499Y0324182D01*
X0139630Y0324275D01*
X0139764Y0324365D01*
X0139899Y0324452D01*
X0140037Y0324535D01*
X0140176Y0324615D01*
X0140318Y0324691D01*
X0140461Y0324764D01*
X0140606Y0324833D01*
X0140753Y0324899D01*
X0140901Y0324961D01*
X0141051Y0325019D01*
X0141202Y0325074D01*
X0141355Y0325125D01*
X0141509Y0325172D01*
X0141664Y0325215D01*
X0141820Y0325254D01*
X0141976Y0325290D01*
X0142134Y0325321D01*
X0142292Y0325349D01*
X0142451Y0325373D01*
X0142611Y0325393D01*
X0142771Y0325409D01*
X0142931Y0325421D01*
X0143092Y0325429D01*
X0143253Y0325433D01*
X0143413Y0325433D01*
X0143574Y0325429D01*
X0143735Y0325421D01*
X0143895Y0325409D01*
X0144055Y0325393D01*
X0144215Y0325373D01*
X0144374Y0325349D01*
X0144532Y0325321D01*
X0144690Y0325290D01*
X0144846Y0325254D01*
X0145002Y0325215D01*
X0145157Y0325172D01*
X0145311Y0325125D01*
X0145464Y0325074D01*
X0145615Y0325019D01*
X0145765Y0324961D01*
X0145913Y0324899D01*
X0146060Y0324833D01*
X0146205Y0324764D01*
X0146348Y0324691D01*
X0146490Y0324615D01*
X0146629Y0324535D01*
X0146767Y0324452D01*
X0146902Y0324365D01*
X0147036Y0324275D01*
X0147167Y0324182D01*
X0147295Y0324086D01*
X0147421Y0323986D01*
X0147545Y0323883D01*
X0147666Y0323778D01*
X0147785Y0323669D01*
X0147901Y0323558D01*
X0148014Y0323443D01*
X0148124Y0323326D01*
X0148231Y0323206D01*
X0148335Y0323084D01*
X0148436Y0322959D01*
X0148534Y0322831D01*
X0148629Y0322701D01*
X0148721Y0322569D01*
X0148809Y0322435D01*
X0148894Y0322298D01*
X0148976Y0322160D01*
X0149054Y0322019D01*
X0149128Y0321877D01*
X0149199Y0321733D01*
X0149267Y0321587D01*
X0149330Y0321439D01*
X0149391Y0321290D01*
X0149447Y0321139D01*
X0149500Y0320987D01*
X0149549Y0320834D01*
X0149594Y0320680D01*
X0149635Y0320525D01*
X0149673Y0320368D01*
X0149706Y0320211D01*
X0149736Y0320053D01*
X0149762Y0319894D01*
X0149783Y0319735D01*
X0149801Y0319575D01*
X0149815Y0319415D01*
X0149825Y0319254D01*
X0149831Y0319094D01*
X0149833Y0318933D01*
X0149831Y0318772D01*
X0149825Y0318612D01*
X0149815Y0318451D01*
X0149801Y0318291D01*
X0149783Y0318131D01*
X0149762Y0317972D01*
X0149736Y0317813D01*
X0149706Y0317655D01*
X0149673Y0317498D01*
X0149635Y0317341D01*
X0149594Y0317186D01*
X0149549Y0317032D01*
X0149500Y0316879D01*
X0149447Y0316727D01*
X0149391Y0316576D01*
X0149330Y0316427D01*
X0149267Y0316279D01*
X0149199Y0316133D01*
X0149128Y0315989D01*
X0149054Y0315847D01*
X0148976Y0315706D01*
X0148894Y0315568D01*
X0148809Y0315431D01*
X0148721Y0315297D01*
X0148629Y0315165D01*
X0148534Y0315035D01*
X0148436Y0314907D01*
X0148335Y0314782D01*
X0148231Y0314660D01*
X0148124Y0314540D01*
X0148014Y0314423D01*
X0147901Y0314308D01*
X0147785Y0314197D01*
X0147666Y0314088D01*
X0147545Y0313983D01*
X0147421Y0313880D01*
X0147295Y0313780D01*
X0147167Y0313684D01*
X0147036Y0313591D01*
X0146902Y0313501D01*
X0146767Y0313414D01*
X0146629Y0313331D01*
X0146490Y0313251D01*
X0146348Y0313175D01*
X0146205Y0313102D01*
X0146060Y0313033D01*
X0145913Y0312967D01*
X0145765Y0312905D01*
X0145615Y0312847D01*
X0145464Y0312792D01*
X0145311Y0312741D01*
X0145157Y0312694D01*
X0145002Y0312651D01*
X0144846Y0312612D01*
X0144690Y0312576D01*
X0144532Y0312545D01*
X0144374Y0312517D01*
X0144215Y0312493D01*
X0144055Y0312473D01*
X0143895Y0312457D01*
X0143735Y0312445D01*
X0143574Y0312437D01*
X0143413Y0312433D01*
X0143253Y0312433D01*
X0143092Y0312437D01*
X0142931Y0312445D01*
X0142771Y0312457D01*
X0142611Y0312473D01*
X0142451Y0312493D01*
X0142292Y0312517D01*
X0142134Y0312545D01*
X0141976Y0312576D01*
X0141820Y0312612D01*
X0141664Y0312651D01*
X0141509Y0312694D01*
X0141355Y0312741D01*
X0141202Y0312792D01*
X0141051Y0312847D01*
X0140901Y0312905D01*
X0140753Y0312967D01*
X0140606Y0313033D01*
X0140461Y0313102D01*
X0140318Y0313175D01*
X0140176Y0313251D01*
X0140037Y0313331D01*
X0139899Y0313414D01*
X0139764Y0313501D01*
X0139630Y0313591D01*
X0139499Y0313684D01*
X0139371Y0313780D01*
X0139245Y0313880D01*
X0139121Y0313983D01*
X0139000Y0314088D01*
X0138881Y0314197D01*
X0138765Y0314308D01*
X0138652Y0314423D01*
X0138542Y0314540D01*
X0138435Y0314660D01*
X0138331Y0314782D01*
X0138230Y0314907D01*
X0138132Y0315035D01*
X0138037Y0315165D01*
X0137945Y0315297D01*
X0137857Y0315431D01*
X0137772Y0315568D01*
X0137690Y0315706D01*
X0137612Y0315847D01*
X0137538Y0315989D01*
X0137467Y0316133D01*
X0137399Y0316279D01*
X0137336Y0316427D01*
X0137275Y0316576D01*
X0137219Y0316727D01*
X0137166Y0316879D01*
X0137117Y0317032D01*
X0137072Y0317186D01*
X0137031Y0317341D01*
X0136993Y0317498D01*
X0136960Y0317655D01*
X0136930Y0317813D01*
X0136904Y0317972D01*
X0136883Y0318131D01*
X0136865Y0318291D01*
X0136851Y0318451D01*
X0136841Y0318612D01*
X0136835Y0318772D01*
X0136833Y0318933D01*
X0136833Y0238933D02*
X0136835Y0239094D01*
X0136841Y0239254D01*
X0136851Y0239415D01*
X0136865Y0239575D01*
X0136883Y0239735D01*
X0136904Y0239894D01*
X0136930Y0240053D01*
X0136960Y0240211D01*
X0136993Y0240368D01*
X0137031Y0240525D01*
X0137072Y0240680D01*
X0137117Y0240834D01*
X0137166Y0240987D01*
X0137219Y0241139D01*
X0137275Y0241290D01*
X0137336Y0241439D01*
X0137399Y0241587D01*
X0137467Y0241733D01*
X0137538Y0241877D01*
X0137612Y0242019D01*
X0137690Y0242160D01*
X0137772Y0242298D01*
X0137857Y0242435D01*
X0137945Y0242569D01*
X0138037Y0242701D01*
X0138132Y0242831D01*
X0138230Y0242959D01*
X0138331Y0243084D01*
X0138435Y0243206D01*
X0138542Y0243326D01*
X0138652Y0243443D01*
X0138765Y0243558D01*
X0138881Y0243669D01*
X0139000Y0243778D01*
X0139121Y0243883D01*
X0139245Y0243986D01*
X0139371Y0244086D01*
X0139499Y0244182D01*
X0139630Y0244275D01*
X0139764Y0244365D01*
X0139899Y0244452D01*
X0140037Y0244535D01*
X0140176Y0244615D01*
X0140318Y0244691D01*
X0140461Y0244764D01*
X0140606Y0244833D01*
X0140753Y0244899D01*
X0140901Y0244961D01*
X0141051Y0245019D01*
X0141202Y0245074D01*
X0141355Y0245125D01*
X0141509Y0245172D01*
X0141664Y0245215D01*
X0141820Y0245254D01*
X0141976Y0245290D01*
X0142134Y0245321D01*
X0142292Y0245349D01*
X0142451Y0245373D01*
X0142611Y0245393D01*
X0142771Y0245409D01*
X0142931Y0245421D01*
X0143092Y0245429D01*
X0143253Y0245433D01*
X0143413Y0245433D01*
X0143574Y0245429D01*
X0143735Y0245421D01*
X0143895Y0245409D01*
X0144055Y0245393D01*
X0144215Y0245373D01*
X0144374Y0245349D01*
X0144532Y0245321D01*
X0144690Y0245290D01*
X0144846Y0245254D01*
X0145002Y0245215D01*
X0145157Y0245172D01*
X0145311Y0245125D01*
X0145464Y0245074D01*
X0145615Y0245019D01*
X0145765Y0244961D01*
X0145913Y0244899D01*
X0146060Y0244833D01*
X0146205Y0244764D01*
X0146348Y0244691D01*
X0146490Y0244615D01*
X0146629Y0244535D01*
X0146767Y0244452D01*
X0146902Y0244365D01*
X0147036Y0244275D01*
X0147167Y0244182D01*
X0147295Y0244086D01*
X0147421Y0243986D01*
X0147545Y0243883D01*
X0147666Y0243778D01*
X0147785Y0243669D01*
X0147901Y0243558D01*
X0148014Y0243443D01*
X0148124Y0243326D01*
X0148231Y0243206D01*
X0148335Y0243084D01*
X0148436Y0242959D01*
X0148534Y0242831D01*
X0148629Y0242701D01*
X0148721Y0242569D01*
X0148809Y0242435D01*
X0148894Y0242298D01*
X0148976Y0242160D01*
X0149054Y0242019D01*
X0149128Y0241877D01*
X0149199Y0241733D01*
X0149267Y0241587D01*
X0149330Y0241439D01*
X0149391Y0241290D01*
X0149447Y0241139D01*
X0149500Y0240987D01*
X0149549Y0240834D01*
X0149594Y0240680D01*
X0149635Y0240525D01*
X0149673Y0240368D01*
X0149706Y0240211D01*
X0149736Y0240053D01*
X0149762Y0239894D01*
X0149783Y0239735D01*
X0149801Y0239575D01*
X0149815Y0239415D01*
X0149825Y0239254D01*
X0149831Y0239094D01*
X0149833Y0238933D01*
X0149831Y0238772D01*
X0149825Y0238612D01*
X0149815Y0238451D01*
X0149801Y0238291D01*
X0149783Y0238131D01*
X0149762Y0237972D01*
X0149736Y0237813D01*
X0149706Y0237655D01*
X0149673Y0237498D01*
X0149635Y0237341D01*
X0149594Y0237186D01*
X0149549Y0237032D01*
X0149500Y0236879D01*
X0149447Y0236727D01*
X0149391Y0236576D01*
X0149330Y0236427D01*
X0149267Y0236279D01*
X0149199Y0236133D01*
X0149128Y0235989D01*
X0149054Y0235847D01*
X0148976Y0235706D01*
X0148894Y0235568D01*
X0148809Y0235431D01*
X0148721Y0235297D01*
X0148629Y0235165D01*
X0148534Y0235035D01*
X0148436Y0234907D01*
X0148335Y0234782D01*
X0148231Y0234660D01*
X0148124Y0234540D01*
X0148014Y0234423D01*
X0147901Y0234308D01*
X0147785Y0234197D01*
X0147666Y0234088D01*
X0147545Y0233983D01*
X0147421Y0233880D01*
X0147295Y0233780D01*
X0147167Y0233684D01*
X0147036Y0233591D01*
X0146902Y0233501D01*
X0146767Y0233414D01*
X0146629Y0233331D01*
X0146490Y0233251D01*
X0146348Y0233175D01*
X0146205Y0233102D01*
X0146060Y0233033D01*
X0145913Y0232967D01*
X0145765Y0232905D01*
X0145615Y0232847D01*
X0145464Y0232792D01*
X0145311Y0232741D01*
X0145157Y0232694D01*
X0145002Y0232651D01*
X0144846Y0232612D01*
X0144690Y0232576D01*
X0144532Y0232545D01*
X0144374Y0232517D01*
X0144215Y0232493D01*
X0144055Y0232473D01*
X0143895Y0232457D01*
X0143735Y0232445D01*
X0143574Y0232437D01*
X0143413Y0232433D01*
X0143253Y0232433D01*
X0143092Y0232437D01*
X0142931Y0232445D01*
X0142771Y0232457D01*
X0142611Y0232473D01*
X0142451Y0232493D01*
X0142292Y0232517D01*
X0142134Y0232545D01*
X0141976Y0232576D01*
X0141820Y0232612D01*
X0141664Y0232651D01*
X0141509Y0232694D01*
X0141355Y0232741D01*
X0141202Y0232792D01*
X0141051Y0232847D01*
X0140901Y0232905D01*
X0140753Y0232967D01*
X0140606Y0233033D01*
X0140461Y0233102D01*
X0140318Y0233175D01*
X0140176Y0233251D01*
X0140037Y0233331D01*
X0139899Y0233414D01*
X0139764Y0233501D01*
X0139630Y0233591D01*
X0139499Y0233684D01*
X0139371Y0233780D01*
X0139245Y0233880D01*
X0139121Y0233983D01*
X0139000Y0234088D01*
X0138881Y0234197D01*
X0138765Y0234308D01*
X0138652Y0234423D01*
X0138542Y0234540D01*
X0138435Y0234660D01*
X0138331Y0234782D01*
X0138230Y0234907D01*
X0138132Y0235035D01*
X0138037Y0235165D01*
X0137945Y0235297D01*
X0137857Y0235431D01*
X0137772Y0235568D01*
X0137690Y0235706D01*
X0137612Y0235847D01*
X0137538Y0235989D01*
X0137467Y0236133D01*
X0137399Y0236279D01*
X0137336Y0236427D01*
X0137275Y0236576D01*
X0137219Y0236727D01*
X0137166Y0236879D01*
X0137117Y0237032D01*
X0137072Y0237186D01*
X0137031Y0237341D01*
X0136993Y0237498D01*
X0136960Y0237655D01*
X0136930Y0237813D01*
X0136904Y0237972D01*
X0136883Y0238131D01*
X0136865Y0238291D01*
X0136851Y0238451D01*
X0136841Y0238612D01*
X0136835Y0238772D01*
X0136833Y0238933D01*
X0216833Y0238933D02*
X0216835Y0239094D01*
X0216841Y0239254D01*
X0216851Y0239415D01*
X0216865Y0239575D01*
X0216883Y0239735D01*
X0216904Y0239894D01*
X0216930Y0240053D01*
X0216960Y0240211D01*
X0216993Y0240368D01*
X0217031Y0240525D01*
X0217072Y0240680D01*
X0217117Y0240834D01*
X0217166Y0240987D01*
X0217219Y0241139D01*
X0217275Y0241290D01*
X0217336Y0241439D01*
X0217399Y0241587D01*
X0217467Y0241733D01*
X0217538Y0241877D01*
X0217612Y0242019D01*
X0217690Y0242160D01*
X0217772Y0242298D01*
X0217857Y0242435D01*
X0217945Y0242569D01*
X0218037Y0242701D01*
X0218132Y0242831D01*
X0218230Y0242959D01*
X0218331Y0243084D01*
X0218435Y0243206D01*
X0218542Y0243326D01*
X0218652Y0243443D01*
X0218765Y0243558D01*
X0218881Y0243669D01*
X0219000Y0243778D01*
X0219121Y0243883D01*
X0219245Y0243986D01*
X0219371Y0244086D01*
X0219499Y0244182D01*
X0219630Y0244275D01*
X0219764Y0244365D01*
X0219899Y0244452D01*
X0220037Y0244535D01*
X0220176Y0244615D01*
X0220318Y0244691D01*
X0220461Y0244764D01*
X0220606Y0244833D01*
X0220753Y0244899D01*
X0220901Y0244961D01*
X0221051Y0245019D01*
X0221202Y0245074D01*
X0221355Y0245125D01*
X0221509Y0245172D01*
X0221664Y0245215D01*
X0221820Y0245254D01*
X0221976Y0245290D01*
X0222134Y0245321D01*
X0222292Y0245349D01*
X0222451Y0245373D01*
X0222611Y0245393D01*
X0222771Y0245409D01*
X0222931Y0245421D01*
X0223092Y0245429D01*
X0223253Y0245433D01*
X0223413Y0245433D01*
X0223574Y0245429D01*
X0223735Y0245421D01*
X0223895Y0245409D01*
X0224055Y0245393D01*
X0224215Y0245373D01*
X0224374Y0245349D01*
X0224532Y0245321D01*
X0224690Y0245290D01*
X0224846Y0245254D01*
X0225002Y0245215D01*
X0225157Y0245172D01*
X0225311Y0245125D01*
X0225464Y0245074D01*
X0225615Y0245019D01*
X0225765Y0244961D01*
X0225913Y0244899D01*
X0226060Y0244833D01*
X0226205Y0244764D01*
X0226348Y0244691D01*
X0226490Y0244615D01*
X0226629Y0244535D01*
X0226767Y0244452D01*
X0226902Y0244365D01*
X0227036Y0244275D01*
X0227167Y0244182D01*
X0227295Y0244086D01*
X0227421Y0243986D01*
X0227545Y0243883D01*
X0227666Y0243778D01*
X0227785Y0243669D01*
X0227901Y0243558D01*
X0228014Y0243443D01*
X0228124Y0243326D01*
X0228231Y0243206D01*
X0228335Y0243084D01*
X0228436Y0242959D01*
X0228534Y0242831D01*
X0228629Y0242701D01*
X0228721Y0242569D01*
X0228809Y0242435D01*
X0228894Y0242298D01*
X0228976Y0242160D01*
X0229054Y0242019D01*
X0229128Y0241877D01*
X0229199Y0241733D01*
X0229267Y0241587D01*
X0229330Y0241439D01*
X0229391Y0241290D01*
X0229447Y0241139D01*
X0229500Y0240987D01*
X0229549Y0240834D01*
X0229594Y0240680D01*
X0229635Y0240525D01*
X0229673Y0240368D01*
X0229706Y0240211D01*
X0229736Y0240053D01*
X0229762Y0239894D01*
X0229783Y0239735D01*
X0229801Y0239575D01*
X0229815Y0239415D01*
X0229825Y0239254D01*
X0229831Y0239094D01*
X0229833Y0238933D01*
X0229831Y0238772D01*
X0229825Y0238612D01*
X0229815Y0238451D01*
X0229801Y0238291D01*
X0229783Y0238131D01*
X0229762Y0237972D01*
X0229736Y0237813D01*
X0229706Y0237655D01*
X0229673Y0237498D01*
X0229635Y0237341D01*
X0229594Y0237186D01*
X0229549Y0237032D01*
X0229500Y0236879D01*
X0229447Y0236727D01*
X0229391Y0236576D01*
X0229330Y0236427D01*
X0229267Y0236279D01*
X0229199Y0236133D01*
X0229128Y0235989D01*
X0229054Y0235847D01*
X0228976Y0235706D01*
X0228894Y0235568D01*
X0228809Y0235431D01*
X0228721Y0235297D01*
X0228629Y0235165D01*
X0228534Y0235035D01*
X0228436Y0234907D01*
X0228335Y0234782D01*
X0228231Y0234660D01*
X0228124Y0234540D01*
X0228014Y0234423D01*
X0227901Y0234308D01*
X0227785Y0234197D01*
X0227666Y0234088D01*
X0227545Y0233983D01*
X0227421Y0233880D01*
X0227295Y0233780D01*
X0227167Y0233684D01*
X0227036Y0233591D01*
X0226902Y0233501D01*
X0226767Y0233414D01*
X0226629Y0233331D01*
X0226490Y0233251D01*
X0226348Y0233175D01*
X0226205Y0233102D01*
X0226060Y0233033D01*
X0225913Y0232967D01*
X0225765Y0232905D01*
X0225615Y0232847D01*
X0225464Y0232792D01*
X0225311Y0232741D01*
X0225157Y0232694D01*
X0225002Y0232651D01*
X0224846Y0232612D01*
X0224690Y0232576D01*
X0224532Y0232545D01*
X0224374Y0232517D01*
X0224215Y0232493D01*
X0224055Y0232473D01*
X0223895Y0232457D01*
X0223735Y0232445D01*
X0223574Y0232437D01*
X0223413Y0232433D01*
X0223253Y0232433D01*
X0223092Y0232437D01*
X0222931Y0232445D01*
X0222771Y0232457D01*
X0222611Y0232473D01*
X0222451Y0232493D01*
X0222292Y0232517D01*
X0222134Y0232545D01*
X0221976Y0232576D01*
X0221820Y0232612D01*
X0221664Y0232651D01*
X0221509Y0232694D01*
X0221355Y0232741D01*
X0221202Y0232792D01*
X0221051Y0232847D01*
X0220901Y0232905D01*
X0220753Y0232967D01*
X0220606Y0233033D01*
X0220461Y0233102D01*
X0220318Y0233175D01*
X0220176Y0233251D01*
X0220037Y0233331D01*
X0219899Y0233414D01*
X0219764Y0233501D01*
X0219630Y0233591D01*
X0219499Y0233684D01*
X0219371Y0233780D01*
X0219245Y0233880D01*
X0219121Y0233983D01*
X0219000Y0234088D01*
X0218881Y0234197D01*
X0218765Y0234308D01*
X0218652Y0234423D01*
X0218542Y0234540D01*
X0218435Y0234660D01*
X0218331Y0234782D01*
X0218230Y0234907D01*
X0218132Y0235035D01*
X0218037Y0235165D01*
X0217945Y0235297D01*
X0217857Y0235431D01*
X0217772Y0235568D01*
X0217690Y0235706D01*
X0217612Y0235847D01*
X0217538Y0235989D01*
X0217467Y0236133D01*
X0217399Y0236279D01*
X0217336Y0236427D01*
X0217275Y0236576D01*
X0217219Y0236727D01*
X0217166Y0236879D01*
X0217117Y0237032D01*
X0217072Y0237186D01*
X0217031Y0237341D01*
X0216993Y0237498D01*
X0216960Y0237655D01*
X0216930Y0237813D01*
X0216904Y0237972D01*
X0216883Y0238131D01*
X0216865Y0238291D01*
X0216851Y0238451D01*
X0216841Y0238612D01*
X0216835Y0238772D01*
X0216833Y0238933D01*
X0238833Y0238933D02*
X0238835Y0239094D01*
X0238841Y0239254D01*
X0238851Y0239415D01*
X0238865Y0239575D01*
X0238883Y0239735D01*
X0238904Y0239894D01*
X0238930Y0240053D01*
X0238960Y0240211D01*
X0238993Y0240368D01*
X0239031Y0240525D01*
X0239072Y0240680D01*
X0239117Y0240834D01*
X0239166Y0240987D01*
X0239219Y0241139D01*
X0239275Y0241290D01*
X0239336Y0241439D01*
X0239399Y0241587D01*
X0239467Y0241733D01*
X0239538Y0241877D01*
X0239612Y0242019D01*
X0239690Y0242160D01*
X0239772Y0242298D01*
X0239857Y0242435D01*
X0239945Y0242569D01*
X0240037Y0242701D01*
X0240132Y0242831D01*
X0240230Y0242959D01*
X0240331Y0243084D01*
X0240435Y0243206D01*
X0240542Y0243326D01*
X0240652Y0243443D01*
X0240765Y0243558D01*
X0240881Y0243669D01*
X0241000Y0243778D01*
X0241121Y0243883D01*
X0241245Y0243986D01*
X0241371Y0244086D01*
X0241499Y0244182D01*
X0241630Y0244275D01*
X0241764Y0244365D01*
X0241899Y0244452D01*
X0242037Y0244535D01*
X0242176Y0244615D01*
X0242318Y0244691D01*
X0242461Y0244764D01*
X0242606Y0244833D01*
X0242753Y0244899D01*
X0242901Y0244961D01*
X0243051Y0245019D01*
X0243202Y0245074D01*
X0243355Y0245125D01*
X0243509Y0245172D01*
X0243664Y0245215D01*
X0243820Y0245254D01*
X0243976Y0245290D01*
X0244134Y0245321D01*
X0244292Y0245349D01*
X0244451Y0245373D01*
X0244611Y0245393D01*
X0244771Y0245409D01*
X0244931Y0245421D01*
X0245092Y0245429D01*
X0245253Y0245433D01*
X0245413Y0245433D01*
X0245574Y0245429D01*
X0245735Y0245421D01*
X0245895Y0245409D01*
X0246055Y0245393D01*
X0246215Y0245373D01*
X0246374Y0245349D01*
X0246532Y0245321D01*
X0246690Y0245290D01*
X0246846Y0245254D01*
X0247002Y0245215D01*
X0247157Y0245172D01*
X0247311Y0245125D01*
X0247464Y0245074D01*
X0247615Y0245019D01*
X0247765Y0244961D01*
X0247913Y0244899D01*
X0248060Y0244833D01*
X0248205Y0244764D01*
X0248348Y0244691D01*
X0248490Y0244615D01*
X0248629Y0244535D01*
X0248767Y0244452D01*
X0248902Y0244365D01*
X0249036Y0244275D01*
X0249167Y0244182D01*
X0249295Y0244086D01*
X0249421Y0243986D01*
X0249545Y0243883D01*
X0249666Y0243778D01*
X0249785Y0243669D01*
X0249901Y0243558D01*
X0250014Y0243443D01*
X0250124Y0243326D01*
X0250231Y0243206D01*
X0250335Y0243084D01*
X0250436Y0242959D01*
X0250534Y0242831D01*
X0250629Y0242701D01*
X0250721Y0242569D01*
X0250809Y0242435D01*
X0250894Y0242298D01*
X0250976Y0242160D01*
X0251054Y0242019D01*
X0251128Y0241877D01*
X0251199Y0241733D01*
X0251267Y0241587D01*
X0251330Y0241439D01*
X0251391Y0241290D01*
X0251447Y0241139D01*
X0251500Y0240987D01*
X0251549Y0240834D01*
X0251594Y0240680D01*
X0251635Y0240525D01*
X0251673Y0240368D01*
X0251706Y0240211D01*
X0251736Y0240053D01*
X0251762Y0239894D01*
X0251783Y0239735D01*
X0251801Y0239575D01*
X0251815Y0239415D01*
X0251825Y0239254D01*
X0251831Y0239094D01*
X0251833Y0238933D01*
X0251831Y0238772D01*
X0251825Y0238612D01*
X0251815Y0238451D01*
X0251801Y0238291D01*
X0251783Y0238131D01*
X0251762Y0237972D01*
X0251736Y0237813D01*
X0251706Y0237655D01*
X0251673Y0237498D01*
X0251635Y0237341D01*
X0251594Y0237186D01*
X0251549Y0237032D01*
X0251500Y0236879D01*
X0251447Y0236727D01*
X0251391Y0236576D01*
X0251330Y0236427D01*
X0251267Y0236279D01*
X0251199Y0236133D01*
X0251128Y0235989D01*
X0251054Y0235847D01*
X0250976Y0235706D01*
X0250894Y0235568D01*
X0250809Y0235431D01*
X0250721Y0235297D01*
X0250629Y0235165D01*
X0250534Y0235035D01*
X0250436Y0234907D01*
X0250335Y0234782D01*
X0250231Y0234660D01*
X0250124Y0234540D01*
X0250014Y0234423D01*
X0249901Y0234308D01*
X0249785Y0234197D01*
X0249666Y0234088D01*
X0249545Y0233983D01*
X0249421Y0233880D01*
X0249295Y0233780D01*
X0249167Y0233684D01*
X0249036Y0233591D01*
X0248902Y0233501D01*
X0248767Y0233414D01*
X0248629Y0233331D01*
X0248490Y0233251D01*
X0248348Y0233175D01*
X0248205Y0233102D01*
X0248060Y0233033D01*
X0247913Y0232967D01*
X0247765Y0232905D01*
X0247615Y0232847D01*
X0247464Y0232792D01*
X0247311Y0232741D01*
X0247157Y0232694D01*
X0247002Y0232651D01*
X0246846Y0232612D01*
X0246690Y0232576D01*
X0246532Y0232545D01*
X0246374Y0232517D01*
X0246215Y0232493D01*
X0246055Y0232473D01*
X0245895Y0232457D01*
X0245735Y0232445D01*
X0245574Y0232437D01*
X0245413Y0232433D01*
X0245253Y0232433D01*
X0245092Y0232437D01*
X0244931Y0232445D01*
X0244771Y0232457D01*
X0244611Y0232473D01*
X0244451Y0232493D01*
X0244292Y0232517D01*
X0244134Y0232545D01*
X0243976Y0232576D01*
X0243820Y0232612D01*
X0243664Y0232651D01*
X0243509Y0232694D01*
X0243355Y0232741D01*
X0243202Y0232792D01*
X0243051Y0232847D01*
X0242901Y0232905D01*
X0242753Y0232967D01*
X0242606Y0233033D01*
X0242461Y0233102D01*
X0242318Y0233175D01*
X0242176Y0233251D01*
X0242037Y0233331D01*
X0241899Y0233414D01*
X0241764Y0233501D01*
X0241630Y0233591D01*
X0241499Y0233684D01*
X0241371Y0233780D01*
X0241245Y0233880D01*
X0241121Y0233983D01*
X0241000Y0234088D01*
X0240881Y0234197D01*
X0240765Y0234308D01*
X0240652Y0234423D01*
X0240542Y0234540D01*
X0240435Y0234660D01*
X0240331Y0234782D01*
X0240230Y0234907D01*
X0240132Y0235035D01*
X0240037Y0235165D01*
X0239945Y0235297D01*
X0239857Y0235431D01*
X0239772Y0235568D01*
X0239690Y0235706D01*
X0239612Y0235847D01*
X0239538Y0235989D01*
X0239467Y0236133D01*
X0239399Y0236279D01*
X0239336Y0236427D01*
X0239275Y0236576D01*
X0239219Y0236727D01*
X0239166Y0236879D01*
X0239117Y0237032D01*
X0239072Y0237186D01*
X0239031Y0237341D01*
X0238993Y0237498D01*
X0238960Y0237655D01*
X0238930Y0237813D01*
X0238904Y0237972D01*
X0238883Y0238131D01*
X0238865Y0238291D01*
X0238851Y0238451D01*
X0238841Y0238612D01*
X0238835Y0238772D01*
X0238833Y0238933D01*
X0318833Y0238933D02*
X0318835Y0239094D01*
X0318841Y0239254D01*
X0318851Y0239415D01*
X0318865Y0239575D01*
X0318883Y0239735D01*
X0318904Y0239894D01*
X0318930Y0240053D01*
X0318960Y0240211D01*
X0318993Y0240368D01*
X0319031Y0240525D01*
X0319072Y0240680D01*
X0319117Y0240834D01*
X0319166Y0240987D01*
X0319219Y0241139D01*
X0319275Y0241290D01*
X0319336Y0241439D01*
X0319399Y0241587D01*
X0319467Y0241733D01*
X0319538Y0241877D01*
X0319612Y0242019D01*
X0319690Y0242160D01*
X0319772Y0242298D01*
X0319857Y0242435D01*
X0319945Y0242569D01*
X0320037Y0242701D01*
X0320132Y0242831D01*
X0320230Y0242959D01*
X0320331Y0243084D01*
X0320435Y0243206D01*
X0320542Y0243326D01*
X0320652Y0243443D01*
X0320765Y0243558D01*
X0320881Y0243669D01*
X0321000Y0243778D01*
X0321121Y0243883D01*
X0321245Y0243986D01*
X0321371Y0244086D01*
X0321499Y0244182D01*
X0321630Y0244275D01*
X0321764Y0244365D01*
X0321899Y0244452D01*
X0322037Y0244535D01*
X0322176Y0244615D01*
X0322318Y0244691D01*
X0322461Y0244764D01*
X0322606Y0244833D01*
X0322753Y0244899D01*
X0322901Y0244961D01*
X0323051Y0245019D01*
X0323202Y0245074D01*
X0323355Y0245125D01*
X0323509Y0245172D01*
X0323664Y0245215D01*
X0323820Y0245254D01*
X0323976Y0245290D01*
X0324134Y0245321D01*
X0324292Y0245349D01*
X0324451Y0245373D01*
X0324611Y0245393D01*
X0324771Y0245409D01*
X0324931Y0245421D01*
X0325092Y0245429D01*
X0325253Y0245433D01*
X0325413Y0245433D01*
X0325574Y0245429D01*
X0325735Y0245421D01*
X0325895Y0245409D01*
X0326055Y0245393D01*
X0326215Y0245373D01*
X0326374Y0245349D01*
X0326532Y0245321D01*
X0326690Y0245290D01*
X0326846Y0245254D01*
X0327002Y0245215D01*
X0327157Y0245172D01*
X0327311Y0245125D01*
X0327464Y0245074D01*
X0327615Y0245019D01*
X0327765Y0244961D01*
X0327913Y0244899D01*
X0328060Y0244833D01*
X0328205Y0244764D01*
X0328348Y0244691D01*
X0328490Y0244615D01*
X0328629Y0244535D01*
X0328767Y0244452D01*
X0328902Y0244365D01*
X0329036Y0244275D01*
X0329167Y0244182D01*
X0329295Y0244086D01*
X0329421Y0243986D01*
X0329545Y0243883D01*
X0329666Y0243778D01*
X0329785Y0243669D01*
X0329901Y0243558D01*
X0330014Y0243443D01*
X0330124Y0243326D01*
X0330231Y0243206D01*
X0330335Y0243084D01*
X0330436Y0242959D01*
X0330534Y0242831D01*
X0330629Y0242701D01*
X0330721Y0242569D01*
X0330809Y0242435D01*
X0330894Y0242298D01*
X0330976Y0242160D01*
X0331054Y0242019D01*
X0331128Y0241877D01*
X0331199Y0241733D01*
X0331267Y0241587D01*
X0331330Y0241439D01*
X0331391Y0241290D01*
X0331447Y0241139D01*
X0331500Y0240987D01*
X0331549Y0240834D01*
X0331594Y0240680D01*
X0331635Y0240525D01*
X0331673Y0240368D01*
X0331706Y0240211D01*
X0331736Y0240053D01*
X0331762Y0239894D01*
X0331783Y0239735D01*
X0331801Y0239575D01*
X0331815Y0239415D01*
X0331825Y0239254D01*
X0331831Y0239094D01*
X0331833Y0238933D01*
X0331831Y0238772D01*
X0331825Y0238612D01*
X0331815Y0238451D01*
X0331801Y0238291D01*
X0331783Y0238131D01*
X0331762Y0237972D01*
X0331736Y0237813D01*
X0331706Y0237655D01*
X0331673Y0237498D01*
X0331635Y0237341D01*
X0331594Y0237186D01*
X0331549Y0237032D01*
X0331500Y0236879D01*
X0331447Y0236727D01*
X0331391Y0236576D01*
X0331330Y0236427D01*
X0331267Y0236279D01*
X0331199Y0236133D01*
X0331128Y0235989D01*
X0331054Y0235847D01*
X0330976Y0235706D01*
X0330894Y0235568D01*
X0330809Y0235431D01*
X0330721Y0235297D01*
X0330629Y0235165D01*
X0330534Y0235035D01*
X0330436Y0234907D01*
X0330335Y0234782D01*
X0330231Y0234660D01*
X0330124Y0234540D01*
X0330014Y0234423D01*
X0329901Y0234308D01*
X0329785Y0234197D01*
X0329666Y0234088D01*
X0329545Y0233983D01*
X0329421Y0233880D01*
X0329295Y0233780D01*
X0329167Y0233684D01*
X0329036Y0233591D01*
X0328902Y0233501D01*
X0328767Y0233414D01*
X0328629Y0233331D01*
X0328490Y0233251D01*
X0328348Y0233175D01*
X0328205Y0233102D01*
X0328060Y0233033D01*
X0327913Y0232967D01*
X0327765Y0232905D01*
X0327615Y0232847D01*
X0327464Y0232792D01*
X0327311Y0232741D01*
X0327157Y0232694D01*
X0327002Y0232651D01*
X0326846Y0232612D01*
X0326690Y0232576D01*
X0326532Y0232545D01*
X0326374Y0232517D01*
X0326215Y0232493D01*
X0326055Y0232473D01*
X0325895Y0232457D01*
X0325735Y0232445D01*
X0325574Y0232437D01*
X0325413Y0232433D01*
X0325253Y0232433D01*
X0325092Y0232437D01*
X0324931Y0232445D01*
X0324771Y0232457D01*
X0324611Y0232473D01*
X0324451Y0232493D01*
X0324292Y0232517D01*
X0324134Y0232545D01*
X0323976Y0232576D01*
X0323820Y0232612D01*
X0323664Y0232651D01*
X0323509Y0232694D01*
X0323355Y0232741D01*
X0323202Y0232792D01*
X0323051Y0232847D01*
X0322901Y0232905D01*
X0322753Y0232967D01*
X0322606Y0233033D01*
X0322461Y0233102D01*
X0322318Y0233175D01*
X0322176Y0233251D01*
X0322037Y0233331D01*
X0321899Y0233414D01*
X0321764Y0233501D01*
X0321630Y0233591D01*
X0321499Y0233684D01*
X0321371Y0233780D01*
X0321245Y0233880D01*
X0321121Y0233983D01*
X0321000Y0234088D01*
X0320881Y0234197D01*
X0320765Y0234308D01*
X0320652Y0234423D01*
X0320542Y0234540D01*
X0320435Y0234660D01*
X0320331Y0234782D01*
X0320230Y0234907D01*
X0320132Y0235035D01*
X0320037Y0235165D01*
X0319945Y0235297D01*
X0319857Y0235431D01*
X0319772Y0235568D01*
X0319690Y0235706D01*
X0319612Y0235847D01*
X0319538Y0235989D01*
X0319467Y0236133D01*
X0319399Y0236279D01*
X0319336Y0236427D01*
X0319275Y0236576D01*
X0319219Y0236727D01*
X0319166Y0236879D01*
X0319117Y0237032D01*
X0319072Y0237186D01*
X0319031Y0237341D01*
X0318993Y0237498D01*
X0318960Y0237655D01*
X0318930Y0237813D01*
X0318904Y0237972D01*
X0318883Y0238131D01*
X0318865Y0238291D01*
X0318851Y0238451D01*
X0318841Y0238612D01*
X0318835Y0238772D01*
X0318833Y0238933D01*
X0340833Y0238933D02*
X0340835Y0239094D01*
X0340841Y0239254D01*
X0340851Y0239415D01*
X0340865Y0239575D01*
X0340883Y0239735D01*
X0340904Y0239894D01*
X0340930Y0240053D01*
X0340960Y0240211D01*
X0340993Y0240368D01*
X0341031Y0240525D01*
X0341072Y0240680D01*
X0341117Y0240834D01*
X0341166Y0240987D01*
X0341219Y0241139D01*
X0341275Y0241290D01*
X0341336Y0241439D01*
X0341399Y0241587D01*
X0341467Y0241733D01*
X0341538Y0241877D01*
X0341612Y0242019D01*
X0341690Y0242160D01*
X0341772Y0242298D01*
X0341857Y0242435D01*
X0341945Y0242569D01*
X0342037Y0242701D01*
X0342132Y0242831D01*
X0342230Y0242959D01*
X0342331Y0243084D01*
X0342435Y0243206D01*
X0342542Y0243326D01*
X0342652Y0243443D01*
X0342765Y0243558D01*
X0342881Y0243669D01*
X0343000Y0243778D01*
X0343121Y0243883D01*
X0343245Y0243986D01*
X0343371Y0244086D01*
X0343499Y0244182D01*
X0343630Y0244275D01*
X0343764Y0244365D01*
X0343899Y0244452D01*
X0344037Y0244535D01*
X0344176Y0244615D01*
X0344318Y0244691D01*
X0344461Y0244764D01*
X0344606Y0244833D01*
X0344753Y0244899D01*
X0344901Y0244961D01*
X0345051Y0245019D01*
X0345202Y0245074D01*
X0345355Y0245125D01*
X0345509Y0245172D01*
X0345664Y0245215D01*
X0345820Y0245254D01*
X0345976Y0245290D01*
X0346134Y0245321D01*
X0346292Y0245349D01*
X0346451Y0245373D01*
X0346611Y0245393D01*
X0346771Y0245409D01*
X0346931Y0245421D01*
X0347092Y0245429D01*
X0347253Y0245433D01*
X0347413Y0245433D01*
X0347574Y0245429D01*
X0347735Y0245421D01*
X0347895Y0245409D01*
X0348055Y0245393D01*
X0348215Y0245373D01*
X0348374Y0245349D01*
X0348532Y0245321D01*
X0348690Y0245290D01*
X0348846Y0245254D01*
X0349002Y0245215D01*
X0349157Y0245172D01*
X0349311Y0245125D01*
X0349464Y0245074D01*
X0349615Y0245019D01*
X0349765Y0244961D01*
X0349913Y0244899D01*
X0350060Y0244833D01*
X0350205Y0244764D01*
X0350348Y0244691D01*
X0350490Y0244615D01*
X0350629Y0244535D01*
X0350767Y0244452D01*
X0350902Y0244365D01*
X0351036Y0244275D01*
X0351167Y0244182D01*
X0351295Y0244086D01*
X0351421Y0243986D01*
X0351545Y0243883D01*
X0351666Y0243778D01*
X0351785Y0243669D01*
X0351901Y0243558D01*
X0352014Y0243443D01*
X0352124Y0243326D01*
X0352231Y0243206D01*
X0352335Y0243084D01*
X0352436Y0242959D01*
X0352534Y0242831D01*
X0352629Y0242701D01*
X0352721Y0242569D01*
X0352809Y0242435D01*
X0352894Y0242298D01*
X0352976Y0242160D01*
X0353054Y0242019D01*
X0353128Y0241877D01*
X0353199Y0241733D01*
X0353267Y0241587D01*
X0353330Y0241439D01*
X0353391Y0241290D01*
X0353447Y0241139D01*
X0353500Y0240987D01*
X0353549Y0240834D01*
X0353594Y0240680D01*
X0353635Y0240525D01*
X0353673Y0240368D01*
X0353706Y0240211D01*
X0353736Y0240053D01*
X0353762Y0239894D01*
X0353783Y0239735D01*
X0353801Y0239575D01*
X0353815Y0239415D01*
X0353825Y0239254D01*
X0353831Y0239094D01*
X0353833Y0238933D01*
X0353831Y0238772D01*
X0353825Y0238612D01*
X0353815Y0238451D01*
X0353801Y0238291D01*
X0353783Y0238131D01*
X0353762Y0237972D01*
X0353736Y0237813D01*
X0353706Y0237655D01*
X0353673Y0237498D01*
X0353635Y0237341D01*
X0353594Y0237186D01*
X0353549Y0237032D01*
X0353500Y0236879D01*
X0353447Y0236727D01*
X0353391Y0236576D01*
X0353330Y0236427D01*
X0353267Y0236279D01*
X0353199Y0236133D01*
X0353128Y0235989D01*
X0353054Y0235847D01*
X0352976Y0235706D01*
X0352894Y0235568D01*
X0352809Y0235431D01*
X0352721Y0235297D01*
X0352629Y0235165D01*
X0352534Y0235035D01*
X0352436Y0234907D01*
X0352335Y0234782D01*
X0352231Y0234660D01*
X0352124Y0234540D01*
X0352014Y0234423D01*
X0351901Y0234308D01*
X0351785Y0234197D01*
X0351666Y0234088D01*
X0351545Y0233983D01*
X0351421Y0233880D01*
X0351295Y0233780D01*
X0351167Y0233684D01*
X0351036Y0233591D01*
X0350902Y0233501D01*
X0350767Y0233414D01*
X0350629Y0233331D01*
X0350490Y0233251D01*
X0350348Y0233175D01*
X0350205Y0233102D01*
X0350060Y0233033D01*
X0349913Y0232967D01*
X0349765Y0232905D01*
X0349615Y0232847D01*
X0349464Y0232792D01*
X0349311Y0232741D01*
X0349157Y0232694D01*
X0349002Y0232651D01*
X0348846Y0232612D01*
X0348690Y0232576D01*
X0348532Y0232545D01*
X0348374Y0232517D01*
X0348215Y0232493D01*
X0348055Y0232473D01*
X0347895Y0232457D01*
X0347735Y0232445D01*
X0347574Y0232437D01*
X0347413Y0232433D01*
X0347253Y0232433D01*
X0347092Y0232437D01*
X0346931Y0232445D01*
X0346771Y0232457D01*
X0346611Y0232473D01*
X0346451Y0232493D01*
X0346292Y0232517D01*
X0346134Y0232545D01*
X0345976Y0232576D01*
X0345820Y0232612D01*
X0345664Y0232651D01*
X0345509Y0232694D01*
X0345355Y0232741D01*
X0345202Y0232792D01*
X0345051Y0232847D01*
X0344901Y0232905D01*
X0344753Y0232967D01*
X0344606Y0233033D01*
X0344461Y0233102D01*
X0344318Y0233175D01*
X0344176Y0233251D01*
X0344037Y0233331D01*
X0343899Y0233414D01*
X0343764Y0233501D01*
X0343630Y0233591D01*
X0343499Y0233684D01*
X0343371Y0233780D01*
X0343245Y0233880D01*
X0343121Y0233983D01*
X0343000Y0234088D01*
X0342881Y0234197D01*
X0342765Y0234308D01*
X0342652Y0234423D01*
X0342542Y0234540D01*
X0342435Y0234660D01*
X0342331Y0234782D01*
X0342230Y0234907D01*
X0342132Y0235035D01*
X0342037Y0235165D01*
X0341945Y0235297D01*
X0341857Y0235431D01*
X0341772Y0235568D01*
X0341690Y0235706D01*
X0341612Y0235847D01*
X0341538Y0235989D01*
X0341467Y0236133D01*
X0341399Y0236279D01*
X0341336Y0236427D01*
X0341275Y0236576D01*
X0341219Y0236727D01*
X0341166Y0236879D01*
X0341117Y0237032D01*
X0341072Y0237186D01*
X0341031Y0237341D01*
X0340993Y0237498D01*
X0340960Y0237655D01*
X0340930Y0237813D01*
X0340904Y0237972D01*
X0340883Y0238131D01*
X0340865Y0238291D01*
X0340851Y0238451D01*
X0340841Y0238612D01*
X0340835Y0238772D01*
X0340833Y0238933D01*
X0420833Y0238933D02*
X0420835Y0239094D01*
X0420841Y0239254D01*
X0420851Y0239415D01*
X0420865Y0239575D01*
X0420883Y0239735D01*
X0420904Y0239894D01*
X0420930Y0240053D01*
X0420960Y0240211D01*
X0420993Y0240368D01*
X0421031Y0240525D01*
X0421072Y0240680D01*
X0421117Y0240834D01*
X0421166Y0240987D01*
X0421219Y0241139D01*
X0421275Y0241290D01*
X0421336Y0241439D01*
X0421399Y0241587D01*
X0421467Y0241733D01*
X0421538Y0241877D01*
X0421612Y0242019D01*
X0421690Y0242160D01*
X0421772Y0242298D01*
X0421857Y0242435D01*
X0421945Y0242569D01*
X0422037Y0242701D01*
X0422132Y0242831D01*
X0422230Y0242959D01*
X0422331Y0243084D01*
X0422435Y0243206D01*
X0422542Y0243326D01*
X0422652Y0243443D01*
X0422765Y0243558D01*
X0422881Y0243669D01*
X0423000Y0243778D01*
X0423121Y0243883D01*
X0423245Y0243986D01*
X0423371Y0244086D01*
X0423499Y0244182D01*
X0423630Y0244275D01*
X0423764Y0244365D01*
X0423899Y0244452D01*
X0424037Y0244535D01*
X0424176Y0244615D01*
X0424318Y0244691D01*
X0424461Y0244764D01*
X0424606Y0244833D01*
X0424753Y0244899D01*
X0424901Y0244961D01*
X0425051Y0245019D01*
X0425202Y0245074D01*
X0425355Y0245125D01*
X0425509Y0245172D01*
X0425664Y0245215D01*
X0425820Y0245254D01*
X0425976Y0245290D01*
X0426134Y0245321D01*
X0426292Y0245349D01*
X0426451Y0245373D01*
X0426611Y0245393D01*
X0426771Y0245409D01*
X0426931Y0245421D01*
X0427092Y0245429D01*
X0427253Y0245433D01*
X0427413Y0245433D01*
X0427574Y0245429D01*
X0427735Y0245421D01*
X0427895Y0245409D01*
X0428055Y0245393D01*
X0428215Y0245373D01*
X0428374Y0245349D01*
X0428532Y0245321D01*
X0428690Y0245290D01*
X0428846Y0245254D01*
X0429002Y0245215D01*
X0429157Y0245172D01*
X0429311Y0245125D01*
X0429464Y0245074D01*
X0429615Y0245019D01*
X0429765Y0244961D01*
X0429913Y0244899D01*
X0430060Y0244833D01*
X0430205Y0244764D01*
X0430348Y0244691D01*
X0430490Y0244615D01*
X0430629Y0244535D01*
X0430767Y0244452D01*
X0430902Y0244365D01*
X0431036Y0244275D01*
X0431167Y0244182D01*
X0431295Y0244086D01*
X0431421Y0243986D01*
X0431545Y0243883D01*
X0431666Y0243778D01*
X0431785Y0243669D01*
X0431901Y0243558D01*
X0432014Y0243443D01*
X0432124Y0243326D01*
X0432231Y0243206D01*
X0432335Y0243084D01*
X0432436Y0242959D01*
X0432534Y0242831D01*
X0432629Y0242701D01*
X0432721Y0242569D01*
X0432809Y0242435D01*
X0432894Y0242298D01*
X0432976Y0242160D01*
X0433054Y0242019D01*
X0433128Y0241877D01*
X0433199Y0241733D01*
X0433267Y0241587D01*
X0433330Y0241439D01*
X0433391Y0241290D01*
X0433447Y0241139D01*
X0433500Y0240987D01*
X0433549Y0240834D01*
X0433594Y0240680D01*
X0433635Y0240525D01*
X0433673Y0240368D01*
X0433706Y0240211D01*
X0433736Y0240053D01*
X0433762Y0239894D01*
X0433783Y0239735D01*
X0433801Y0239575D01*
X0433815Y0239415D01*
X0433825Y0239254D01*
X0433831Y0239094D01*
X0433833Y0238933D01*
X0433831Y0238772D01*
X0433825Y0238612D01*
X0433815Y0238451D01*
X0433801Y0238291D01*
X0433783Y0238131D01*
X0433762Y0237972D01*
X0433736Y0237813D01*
X0433706Y0237655D01*
X0433673Y0237498D01*
X0433635Y0237341D01*
X0433594Y0237186D01*
X0433549Y0237032D01*
X0433500Y0236879D01*
X0433447Y0236727D01*
X0433391Y0236576D01*
X0433330Y0236427D01*
X0433267Y0236279D01*
X0433199Y0236133D01*
X0433128Y0235989D01*
X0433054Y0235847D01*
X0432976Y0235706D01*
X0432894Y0235568D01*
X0432809Y0235431D01*
X0432721Y0235297D01*
X0432629Y0235165D01*
X0432534Y0235035D01*
X0432436Y0234907D01*
X0432335Y0234782D01*
X0432231Y0234660D01*
X0432124Y0234540D01*
X0432014Y0234423D01*
X0431901Y0234308D01*
X0431785Y0234197D01*
X0431666Y0234088D01*
X0431545Y0233983D01*
X0431421Y0233880D01*
X0431295Y0233780D01*
X0431167Y0233684D01*
X0431036Y0233591D01*
X0430902Y0233501D01*
X0430767Y0233414D01*
X0430629Y0233331D01*
X0430490Y0233251D01*
X0430348Y0233175D01*
X0430205Y0233102D01*
X0430060Y0233033D01*
X0429913Y0232967D01*
X0429765Y0232905D01*
X0429615Y0232847D01*
X0429464Y0232792D01*
X0429311Y0232741D01*
X0429157Y0232694D01*
X0429002Y0232651D01*
X0428846Y0232612D01*
X0428690Y0232576D01*
X0428532Y0232545D01*
X0428374Y0232517D01*
X0428215Y0232493D01*
X0428055Y0232473D01*
X0427895Y0232457D01*
X0427735Y0232445D01*
X0427574Y0232437D01*
X0427413Y0232433D01*
X0427253Y0232433D01*
X0427092Y0232437D01*
X0426931Y0232445D01*
X0426771Y0232457D01*
X0426611Y0232473D01*
X0426451Y0232493D01*
X0426292Y0232517D01*
X0426134Y0232545D01*
X0425976Y0232576D01*
X0425820Y0232612D01*
X0425664Y0232651D01*
X0425509Y0232694D01*
X0425355Y0232741D01*
X0425202Y0232792D01*
X0425051Y0232847D01*
X0424901Y0232905D01*
X0424753Y0232967D01*
X0424606Y0233033D01*
X0424461Y0233102D01*
X0424318Y0233175D01*
X0424176Y0233251D01*
X0424037Y0233331D01*
X0423899Y0233414D01*
X0423764Y0233501D01*
X0423630Y0233591D01*
X0423499Y0233684D01*
X0423371Y0233780D01*
X0423245Y0233880D01*
X0423121Y0233983D01*
X0423000Y0234088D01*
X0422881Y0234197D01*
X0422765Y0234308D01*
X0422652Y0234423D01*
X0422542Y0234540D01*
X0422435Y0234660D01*
X0422331Y0234782D01*
X0422230Y0234907D01*
X0422132Y0235035D01*
X0422037Y0235165D01*
X0421945Y0235297D01*
X0421857Y0235431D01*
X0421772Y0235568D01*
X0421690Y0235706D01*
X0421612Y0235847D01*
X0421538Y0235989D01*
X0421467Y0236133D01*
X0421399Y0236279D01*
X0421336Y0236427D01*
X0421275Y0236576D01*
X0421219Y0236727D01*
X0421166Y0236879D01*
X0421117Y0237032D01*
X0421072Y0237186D01*
X0421031Y0237341D01*
X0420993Y0237498D01*
X0420960Y0237655D01*
X0420930Y0237813D01*
X0420904Y0237972D01*
X0420883Y0238131D01*
X0420865Y0238291D01*
X0420851Y0238451D01*
X0420841Y0238612D01*
X0420835Y0238772D01*
X0420833Y0238933D01*
X0420833Y0318933D02*
X0420835Y0319094D01*
X0420841Y0319254D01*
X0420851Y0319415D01*
X0420865Y0319575D01*
X0420883Y0319735D01*
X0420904Y0319894D01*
X0420930Y0320053D01*
X0420960Y0320211D01*
X0420993Y0320368D01*
X0421031Y0320525D01*
X0421072Y0320680D01*
X0421117Y0320834D01*
X0421166Y0320987D01*
X0421219Y0321139D01*
X0421275Y0321290D01*
X0421336Y0321439D01*
X0421399Y0321587D01*
X0421467Y0321733D01*
X0421538Y0321877D01*
X0421612Y0322019D01*
X0421690Y0322160D01*
X0421772Y0322298D01*
X0421857Y0322435D01*
X0421945Y0322569D01*
X0422037Y0322701D01*
X0422132Y0322831D01*
X0422230Y0322959D01*
X0422331Y0323084D01*
X0422435Y0323206D01*
X0422542Y0323326D01*
X0422652Y0323443D01*
X0422765Y0323558D01*
X0422881Y0323669D01*
X0423000Y0323778D01*
X0423121Y0323883D01*
X0423245Y0323986D01*
X0423371Y0324086D01*
X0423499Y0324182D01*
X0423630Y0324275D01*
X0423764Y0324365D01*
X0423899Y0324452D01*
X0424037Y0324535D01*
X0424176Y0324615D01*
X0424318Y0324691D01*
X0424461Y0324764D01*
X0424606Y0324833D01*
X0424753Y0324899D01*
X0424901Y0324961D01*
X0425051Y0325019D01*
X0425202Y0325074D01*
X0425355Y0325125D01*
X0425509Y0325172D01*
X0425664Y0325215D01*
X0425820Y0325254D01*
X0425976Y0325290D01*
X0426134Y0325321D01*
X0426292Y0325349D01*
X0426451Y0325373D01*
X0426611Y0325393D01*
X0426771Y0325409D01*
X0426931Y0325421D01*
X0427092Y0325429D01*
X0427253Y0325433D01*
X0427413Y0325433D01*
X0427574Y0325429D01*
X0427735Y0325421D01*
X0427895Y0325409D01*
X0428055Y0325393D01*
X0428215Y0325373D01*
X0428374Y0325349D01*
X0428532Y0325321D01*
X0428690Y0325290D01*
X0428846Y0325254D01*
X0429002Y0325215D01*
X0429157Y0325172D01*
X0429311Y0325125D01*
X0429464Y0325074D01*
X0429615Y0325019D01*
X0429765Y0324961D01*
X0429913Y0324899D01*
X0430060Y0324833D01*
X0430205Y0324764D01*
X0430348Y0324691D01*
X0430490Y0324615D01*
X0430629Y0324535D01*
X0430767Y0324452D01*
X0430902Y0324365D01*
X0431036Y0324275D01*
X0431167Y0324182D01*
X0431295Y0324086D01*
X0431421Y0323986D01*
X0431545Y0323883D01*
X0431666Y0323778D01*
X0431785Y0323669D01*
X0431901Y0323558D01*
X0432014Y0323443D01*
X0432124Y0323326D01*
X0432231Y0323206D01*
X0432335Y0323084D01*
X0432436Y0322959D01*
X0432534Y0322831D01*
X0432629Y0322701D01*
X0432721Y0322569D01*
X0432809Y0322435D01*
X0432894Y0322298D01*
X0432976Y0322160D01*
X0433054Y0322019D01*
X0433128Y0321877D01*
X0433199Y0321733D01*
X0433267Y0321587D01*
X0433330Y0321439D01*
X0433391Y0321290D01*
X0433447Y0321139D01*
X0433500Y0320987D01*
X0433549Y0320834D01*
X0433594Y0320680D01*
X0433635Y0320525D01*
X0433673Y0320368D01*
X0433706Y0320211D01*
X0433736Y0320053D01*
X0433762Y0319894D01*
X0433783Y0319735D01*
X0433801Y0319575D01*
X0433815Y0319415D01*
X0433825Y0319254D01*
X0433831Y0319094D01*
X0433833Y0318933D01*
X0433831Y0318772D01*
X0433825Y0318612D01*
X0433815Y0318451D01*
X0433801Y0318291D01*
X0433783Y0318131D01*
X0433762Y0317972D01*
X0433736Y0317813D01*
X0433706Y0317655D01*
X0433673Y0317498D01*
X0433635Y0317341D01*
X0433594Y0317186D01*
X0433549Y0317032D01*
X0433500Y0316879D01*
X0433447Y0316727D01*
X0433391Y0316576D01*
X0433330Y0316427D01*
X0433267Y0316279D01*
X0433199Y0316133D01*
X0433128Y0315989D01*
X0433054Y0315847D01*
X0432976Y0315706D01*
X0432894Y0315568D01*
X0432809Y0315431D01*
X0432721Y0315297D01*
X0432629Y0315165D01*
X0432534Y0315035D01*
X0432436Y0314907D01*
X0432335Y0314782D01*
X0432231Y0314660D01*
X0432124Y0314540D01*
X0432014Y0314423D01*
X0431901Y0314308D01*
X0431785Y0314197D01*
X0431666Y0314088D01*
X0431545Y0313983D01*
X0431421Y0313880D01*
X0431295Y0313780D01*
X0431167Y0313684D01*
X0431036Y0313591D01*
X0430902Y0313501D01*
X0430767Y0313414D01*
X0430629Y0313331D01*
X0430490Y0313251D01*
X0430348Y0313175D01*
X0430205Y0313102D01*
X0430060Y0313033D01*
X0429913Y0312967D01*
X0429765Y0312905D01*
X0429615Y0312847D01*
X0429464Y0312792D01*
X0429311Y0312741D01*
X0429157Y0312694D01*
X0429002Y0312651D01*
X0428846Y0312612D01*
X0428690Y0312576D01*
X0428532Y0312545D01*
X0428374Y0312517D01*
X0428215Y0312493D01*
X0428055Y0312473D01*
X0427895Y0312457D01*
X0427735Y0312445D01*
X0427574Y0312437D01*
X0427413Y0312433D01*
X0427253Y0312433D01*
X0427092Y0312437D01*
X0426931Y0312445D01*
X0426771Y0312457D01*
X0426611Y0312473D01*
X0426451Y0312493D01*
X0426292Y0312517D01*
X0426134Y0312545D01*
X0425976Y0312576D01*
X0425820Y0312612D01*
X0425664Y0312651D01*
X0425509Y0312694D01*
X0425355Y0312741D01*
X0425202Y0312792D01*
X0425051Y0312847D01*
X0424901Y0312905D01*
X0424753Y0312967D01*
X0424606Y0313033D01*
X0424461Y0313102D01*
X0424318Y0313175D01*
X0424176Y0313251D01*
X0424037Y0313331D01*
X0423899Y0313414D01*
X0423764Y0313501D01*
X0423630Y0313591D01*
X0423499Y0313684D01*
X0423371Y0313780D01*
X0423245Y0313880D01*
X0423121Y0313983D01*
X0423000Y0314088D01*
X0422881Y0314197D01*
X0422765Y0314308D01*
X0422652Y0314423D01*
X0422542Y0314540D01*
X0422435Y0314660D01*
X0422331Y0314782D01*
X0422230Y0314907D01*
X0422132Y0315035D01*
X0422037Y0315165D01*
X0421945Y0315297D01*
X0421857Y0315431D01*
X0421772Y0315568D01*
X0421690Y0315706D01*
X0421612Y0315847D01*
X0421538Y0315989D01*
X0421467Y0316133D01*
X0421399Y0316279D01*
X0421336Y0316427D01*
X0421275Y0316576D01*
X0421219Y0316727D01*
X0421166Y0316879D01*
X0421117Y0317032D01*
X0421072Y0317186D01*
X0421031Y0317341D01*
X0420993Y0317498D01*
X0420960Y0317655D01*
X0420930Y0317813D01*
X0420904Y0317972D01*
X0420883Y0318131D01*
X0420865Y0318291D01*
X0420851Y0318451D01*
X0420841Y0318612D01*
X0420835Y0318772D01*
X0420833Y0318933D01*
X0136833Y0440933D02*
X0136835Y0441094D01*
X0136841Y0441254D01*
X0136851Y0441415D01*
X0136865Y0441575D01*
X0136883Y0441735D01*
X0136904Y0441894D01*
X0136930Y0442053D01*
X0136960Y0442211D01*
X0136993Y0442368D01*
X0137031Y0442525D01*
X0137072Y0442680D01*
X0137117Y0442834D01*
X0137166Y0442987D01*
X0137219Y0443139D01*
X0137275Y0443290D01*
X0137336Y0443439D01*
X0137399Y0443587D01*
X0137467Y0443733D01*
X0137538Y0443877D01*
X0137612Y0444019D01*
X0137690Y0444160D01*
X0137772Y0444298D01*
X0137857Y0444435D01*
X0137945Y0444569D01*
X0138037Y0444701D01*
X0138132Y0444831D01*
X0138230Y0444959D01*
X0138331Y0445084D01*
X0138435Y0445206D01*
X0138542Y0445326D01*
X0138652Y0445443D01*
X0138765Y0445558D01*
X0138881Y0445669D01*
X0139000Y0445778D01*
X0139121Y0445883D01*
X0139245Y0445986D01*
X0139371Y0446086D01*
X0139499Y0446182D01*
X0139630Y0446275D01*
X0139764Y0446365D01*
X0139899Y0446452D01*
X0140037Y0446535D01*
X0140176Y0446615D01*
X0140318Y0446691D01*
X0140461Y0446764D01*
X0140606Y0446833D01*
X0140753Y0446899D01*
X0140901Y0446961D01*
X0141051Y0447019D01*
X0141202Y0447074D01*
X0141355Y0447125D01*
X0141509Y0447172D01*
X0141664Y0447215D01*
X0141820Y0447254D01*
X0141976Y0447290D01*
X0142134Y0447321D01*
X0142292Y0447349D01*
X0142451Y0447373D01*
X0142611Y0447393D01*
X0142771Y0447409D01*
X0142931Y0447421D01*
X0143092Y0447429D01*
X0143253Y0447433D01*
X0143413Y0447433D01*
X0143574Y0447429D01*
X0143735Y0447421D01*
X0143895Y0447409D01*
X0144055Y0447393D01*
X0144215Y0447373D01*
X0144374Y0447349D01*
X0144532Y0447321D01*
X0144690Y0447290D01*
X0144846Y0447254D01*
X0145002Y0447215D01*
X0145157Y0447172D01*
X0145311Y0447125D01*
X0145464Y0447074D01*
X0145615Y0447019D01*
X0145765Y0446961D01*
X0145913Y0446899D01*
X0146060Y0446833D01*
X0146205Y0446764D01*
X0146348Y0446691D01*
X0146490Y0446615D01*
X0146629Y0446535D01*
X0146767Y0446452D01*
X0146902Y0446365D01*
X0147036Y0446275D01*
X0147167Y0446182D01*
X0147295Y0446086D01*
X0147421Y0445986D01*
X0147545Y0445883D01*
X0147666Y0445778D01*
X0147785Y0445669D01*
X0147901Y0445558D01*
X0148014Y0445443D01*
X0148124Y0445326D01*
X0148231Y0445206D01*
X0148335Y0445084D01*
X0148436Y0444959D01*
X0148534Y0444831D01*
X0148629Y0444701D01*
X0148721Y0444569D01*
X0148809Y0444435D01*
X0148894Y0444298D01*
X0148976Y0444160D01*
X0149054Y0444019D01*
X0149128Y0443877D01*
X0149199Y0443733D01*
X0149267Y0443587D01*
X0149330Y0443439D01*
X0149391Y0443290D01*
X0149447Y0443139D01*
X0149500Y0442987D01*
X0149549Y0442834D01*
X0149594Y0442680D01*
X0149635Y0442525D01*
X0149673Y0442368D01*
X0149706Y0442211D01*
X0149736Y0442053D01*
X0149762Y0441894D01*
X0149783Y0441735D01*
X0149801Y0441575D01*
X0149815Y0441415D01*
X0149825Y0441254D01*
X0149831Y0441094D01*
X0149833Y0440933D01*
X0149831Y0440772D01*
X0149825Y0440612D01*
X0149815Y0440451D01*
X0149801Y0440291D01*
X0149783Y0440131D01*
X0149762Y0439972D01*
X0149736Y0439813D01*
X0149706Y0439655D01*
X0149673Y0439498D01*
X0149635Y0439341D01*
X0149594Y0439186D01*
X0149549Y0439032D01*
X0149500Y0438879D01*
X0149447Y0438727D01*
X0149391Y0438576D01*
X0149330Y0438427D01*
X0149267Y0438279D01*
X0149199Y0438133D01*
X0149128Y0437989D01*
X0149054Y0437847D01*
X0148976Y0437706D01*
X0148894Y0437568D01*
X0148809Y0437431D01*
X0148721Y0437297D01*
X0148629Y0437165D01*
X0148534Y0437035D01*
X0148436Y0436907D01*
X0148335Y0436782D01*
X0148231Y0436660D01*
X0148124Y0436540D01*
X0148014Y0436423D01*
X0147901Y0436308D01*
X0147785Y0436197D01*
X0147666Y0436088D01*
X0147545Y0435983D01*
X0147421Y0435880D01*
X0147295Y0435780D01*
X0147167Y0435684D01*
X0147036Y0435591D01*
X0146902Y0435501D01*
X0146767Y0435414D01*
X0146629Y0435331D01*
X0146490Y0435251D01*
X0146348Y0435175D01*
X0146205Y0435102D01*
X0146060Y0435033D01*
X0145913Y0434967D01*
X0145765Y0434905D01*
X0145615Y0434847D01*
X0145464Y0434792D01*
X0145311Y0434741D01*
X0145157Y0434694D01*
X0145002Y0434651D01*
X0144846Y0434612D01*
X0144690Y0434576D01*
X0144532Y0434545D01*
X0144374Y0434517D01*
X0144215Y0434493D01*
X0144055Y0434473D01*
X0143895Y0434457D01*
X0143735Y0434445D01*
X0143574Y0434437D01*
X0143413Y0434433D01*
X0143253Y0434433D01*
X0143092Y0434437D01*
X0142931Y0434445D01*
X0142771Y0434457D01*
X0142611Y0434473D01*
X0142451Y0434493D01*
X0142292Y0434517D01*
X0142134Y0434545D01*
X0141976Y0434576D01*
X0141820Y0434612D01*
X0141664Y0434651D01*
X0141509Y0434694D01*
X0141355Y0434741D01*
X0141202Y0434792D01*
X0141051Y0434847D01*
X0140901Y0434905D01*
X0140753Y0434967D01*
X0140606Y0435033D01*
X0140461Y0435102D01*
X0140318Y0435175D01*
X0140176Y0435251D01*
X0140037Y0435331D01*
X0139899Y0435414D01*
X0139764Y0435501D01*
X0139630Y0435591D01*
X0139499Y0435684D01*
X0139371Y0435780D01*
X0139245Y0435880D01*
X0139121Y0435983D01*
X0139000Y0436088D01*
X0138881Y0436197D01*
X0138765Y0436308D01*
X0138652Y0436423D01*
X0138542Y0436540D01*
X0138435Y0436660D01*
X0138331Y0436782D01*
X0138230Y0436907D01*
X0138132Y0437035D01*
X0138037Y0437165D01*
X0137945Y0437297D01*
X0137857Y0437431D01*
X0137772Y0437568D01*
X0137690Y0437706D01*
X0137612Y0437847D01*
X0137538Y0437989D01*
X0137467Y0438133D01*
X0137399Y0438279D01*
X0137336Y0438427D01*
X0137275Y0438576D01*
X0137219Y0438727D01*
X0137166Y0438879D01*
X0137117Y0439032D01*
X0137072Y0439186D01*
X0137031Y0439341D01*
X0136993Y0439498D01*
X0136960Y0439655D01*
X0136930Y0439813D01*
X0136904Y0439972D01*
X0136883Y0440131D01*
X0136865Y0440291D01*
X0136851Y0440451D01*
X0136841Y0440612D01*
X0136835Y0440772D01*
X0136833Y0440933D01*
X0136833Y0520933D02*
X0136835Y0521094D01*
X0136841Y0521254D01*
X0136851Y0521415D01*
X0136865Y0521575D01*
X0136883Y0521735D01*
X0136904Y0521894D01*
X0136930Y0522053D01*
X0136960Y0522211D01*
X0136993Y0522368D01*
X0137031Y0522525D01*
X0137072Y0522680D01*
X0137117Y0522834D01*
X0137166Y0522987D01*
X0137219Y0523139D01*
X0137275Y0523290D01*
X0137336Y0523439D01*
X0137399Y0523587D01*
X0137467Y0523733D01*
X0137538Y0523877D01*
X0137612Y0524019D01*
X0137690Y0524160D01*
X0137772Y0524298D01*
X0137857Y0524435D01*
X0137945Y0524569D01*
X0138037Y0524701D01*
X0138132Y0524831D01*
X0138230Y0524959D01*
X0138331Y0525084D01*
X0138435Y0525206D01*
X0138542Y0525326D01*
X0138652Y0525443D01*
X0138765Y0525558D01*
X0138881Y0525669D01*
X0139000Y0525778D01*
X0139121Y0525883D01*
X0139245Y0525986D01*
X0139371Y0526086D01*
X0139499Y0526182D01*
X0139630Y0526275D01*
X0139764Y0526365D01*
X0139899Y0526452D01*
X0140037Y0526535D01*
X0140176Y0526615D01*
X0140318Y0526691D01*
X0140461Y0526764D01*
X0140606Y0526833D01*
X0140753Y0526899D01*
X0140901Y0526961D01*
X0141051Y0527019D01*
X0141202Y0527074D01*
X0141355Y0527125D01*
X0141509Y0527172D01*
X0141664Y0527215D01*
X0141820Y0527254D01*
X0141976Y0527290D01*
X0142134Y0527321D01*
X0142292Y0527349D01*
X0142451Y0527373D01*
X0142611Y0527393D01*
X0142771Y0527409D01*
X0142931Y0527421D01*
X0143092Y0527429D01*
X0143253Y0527433D01*
X0143413Y0527433D01*
X0143574Y0527429D01*
X0143735Y0527421D01*
X0143895Y0527409D01*
X0144055Y0527393D01*
X0144215Y0527373D01*
X0144374Y0527349D01*
X0144532Y0527321D01*
X0144690Y0527290D01*
X0144846Y0527254D01*
X0145002Y0527215D01*
X0145157Y0527172D01*
X0145311Y0527125D01*
X0145464Y0527074D01*
X0145615Y0527019D01*
X0145765Y0526961D01*
X0145913Y0526899D01*
X0146060Y0526833D01*
X0146205Y0526764D01*
X0146348Y0526691D01*
X0146490Y0526615D01*
X0146629Y0526535D01*
X0146767Y0526452D01*
X0146902Y0526365D01*
X0147036Y0526275D01*
X0147167Y0526182D01*
X0147295Y0526086D01*
X0147421Y0525986D01*
X0147545Y0525883D01*
X0147666Y0525778D01*
X0147785Y0525669D01*
X0147901Y0525558D01*
X0148014Y0525443D01*
X0148124Y0525326D01*
X0148231Y0525206D01*
X0148335Y0525084D01*
X0148436Y0524959D01*
X0148534Y0524831D01*
X0148629Y0524701D01*
X0148721Y0524569D01*
X0148809Y0524435D01*
X0148894Y0524298D01*
X0148976Y0524160D01*
X0149054Y0524019D01*
X0149128Y0523877D01*
X0149199Y0523733D01*
X0149267Y0523587D01*
X0149330Y0523439D01*
X0149391Y0523290D01*
X0149447Y0523139D01*
X0149500Y0522987D01*
X0149549Y0522834D01*
X0149594Y0522680D01*
X0149635Y0522525D01*
X0149673Y0522368D01*
X0149706Y0522211D01*
X0149736Y0522053D01*
X0149762Y0521894D01*
X0149783Y0521735D01*
X0149801Y0521575D01*
X0149815Y0521415D01*
X0149825Y0521254D01*
X0149831Y0521094D01*
X0149833Y0520933D01*
X0149831Y0520772D01*
X0149825Y0520612D01*
X0149815Y0520451D01*
X0149801Y0520291D01*
X0149783Y0520131D01*
X0149762Y0519972D01*
X0149736Y0519813D01*
X0149706Y0519655D01*
X0149673Y0519498D01*
X0149635Y0519341D01*
X0149594Y0519186D01*
X0149549Y0519032D01*
X0149500Y0518879D01*
X0149447Y0518727D01*
X0149391Y0518576D01*
X0149330Y0518427D01*
X0149267Y0518279D01*
X0149199Y0518133D01*
X0149128Y0517989D01*
X0149054Y0517847D01*
X0148976Y0517706D01*
X0148894Y0517568D01*
X0148809Y0517431D01*
X0148721Y0517297D01*
X0148629Y0517165D01*
X0148534Y0517035D01*
X0148436Y0516907D01*
X0148335Y0516782D01*
X0148231Y0516660D01*
X0148124Y0516540D01*
X0148014Y0516423D01*
X0147901Y0516308D01*
X0147785Y0516197D01*
X0147666Y0516088D01*
X0147545Y0515983D01*
X0147421Y0515880D01*
X0147295Y0515780D01*
X0147167Y0515684D01*
X0147036Y0515591D01*
X0146902Y0515501D01*
X0146767Y0515414D01*
X0146629Y0515331D01*
X0146490Y0515251D01*
X0146348Y0515175D01*
X0146205Y0515102D01*
X0146060Y0515033D01*
X0145913Y0514967D01*
X0145765Y0514905D01*
X0145615Y0514847D01*
X0145464Y0514792D01*
X0145311Y0514741D01*
X0145157Y0514694D01*
X0145002Y0514651D01*
X0144846Y0514612D01*
X0144690Y0514576D01*
X0144532Y0514545D01*
X0144374Y0514517D01*
X0144215Y0514493D01*
X0144055Y0514473D01*
X0143895Y0514457D01*
X0143735Y0514445D01*
X0143574Y0514437D01*
X0143413Y0514433D01*
X0143253Y0514433D01*
X0143092Y0514437D01*
X0142931Y0514445D01*
X0142771Y0514457D01*
X0142611Y0514473D01*
X0142451Y0514493D01*
X0142292Y0514517D01*
X0142134Y0514545D01*
X0141976Y0514576D01*
X0141820Y0514612D01*
X0141664Y0514651D01*
X0141509Y0514694D01*
X0141355Y0514741D01*
X0141202Y0514792D01*
X0141051Y0514847D01*
X0140901Y0514905D01*
X0140753Y0514967D01*
X0140606Y0515033D01*
X0140461Y0515102D01*
X0140318Y0515175D01*
X0140176Y0515251D01*
X0140037Y0515331D01*
X0139899Y0515414D01*
X0139764Y0515501D01*
X0139630Y0515591D01*
X0139499Y0515684D01*
X0139371Y0515780D01*
X0139245Y0515880D01*
X0139121Y0515983D01*
X0139000Y0516088D01*
X0138881Y0516197D01*
X0138765Y0516308D01*
X0138652Y0516423D01*
X0138542Y0516540D01*
X0138435Y0516660D01*
X0138331Y0516782D01*
X0138230Y0516907D01*
X0138132Y0517035D01*
X0138037Y0517165D01*
X0137945Y0517297D01*
X0137857Y0517431D01*
X0137772Y0517568D01*
X0137690Y0517706D01*
X0137612Y0517847D01*
X0137538Y0517989D01*
X0137467Y0518133D01*
X0137399Y0518279D01*
X0137336Y0518427D01*
X0137275Y0518576D01*
X0137219Y0518727D01*
X0137166Y0518879D01*
X0137117Y0519032D01*
X0137072Y0519186D01*
X0137031Y0519341D01*
X0136993Y0519498D01*
X0136960Y0519655D01*
X0136930Y0519813D01*
X0136904Y0519972D01*
X0136883Y0520131D01*
X0136865Y0520291D01*
X0136851Y0520451D01*
X0136841Y0520612D01*
X0136835Y0520772D01*
X0136833Y0520933D01*
M02*
