%
M48
M72
T01C0.0138
T02C0.0150
T03C0.0200
T04C0.0350
T05C0.0354
T06C0.0400
T07C0.0550
T08C0.1300
%
T01
X15333Y25893
X14633Y26693
X17083Y30543
X24833Y26693
X25533Y25893
X27283Y30543
X35033Y26693
X35733Y25893
X37483Y30543
X35733Y46093
X35033Y46893
X37483Y50743
X27283Y50743
X24833Y46893
X25533Y46093
X17083Y50743
X14633Y46893
X15333Y46093
T02
X17833Y47093
X19333Y49093
X20333Y48093
X21433Y44593
X26033Y51093
X29533Y49093
X30533Y48093
X28033Y47093
X31633Y44593
X36233Y51093
X39733Y49093
X40733Y48093
X38233Y47093
X41833Y44593
X36233Y30893
X39733Y28893
X40733Y27893
X38233Y26893
X41833Y24393
X31633Y24393
X30533Y27893
X29533Y28893
X28033Y26893
X26033Y30893
X20333Y27893
X19333Y28893
X17833Y26893
X21433Y24393
X15833Y30893
X15833Y51093
T03
X17333Y45593
X17333Y44593
X18333Y44593
X18333Y45593
X19333Y45593
X19333Y44593
X27533Y44593
X27533Y45593
X28533Y45593
X28533Y44593
X29533Y44593
X29533Y45593
X37733Y45593
X37733Y44593
X38733Y44593
X38733Y45593
X39733Y45593
X39733Y44593
X39733Y25393
X38733Y25393
X37733Y25393
X37733Y24393
X38733Y24393
X39733Y24393
X29533Y24393
X28533Y24393
X27533Y24393
X27533Y25393
X28533Y25393
X29533Y25393
X19333Y25393
X18333Y25393
X17333Y25393
X17333Y24393
X18333Y24393
X19333Y24393
T04
X24533Y18893
X24533Y17893
X24533Y16893
X27533Y13893
X28533Y13893
X29533Y13893
X34733Y16893
X34733Y17893
X34733Y18893
X37733Y13893
X38733Y13893
X39733Y13893
X39733Y34093
X38733Y34093
X37733Y34093
X34733Y37093
X34733Y38093
X34733Y39093
X29533Y34093
X28533Y34093
X27533Y34093
X24533Y37093
X24533Y38093
X24533Y39093
X19333Y34093
X18333Y34093
X17333Y34093
X14333Y37093
X14333Y38093
X14333Y39093
X14333Y18893
X14333Y17893
X14333Y16893
X17333Y13893
X18333Y13893
X19333Y13893
T05
X19583Y20893
X19583Y22893
X17083Y22893
X17083Y20893
X27283Y20893
X27283Y22893
X29783Y22893
X29783Y20893
X37483Y20893
X37483Y22893
X39983Y22893
X39983Y20893
X39983Y41093
X39983Y43093
X37483Y43093
X37483Y41093
X29783Y41093
X29783Y43093
X27283Y43093
X27283Y41093
X19583Y41093
X19583Y43093
X17083Y43093
X17083Y41093
T06
X16833Y32393
X17833Y32393
X18833Y32393
X19833Y32393
X27033Y32393
X28033Y32393
X29033Y32393
X30033Y32393
X37233Y32393
X38233Y32393
X39233Y32393
X40233Y32393
X40233Y52593
X39233Y52593
X38233Y52593
X37233Y52593
X30033Y52593
X29033Y52593
X28033Y52593
X27033Y52593
X19833Y52593
X18833Y52593
X17833Y52593
X16833Y52593
T07
X15333Y15268
X15333Y20518
X21333Y20518
X25533Y20518
X25533Y15268
X21333Y15268
X31533Y15268
X35733Y15268
X35733Y20518
X31533Y20518
X41733Y20518
X41733Y15268
X41733Y35468
X41733Y40718
X35733Y40718
X31533Y40718
X31533Y35468
X35733Y35468
X25533Y35468
X21333Y35468
X21333Y40718
X25533Y40718
X15333Y40718
X15333Y35468
T08
X14333Y31893
X14333Y23893
X22333Y23893
X24533Y23893
X24533Y31893
X22333Y31893
X32533Y31893
X34733Y31893
X34733Y23893
X32533Y23893
X42733Y23893
X42733Y31893
X42733Y44093
X42733Y52093
X34733Y52093
X32533Y52093
X32533Y44093
X34733Y44093
X24533Y44093
X22333Y44093
X22333Y52093
X24533Y52093
X14333Y52093
X14333Y44093
M30
