G75*
%MOIN*%
%OFA0B0*%
%FSLAX25Y25*%
%IPPOS*%
%LPD*%
%AMOC8*
5,1,8,0,0,1.08239X$1,22.5*
%
%ADD10R,0.04331X0.03937*%
%ADD11C,0.01181*%
%ADD12R,0.07874X0.04724*%
%ADD13R,0.05315X0.02362*%
%ADD14R,0.06000X0.03000*%
D10*
X0154987Y0293933D03*
X0161680Y0293933D03*
X0161680Y0303933D03*
X0154987Y0303933D03*
X0179987Y0303933D03*
X0186680Y0303933D03*
X0204987Y0303933D03*
X0211680Y0303933D03*
X0211680Y0293933D03*
X0204987Y0293933D03*
X0256987Y0293933D03*
X0263680Y0293933D03*
X0263680Y0303933D03*
X0256987Y0303933D03*
X0281987Y0303933D03*
X0288680Y0303933D03*
X0306987Y0303933D03*
X0313680Y0303933D03*
X0313680Y0293933D03*
X0306987Y0293933D03*
X0358987Y0293933D03*
X0365680Y0293933D03*
X0365680Y0303933D03*
X0358987Y0303933D03*
X0383987Y0303933D03*
X0390680Y0303933D03*
X0408987Y0303933D03*
X0415680Y0303933D03*
X0415680Y0293933D03*
X0408987Y0293933D03*
X0408987Y0495933D03*
X0415680Y0495933D03*
X0415680Y0505933D03*
X0408987Y0505933D03*
X0390680Y0505933D03*
X0383987Y0505933D03*
X0365680Y0505933D03*
X0358987Y0505933D03*
X0358987Y0495933D03*
X0365680Y0495933D03*
X0313680Y0495933D03*
X0306987Y0495933D03*
X0306987Y0505933D03*
X0313680Y0505933D03*
X0288680Y0505933D03*
X0281987Y0505933D03*
X0263680Y0505933D03*
X0256987Y0505933D03*
X0256987Y0495933D03*
X0263680Y0495933D03*
X0211680Y0495933D03*
X0204987Y0495933D03*
X0204987Y0505933D03*
X0211680Y0505933D03*
X0186680Y0505933D03*
X0179987Y0505933D03*
X0161680Y0505933D03*
X0154987Y0505933D03*
X0154987Y0495933D03*
X0161680Y0495933D03*
D11*
X0181259Y0497311D02*
X0181259Y0494555D01*
X0178503Y0494555D01*
X0178503Y0497311D01*
X0181259Y0497311D01*
X0181259Y0495677D02*
X0178503Y0495677D01*
X0178503Y0496799D02*
X0181259Y0496799D01*
X0188164Y0497311D02*
X0188164Y0494555D01*
X0185408Y0494555D01*
X0185408Y0497311D01*
X0188164Y0497311D01*
X0188164Y0495677D02*
X0185408Y0495677D01*
X0185408Y0496799D02*
X0188164Y0496799D01*
X0283259Y0497311D02*
X0283259Y0494555D01*
X0280503Y0494555D01*
X0280503Y0497311D01*
X0283259Y0497311D01*
X0283259Y0495677D02*
X0280503Y0495677D01*
X0280503Y0496799D02*
X0283259Y0496799D01*
X0290164Y0497311D02*
X0290164Y0494555D01*
X0287408Y0494555D01*
X0287408Y0497311D01*
X0290164Y0497311D01*
X0290164Y0495677D02*
X0287408Y0495677D01*
X0287408Y0496799D02*
X0290164Y0496799D01*
X0385259Y0497311D02*
X0385259Y0494555D01*
X0382503Y0494555D01*
X0382503Y0497311D01*
X0385259Y0497311D01*
X0385259Y0495677D02*
X0382503Y0495677D01*
X0382503Y0496799D02*
X0385259Y0496799D01*
X0392164Y0497311D02*
X0392164Y0494555D01*
X0389408Y0494555D01*
X0389408Y0497311D01*
X0392164Y0497311D01*
X0392164Y0495677D02*
X0389408Y0495677D01*
X0389408Y0496799D02*
X0392164Y0496799D01*
X0392164Y0295311D02*
X0392164Y0292555D01*
X0389408Y0292555D01*
X0389408Y0295311D01*
X0392164Y0295311D01*
X0392164Y0293677D02*
X0389408Y0293677D01*
X0389408Y0294799D02*
X0392164Y0294799D01*
X0385259Y0295311D02*
X0385259Y0292555D01*
X0382503Y0292555D01*
X0382503Y0295311D01*
X0385259Y0295311D01*
X0385259Y0293677D02*
X0382503Y0293677D01*
X0382503Y0294799D02*
X0385259Y0294799D01*
X0290164Y0295311D02*
X0290164Y0292555D01*
X0287408Y0292555D01*
X0287408Y0295311D01*
X0290164Y0295311D01*
X0290164Y0293677D02*
X0287408Y0293677D01*
X0287408Y0294799D02*
X0290164Y0294799D01*
X0283259Y0295311D02*
X0283259Y0292555D01*
X0280503Y0292555D01*
X0280503Y0295311D01*
X0283259Y0295311D01*
X0283259Y0293677D02*
X0280503Y0293677D01*
X0280503Y0294799D02*
X0283259Y0294799D01*
X0188164Y0295311D02*
X0188164Y0292555D01*
X0185408Y0292555D01*
X0185408Y0295311D01*
X0188164Y0295311D01*
X0188164Y0293677D02*
X0185408Y0293677D01*
X0185408Y0294799D02*
X0188164Y0294799D01*
X0181259Y0295311D02*
X0181259Y0292555D01*
X0178503Y0292555D01*
X0178503Y0295311D01*
X0181259Y0295311D01*
X0181259Y0293677D02*
X0178503Y0293677D01*
X0178503Y0294799D02*
X0181259Y0294799D01*
D12*
X0138865Y0257909D03*
X0138865Y0279957D03*
X0227802Y0279957D03*
X0240865Y0279957D03*
X0240865Y0257909D03*
X0227802Y0257909D03*
X0329802Y0257909D03*
X0342865Y0257909D03*
X0342865Y0279957D03*
X0329802Y0279957D03*
X0431802Y0279957D03*
X0431802Y0257909D03*
X0431802Y0459909D03*
X0431802Y0481957D03*
X0342865Y0481957D03*
X0329802Y0481957D03*
X0329802Y0459909D03*
X0342865Y0459909D03*
X0240865Y0459909D03*
X0227802Y0459909D03*
X0227802Y0481957D03*
X0240865Y0481957D03*
X0138865Y0481957D03*
X0138865Y0459909D03*
D13*
X0153333Y0465028D03*
X0153333Y0468965D03*
X0153333Y0472902D03*
X0153333Y0476839D03*
X0213333Y0476839D03*
X0213333Y0472902D03*
X0213333Y0468965D03*
X0213333Y0465028D03*
X0255333Y0465028D03*
X0255333Y0468965D03*
X0255333Y0472902D03*
X0255333Y0476839D03*
X0315333Y0476839D03*
X0315333Y0472902D03*
X0315333Y0468965D03*
X0315333Y0465028D03*
X0357333Y0465028D03*
X0357333Y0468965D03*
X0357333Y0472902D03*
X0357333Y0476839D03*
X0417333Y0476839D03*
X0417333Y0472902D03*
X0417333Y0468965D03*
X0417333Y0465028D03*
X0417333Y0274839D03*
X0417333Y0270902D03*
X0417333Y0266965D03*
X0417333Y0263028D03*
X0357333Y0263028D03*
X0357333Y0266965D03*
X0357333Y0270902D03*
X0357333Y0274839D03*
X0315333Y0274839D03*
X0315333Y0270902D03*
X0315333Y0266965D03*
X0315333Y0263028D03*
X0255333Y0263028D03*
X0255333Y0266965D03*
X0255333Y0270902D03*
X0255333Y0274839D03*
X0213333Y0274839D03*
X0213333Y0270902D03*
X0213333Y0266965D03*
X0213333Y0263028D03*
X0153333Y0263028D03*
X0153333Y0266965D03*
X0153333Y0270902D03*
X0153333Y0274839D03*
D14*
X0168833Y0276433D03*
X0168833Y0271433D03*
X0168833Y0266433D03*
X0168833Y0261433D03*
X0198007Y0261433D03*
X0198007Y0266433D03*
X0198007Y0271433D03*
X0198007Y0276433D03*
X0270833Y0276433D03*
X0270833Y0271433D03*
X0270833Y0266433D03*
X0270833Y0261433D03*
X0300007Y0261433D03*
X0300007Y0266433D03*
X0300007Y0271433D03*
X0300007Y0276433D03*
X0372833Y0276433D03*
X0372833Y0271433D03*
X0372833Y0266433D03*
X0372833Y0261433D03*
X0402007Y0261433D03*
X0402007Y0266433D03*
X0402007Y0271433D03*
X0402007Y0276433D03*
X0402007Y0463433D03*
X0402007Y0468433D03*
X0402007Y0473433D03*
X0402007Y0478433D03*
X0372833Y0478433D03*
X0372833Y0473433D03*
X0372833Y0468433D03*
X0372833Y0463433D03*
X0300007Y0463433D03*
X0300007Y0468433D03*
X0300007Y0473433D03*
X0300007Y0478433D03*
X0270833Y0478433D03*
X0270833Y0473433D03*
X0270833Y0468433D03*
X0270833Y0463433D03*
X0198007Y0463433D03*
X0198007Y0468433D03*
X0198007Y0473433D03*
X0198007Y0478433D03*
X0168833Y0478433D03*
X0168833Y0473433D03*
X0168833Y0468433D03*
X0168833Y0463433D03*
M02*
