G75*
%MOIN*%
%OFA0B0*%
%FSLAX25Y25*%
%IPPOS*%
%LPD*%
%AMOC8*
5,1,8,0,0,1.08239X$1,22.5*
%
%ADD10C,0.13800*%
%ADD11C,0.08200*%
%ADD12C,0.04808*%
%ADD13R,0.05800X0.03300*%
%ADD14C,0.00500*%
%ADD15C,0.09800*%
%ADD16C,0.07800*%
D10*
X0143333Y0238933D03*
X0143333Y0318933D03*
X0223333Y0318933D03*
X0245333Y0318933D03*
X0245333Y0238933D03*
X0223333Y0238933D03*
X0325333Y0238933D03*
X0347333Y0238933D03*
X0347333Y0318933D03*
X0325333Y0318933D03*
X0427333Y0318933D03*
X0427333Y0238933D03*
X0427333Y0440933D03*
X0427333Y0520933D03*
X0347333Y0520933D03*
X0325333Y0520933D03*
X0325333Y0440933D03*
X0347333Y0440933D03*
X0245333Y0440933D03*
X0223333Y0440933D03*
X0223333Y0520933D03*
X0245333Y0520933D03*
X0143333Y0520933D03*
X0143333Y0440933D03*
D11*
X0168333Y0525933D03*
X0178333Y0525933D03*
X0188333Y0525933D03*
X0198333Y0525933D03*
X0270333Y0525933D03*
X0280333Y0525933D03*
X0290333Y0525933D03*
X0300333Y0525933D03*
X0372333Y0525933D03*
X0382333Y0525933D03*
X0392333Y0525933D03*
X0402333Y0525933D03*
X0402333Y0323933D03*
X0392333Y0323933D03*
X0382333Y0323933D03*
X0372333Y0323933D03*
X0300333Y0323933D03*
X0290333Y0323933D03*
X0280333Y0323933D03*
X0270333Y0323933D03*
X0198333Y0323933D03*
X0188333Y0323933D03*
X0178333Y0323933D03*
X0168333Y0323933D03*
D12*
X0173333Y0253933D03*
X0173333Y0243933D03*
X0183333Y0243933D03*
X0183333Y0253933D03*
X0193333Y0253933D03*
X0193333Y0243933D03*
X0275333Y0243933D03*
X0275333Y0253933D03*
X0285333Y0253933D03*
X0285333Y0243933D03*
X0295333Y0243933D03*
X0295333Y0253933D03*
X0377333Y0253933D03*
X0377333Y0243933D03*
X0387333Y0243933D03*
X0387333Y0253933D03*
X0397333Y0253933D03*
X0397333Y0243933D03*
X0397333Y0445933D03*
X0387333Y0445933D03*
X0377333Y0445933D03*
X0377333Y0455933D03*
X0387333Y0455933D03*
X0397333Y0455933D03*
X0295333Y0455933D03*
X0285333Y0455933D03*
X0275333Y0455933D03*
X0275333Y0445933D03*
X0285333Y0445933D03*
X0295333Y0445933D03*
X0193333Y0445933D03*
X0183333Y0445933D03*
X0173333Y0445933D03*
X0173333Y0455933D03*
X0183333Y0455933D03*
X0193333Y0455933D03*
D13*
X0148333Y0496933D03*
X0148333Y0500933D03*
X0148333Y0504933D03*
X0250333Y0504933D03*
X0250333Y0500933D03*
X0250333Y0496933D03*
X0352333Y0496933D03*
X0352333Y0500933D03*
X0352333Y0504933D03*
X0352333Y0302933D03*
X0352333Y0298933D03*
X0352333Y0294933D03*
X0250333Y0294933D03*
X0250333Y0298933D03*
X0250333Y0302933D03*
X0148333Y0302933D03*
X0148333Y0298933D03*
X0148333Y0294933D03*
D14*
X0147833Y0296183D02*
X0148833Y0296183D01*
X0148833Y0301683D01*
X0147833Y0301683D01*
X0147833Y0296183D01*
X0147833Y0296433D02*
X0148833Y0296433D01*
X0148833Y0296931D02*
X0147833Y0296931D01*
X0147833Y0297430D02*
X0148833Y0297430D01*
X0148833Y0297928D02*
X0147833Y0297928D01*
X0147833Y0298427D02*
X0148833Y0298427D01*
X0148833Y0298925D02*
X0147833Y0298925D01*
X0147833Y0299424D02*
X0148833Y0299424D01*
X0148833Y0299922D02*
X0147833Y0299922D01*
X0147833Y0300421D02*
X0148833Y0300421D01*
X0148833Y0300919D02*
X0147833Y0300919D01*
X0147833Y0301418D02*
X0148833Y0301418D01*
X0249833Y0301418D02*
X0250833Y0301418D01*
X0250833Y0301683D02*
X0249833Y0301683D01*
X0249833Y0296183D01*
X0250833Y0296183D01*
X0250833Y0301683D01*
X0250833Y0300919D02*
X0249833Y0300919D01*
X0249833Y0300421D02*
X0250833Y0300421D01*
X0250833Y0299922D02*
X0249833Y0299922D01*
X0249833Y0299424D02*
X0250833Y0299424D01*
X0250833Y0298925D02*
X0249833Y0298925D01*
X0249833Y0298427D02*
X0250833Y0298427D01*
X0250833Y0297928D02*
X0249833Y0297928D01*
X0249833Y0297430D02*
X0250833Y0297430D01*
X0250833Y0296931D02*
X0249833Y0296931D01*
X0249833Y0296433D02*
X0250833Y0296433D01*
X0351833Y0296433D02*
X0352833Y0296433D01*
X0352833Y0296183D02*
X0352833Y0301683D01*
X0351833Y0301683D01*
X0351833Y0296183D01*
X0352833Y0296183D01*
X0352833Y0296931D02*
X0351833Y0296931D01*
X0351833Y0297430D02*
X0352833Y0297430D01*
X0352833Y0297928D02*
X0351833Y0297928D01*
X0351833Y0298427D02*
X0352833Y0298427D01*
X0352833Y0298925D02*
X0351833Y0298925D01*
X0351833Y0299424D02*
X0352833Y0299424D01*
X0352833Y0299922D02*
X0351833Y0299922D01*
X0351833Y0300421D02*
X0352833Y0300421D01*
X0352833Y0300919D02*
X0351833Y0300919D01*
X0351833Y0301418D02*
X0352833Y0301418D01*
X0352833Y0498183D02*
X0352833Y0503683D01*
X0351833Y0503683D01*
X0351833Y0498183D01*
X0352833Y0498183D01*
X0352833Y0498330D02*
X0351833Y0498330D01*
X0351833Y0498828D02*
X0352833Y0498828D01*
X0352833Y0499327D02*
X0351833Y0499327D01*
X0351833Y0499825D02*
X0352833Y0499825D01*
X0352833Y0500324D02*
X0351833Y0500324D01*
X0351833Y0500823D02*
X0352833Y0500823D01*
X0352833Y0501321D02*
X0351833Y0501321D01*
X0351833Y0501820D02*
X0352833Y0501820D01*
X0352833Y0502318D02*
X0351833Y0502318D01*
X0351833Y0502817D02*
X0352833Y0502817D01*
X0352833Y0503315D02*
X0351833Y0503315D01*
X0250833Y0503315D02*
X0249833Y0503315D01*
X0249833Y0503683D02*
X0249833Y0498183D01*
X0250833Y0498183D01*
X0250833Y0503683D01*
X0249833Y0503683D01*
X0249833Y0502817D02*
X0250833Y0502817D01*
X0250833Y0502318D02*
X0249833Y0502318D01*
X0249833Y0501820D02*
X0250833Y0501820D01*
X0250833Y0501321D02*
X0249833Y0501321D01*
X0249833Y0500823D02*
X0250833Y0500823D01*
X0250833Y0500324D02*
X0249833Y0500324D01*
X0249833Y0499825D02*
X0250833Y0499825D01*
X0250833Y0499327D02*
X0249833Y0499327D01*
X0249833Y0498828D02*
X0250833Y0498828D01*
X0250833Y0498330D02*
X0249833Y0498330D01*
X0148833Y0498330D02*
X0147833Y0498330D01*
X0147833Y0498183D02*
X0148833Y0498183D01*
X0148833Y0503683D01*
X0147833Y0503683D01*
X0147833Y0498183D01*
X0147833Y0498828D02*
X0148833Y0498828D01*
X0148833Y0499327D02*
X0147833Y0499327D01*
X0147833Y0499825D02*
X0148833Y0499825D01*
X0148833Y0500324D02*
X0147833Y0500324D01*
X0147833Y0500823D02*
X0148833Y0500823D01*
X0148833Y0501321D02*
X0147833Y0501321D01*
X0147833Y0501820D02*
X0148833Y0501820D01*
X0148833Y0502318D02*
X0147833Y0502318D01*
X0147833Y0502817D02*
X0148833Y0502817D01*
X0148833Y0503315D02*
X0147833Y0503315D01*
D15*
X0153333Y0152683D03*
X0153333Y0205183D03*
X0213333Y0205183D03*
X0255333Y0205183D03*
X0255333Y0152683D03*
X0213333Y0152683D03*
X0315333Y0152683D03*
X0357333Y0152683D03*
X0357333Y0205183D03*
X0315333Y0205183D03*
X0417333Y0205183D03*
X0417333Y0152683D03*
X0417333Y0354683D03*
X0417333Y0407183D03*
X0357333Y0407183D03*
X0315333Y0407183D03*
X0315333Y0354683D03*
X0357333Y0354683D03*
X0255333Y0354683D03*
X0213333Y0354683D03*
X0213333Y0407183D03*
X0255333Y0407183D03*
X0153333Y0407183D03*
X0153333Y0354683D03*
D16*
X0143333Y0370933D03*
X0143333Y0380933D03*
X0143333Y0390933D03*
X0170833Y0410933D03*
X0170833Y0430933D03*
X0195833Y0430933D03*
X0195833Y0410933D03*
X0245333Y0390933D03*
X0245333Y0380933D03*
X0245333Y0370933D03*
X0275333Y0340933D03*
X0285333Y0340933D03*
X0295333Y0340933D03*
X0347333Y0370933D03*
X0347333Y0380933D03*
X0347333Y0390933D03*
X0374833Y0410933D03*
X0374833Y0430933D03*
X0399833Y0430933D03*
X0399833Y0410933D03*
X0397333Y0340933D03*
X0387333Y0340933D03*
X0377333Y0340933D03*
X0297833Y0410933D03*
X0297833Y0430933D03*
X0272833Y0430933D03*
X0272833Y0410933D03*
X0193333Y0340933D03*
X0183333Y0340933D03*
X0173333Y0340933D03*
X0170833Y0228933D03*
X0170833Y0208933D03*
X0195833Y0208933D03*
X0195833Y0228933D03*
X0245333Y0188933D03*
X0245333Y0178933D03*
X0245333Y0168933D03*
X0275333Y0138933D03*
X0285333Y0138933D03*
X0295333Y0138933D03*
X0347333Y0168933D03*
X0347333Y0178933D03*
X0347333Y0188933D03*
X0374833Y0208933D03*
X0374833Y0228933D03*
X0399833Y0228933D03*
X0399833Y0208933D03*
X0397333Y0138933D03*
X0387333Y0138933D03*
X0377333Y0138933D03*
X0297833Y0208933D03*
X0297833Y0228933D03*
X0272833Y0228933D03*
X0272833Y0208933D03*
X0193333Y0138933D03*
X0183333Y0138933D03*
X0173333Y0138933D03*
X0143333Y0168933D03*
X0143333Y0178933D03*
X0143333Y0188933D03*
M02*
