G75*
%MOIN*%
%OFA0B0*%
%FSLAX25Y25*%
%IPPOS*%
%LPD*%
%AMOC8*
5,1,8,0,0,1.08239X$1,22.5*
%
%ADD10C,0.07400*%
%ADD11C,0.03200*%
%ADD12R,0.05000X0.02500*%
%ADD13R,0.01000X0.01600*%
%ADD14C,0.09000*%
%ADD15C,0.07000*%
%ADD16C,0.00600*%
%ADD17C,0.02578*%
%ADD18C,0.02700*%
D10*
X0168333Y0323933D03*
X0178333Y0323933D03*
X0188333Y0323933D03*
X0198333Y0323933D03*
X0270333Y0323933D03*
X0280333Y0323933D03*
X0290333Y0323933D03*
X0300333Y0323933D03*
X0372333Y0323933D03*
X0382333Y0323933D03*
X0392333Y0323933D03*
X0402333Y0323933D03*
X0402333Y0525933D03*
X0392333Y0525933D03*
X0382333Y0525933D03*
X0372333Y0525933D03*
X0300333Y0525933D03*
X0290333Y0525933D03*
X0280333Y0525933D03*
X0270333Y0525933D03*
X0198333Y0525933D03*
X0188333Y0525933D03*
X0178333Y0525933D03*
X0168333Y0525933D03*
D11*
X0173333Y0455933D03*
X0173333Y0445933D03*
X0183333Y0445933D03*
X0183333Y0455933D03*
X0193333Y0455933D03*
X0193333Y0445933D03*
X0275333Y0445933D03*
X0275333Y0455933D03*
X0285333Y0455933D03*
X0285333Y0445933D03*
X0295333Y0445933D03*
X0295333Y0455933D03*
X0377333Y0455933D03*
X0377333Y0445933D03*
X0387333Y0445933D03*
X0387333Y0455933D03*
X0397333Y0455933D03*
X0397333Y0445933D03*
X0397333Y0253933D03*
X0387333Y0253933D03*
X0377333Y0253933D03*
X0377333Y0243933D03*
X0387333Y0243933D03*
X0397333Y0243933D03*
X0295333Y0243933D03*
X0285333Y0243933D03*
X0275333Y0243933D03*
X0275333Y0253933D03*
X0285333Y0253933D03*
X0295333Y0253933D03*
X0193333Y0253933D03*
X0183333Y0253933D03*
X0173333Y0253933D03*
X0173333Y0243933D03*
X0183333Y0243933D03*
X0193333Y0243933D03*
D12*
X0148333Y0294933D03*
X0148333Y0298933D03*
X0148333Y0302933D03*
X0250333Y0302933D03*
X0250333Y0298933D03*
X0250333Y0294933D03*
X0352333Y0294933D03*
X0352333Y0298933D03*
X0352333Y0302933D03*
X0352333Y0496933D03*
X0352333Y0500933D03*
X0352333Y0504933D03*
X0250333Y0504933D03*
X0250333Y0500933D03*
X0250333Y0496933D03*
X0148333Y0496933D03*
X0148333Y0500933D03*
X0148333Y0504933D03*
D13*
X0148333Y0502933D03*
X0148333Y0498933D03*
X0250333Y0498933D03*
X0250333Y0502933D03*
X0352333Y0502933D03*
X0352333Y0498933D03*
X0352333Y0300933D03*
X0352333Y0296933D03*
X0250333Y0296933D03*
X0250333Y0300933D03*
X0148333Y0300933D03*
X0148333Y0296933D03*
D14*
X0153333Y0152683D03*
X0153333Y0205183D03*
X0213333Y0205183D03*
X0255333Y0205183D03*
X0255333Y0152683D03*
X0213333Y0152683D03*
X0315333Y0152683D03*
X0357333Y0152683D03*
X0357333Y0205183D03*
X0315333Y0205183D03*
X0417333Y0205183D03*
X0417333Y0152683D03*
X0417333Y0354683D03*
X0417333Y0407183D03*
X0357333Y0407183D03*
X0315333Y0407183D03*
X0315333Y0354683D03*
X0357333Y0354683D03*
X0255333Y0354683D03*
X0213333Y0354683D03*
X0213333Y0407183D03*
X0255333Y0407183D03*
X0153333Y0407183D03*
X0153333Y0354683D03*
D15*
X0143333Y0370933D03*
X0143333Y0380933D03*
X0143333Y0390933D03*
X0170833Y0410933D03*
X0170833Y0430933D03*
X0195833Y0430933D03*
X0195833Y0410933D03*
X0245333Y0390933D03*
X0245333Y0380933D03*
X0245333Y0370933D03*
X0275333Y0340933D03*
X0285333Y0340933D03*
X0295333Y0340933D03*
X0347333Y0370933D03*
X0347333Y0380933D03*
X0347333Y0390933D03*
X0374833Y0410933D03*
X0374833Y0430933D03*
X0399833Y0430933D03*
X0399833Y0410933D03*
X0397333Y0340933D03*
X0387333Y0340933D03*
X0377333Y0340933D03*
X0297833Y0410933D03*
X0297833Y0430933D03*
X0272833Y0430933D03*
X0272833Y0410933D03*
X0193333Y0340933D03*
X0183333Y0340933D03*
X0173333Y0340933D03*
X0170833Y0228933D03*
X0170833Y0208933D03*
X0195833Y0208933D03*
X0195833Y0228933D03*
X0245333Y0188933D03*
X0245333Y0178933D03*
X0245333Y0168933D03*
X0275333Y0138933D03*
X0285333Y0138933D03*
X0295333Y0138933D03*
X0347333Y0168933D03*
X0347333Y0178933D03*
X0347333Y0188933D03*
X0374833Y0208933D03*
X0374833Y0228933D03*
X0399833Y0228933D03*
X0399833Y0208933D03*
X0397333Y0138933D03*
X0387333Y0138933D03*
X0377333Y0138933D03*
X0297833Y0208933D03*
X0297833Y0228933D03*
X0272833Y0228933D03*
X0272833Y0208933D03*
X0193333Y0138933D03*
X0183333Y0138933D03*
X0173333Y0138933D03*
X0143333Y0168933D03*
X0143333Y0178933D03*
X0143333Y0188933D03*
D16*
X0163333Y0188933D01*
X0168333Y0183933D01*
X0183333Y0198933D01*
X0183333Y0238933D01*
X0208333Y0238933D01*
X0213333Y0243933D01*
X0214333Y0243933D01*
X0193333Y0253933D02*
X0193333Y0263933D01*
X0188333Y0268933D01*
X0178333Y0268933D01*
X0183333Y0253933D02*
X0179833Y0250433D01*
X0161833Y0250433D01*
X0153333Y0258933D01*
X0146333Y0250933D02*
X0146333Y0266933D01*
X0146333Y0250933D02*
X0149533Y0247733D01*
X0179533Y0247733D01*
X0183333Y0243933D01*
X0178333Y0243933D02*
X0183333Y0238933D01*
X0178333Y0243933D02*
X0173333Y0243933D01*
X0203333Y0278933D02*
X0203333Y0283933D01*
X0198333Y0288933D01*
X0198333Y0323933D01*
X0178333Y0323933D02*
X0170833Y0316433D01*
X0170833Y0305433D01*
X0164333Y0298933D01*
X0148333Y0298933D01*
X0148333Y0294933D02*
X0154333Y0288933D01*
X0193333Y0288933D01*
X0156333Y0304933D02*
X0156333Y0306933D01*
X0158333Y0308933D01*
X0156333Y0304933D02*
X0154333Y0302933D01*
X0148333Y0302933D01*
X0173333Y0340933D02*
X0173333Y0380933D01*
X0168333Y0385933D01*
X0183333Y0400933D01*
X0183333Y0440933D01*
X0208333Y0440933D01*
X0213333Y0445933D01*
X0214333Y0445933D01*
X0193333Y0455933D02*
X0193333Y0465933D01*
X0188333Y0470933D01*
X0178333Y0470933D01*
X0183333Y0455933D02*
X0179833Y0452433D01*
X0161833Y0452433D01*
X0153333Y0460933D01*
X0146333Y0452933D02*
X0149533Y0449733D01*
X0179533Y0449733D01*
X0183333Y0445933D01*
X0178333Y0445933D02*
X0183333Y0440933D01*
X0178333Y0445933D02*
X0173333Y0445933D01*
X0146333Y0452933D02*
X0146333Y0468933D01*
X0154333Y0490933D02*
X0193333Y0490933D01*
X0198333Y0490933D02*
X0203333Y0485933D01*
X0203333Y0480933D01*
X0198333Y0490933D02*
X0198333Y0525933D01*
X0178333Y0525933D02*
X0170833Y0518433D01*
X0170833Y0507433D01*
X0164333Y0500933D01*
X0148333Y0500933D01*
X0148333Y0496933D02*
X0154333Y0490933D01*
X0154333Y0504933D02*
X0148333Y0504933D01*
X0154333Y0504933D02*
X0156333Y0506933D01*
X0156333Y0508933D01*
X0158333Y0510933D01*
X0250333Y0504933D02*
X0256333Y0504933D01*
X0258333Y0506933D01*
X0258333Y0508933D01*
X0260333Y0510933D01*
X0266333Y0500933D02*
X0250333Y0500933D01*
X0250333Y0496933D02*
X0256333Y0490933D01*
X0295333Y0490933D01*
X0300333Y0490933D02*
X0305333Y0485933D01*
X0305333Y0480933D01*
X0300333Y0490933D02*
X0300333Y0525933D01*
X0280333Y0525933D02*
X0272833Y0518433D01*
X0272833Y0507433D01*
X0266333Y0500933D01*
X0280333Y0470933D02*
X0290333Y0470933D01*
X0295333Y0465933D01*
X0295333Y0455933D01*
X0285333Y0455933D02*
X0281833Y0452433D01*
X0263833Y0452433D01*
X0255333Y0460933D01*
X0248333Y0452933D02*
X0251533Y0449733D01*
X0281533Y0449733D01*
X0285333Y0445933D01*
X0280333Y0445933D02*
X0285333Y0440933D01*
X0310333Y0440933D01*
X0315333Y0445933D01*
X0316333Y0445933D01*
X0285333Y0440933D02*
X0285333Y0400933D01*
X0270333Y0385933D01*
X0275333Y0380933D01*
X0275333Y0340933D01*
X0280333Y0323933D02*
X0272833Y0316433D01*
X0272833Y0305433D01*
X0266333Y0298933D01*
X0250333Y0298933D01*
X0250333Y0294933D02*
X0256333Y0288933D01*
X0295333Y0288933D01*
X0300333Y0288933D02*
X0305333Y0283933D01*
X0305333Y0278933D01*
X0300333Y0288933D02*
X0300333Y0323933D01*
X0260333Y0308933D02*
X0258333Y0306933D01*
X0258333Y0304933D01*
X0256333Y0302933D01*
X0250333Y0302933D01*
X0248333Y0266933D02*
X0248333Y0250933D01*
X0251533Y0247733D01*
X0281533Y0247733D01*
X0285333Y0243933D01*
X0280333Y0243933D02*
X0285333Y0238933D01*
X0310333Y0238933D01*
X0315333Y0243933D01*
X0316333Y0243933D01*
X0295333Y0253933D02*
X0295333Y0263933D01*
X0290333Y0268933D01*
X0280333Y0268933D01*
X0285333Y0253933D02*
X0281833Y0250433D01*
X0263833Y0250433D01*
X0255333Y0258933D01*
X0275333Y0243933D02*
X0280333Y0243933D01*
X0285333Y0238933D02*
X0285333Y0198933D01*
X0270333Y0183933D01*
X0275333Y0178933D01*
X0275333Y0138933D01*
X0270333Y0183933D02*
X0265333Y0188933D01*
X0245333Y0188933D01*
X0173333Y0178933D02*
X0173333Y0138933D01*
X0173333Y0178933D02*
X0168333Y0183933D01*
X0347333Y0188933D02*
X0367333Y0188933D01*
X0372333Y0183933D01*
X0387333Y0198933D01*
X0387333Y0238933D01*
X0412333Y0238933D01*
X0417333Y0243933D01*
X0418333Y0243933D01*
X0397333Y0253933D02*
X0397333Y0263933D01*
X0392333Y0268933D01*
X0382333Y0268933D01*
X0387333Y0253933D02*
X0383833Y0250433D01*
X0365833Y0250433D01*
X0357333Y0258933D01*
X0350333Y0250933D02*
X0350333Y0266933D01*
X0350333Y0250933D02*
X0353533Y0247733D01*
X0383533Y0247733D01*
X0387333Y0243933D01*
X0382333Y0243933D02*
X0387333Y0238933D01*
X0382333Y0243933D02*
X0377333Y0243933D01*
X0407333Y0278933D02*
X0407333Y0283933D01*
X0402333Y0288933D01*
X0402333Y0323933D01*
X0382333Y0323933D02*
X0374833Y0316433D01*
X0374833Y0305433D01*
X0368333Y0298933D01*
X0352333Y0298933D01*
X0352333Y0294933D02*
X0358333Y0288933D01*
X0397333Y0288933D01*
X0360333Y0304933D02*
X0360333Y0306933D01*
X0362333Y0308933D01*
X0360333Y0304933D02*
X0358333Y0302933D01*
X0352333Y0302933D01*
X0377333Y0340933D02*
X0377333Y0380933D01*
X0372333Y0385933D01*
X0387333Y0400933D01*
X0387333Y0440933D01*
X0412333Y0440933D01*
X0417333Y0445933D01*
X0418333Y0445933D01*
X0397333Y0455933D02*
X0397333Y0465933D01*
X0392333Y0470933D01*
X0382333Y0470933D01*
X0387333Y0455933D02*
X0383833Y0452433D01*
X0365833Y0452433D01*
X0357333Y0460933D01*
X0350333Y0452933D02*
X0353533Y0449733D01*
X0383533Y0449733D01*
X0387333Y0445933D01*
X0382333Y0445933D02*
X0387333Y0440933D01*
X0382333Y0445933D02*
X0377333Y0445933D01*
X0350333Y0452933D02*
X0350333Y0468933D01*
X0358333Y0490933D02*
X0397333Y0490933D01*
X0402333Y0490933D02*
X0407333Y0485933D01*
X0407333Y0480933D01*
X0402333Y0490933D02*
X0402333Y0525933D01*
X0382333Y0525933D02*
X0374833Y0518433D01*
X0374833Y0507433D01*
X0368333Y0500933D01*
X0352333Y0500933D01*
X0352333Y0496933D02*
X0358333Y0490933D01*
X0358333Y0504933D02*
X0352333Y0504933D01*
X0358333Y0504933D02*
X0360333Y0506933D01*
X0360333Y0508933D01*
X0362333Y0510933D01*
X0280333Y0445933D02*
X0275333Y0445933D01*
X0248333Y0452933D02*
X0248333Y0468933D01*
X0245333Y0390933D02*
X0265333Y0390933D01*
X0270333Y0385933D01*
X0347333Y0390933D02*
X0367333Y0390933D01*
X0372333Y0385933D01*
X0372333Y0183933D02*
X0377333Y0178933D01*
X0377333Y0138933D01*
X0168333Y0385933D02*
X0163333Y0390933D01*
X0143333Y0390933D01*
D17*
X0153333Y0460933D03*
X0146333Y0468933D03*
X0170833Y0507433D03*
X0248333Y0468933D03*
X0255333Y0460933D03*
X0272833Y0507433D03*
X0350333Y0468933D03*
X0357333Y0460933D03*
X0374833Y0507433D03*
X0374833Y0305433D03*
X0350333Y0266933D03*
X0357333Y0258933D03*
X0272833Y0305433D03*
X0248333Y0266933D03*
X0255333Y0258933D03*
X0170833Y0305433D03*
X0146333Y0266933D03*
X0153333Y0258933D03*
D18*
X0178333Y0268933D03*
X0193333Y0288933D03*
X0203333Y0278933D03*
X0214333Y0243933D03*
X0260333Y0308933D03*
X0295333Y0288933D03*
X0305333Y0278933D03*
X0280333Y0268933D03*
X0316333Y0243933D03*
X0362333Y0308933D03*
X0397333Y0288933D03*
X0407333Y0278933D03*
X0382333Y0268933D03*
X0418333Y0243933D03*
X0418333Y0445933D03*
X0407333Y0480933D03*
X0397333Y0490933D03*
X0382333Y0470933D03*
X0362333Y0510933D03*
X0305333Y0480933D03*
X0295333Y0490933D03*
X0280333Y0470933D03*
X0316333Y0445933D03*
X0260333Y0510933D03*
X0203333Y0480933D03*
X0193333Y0490933D03*
X0178333Y0470933D03*
X0214333Y0445933D03*
X0158333Y0510933D03*
X0158333Y0308933D03*
M02*
